<svg id="Camada_1" data-name="Camada 1" xmlns="http://www.w3.org/2000/svg" viewBox="0 0 129.9 125.57"><defs><style>.cls-1{fill:#fff;}</style></defs><title>dentistica-branco</title><g id="outline"><path class="cls-1" d="M231.08,81.27q-2.49-6.6-5.63-12.93c-.38-.73-.79-1.51-1.23-2.33-2.23-4.21-5-9.45-5-14h-4.33c0,5.63,3.08,11.4,5.55,16,.43.79.82,1.55,1.19,2.27q3,6.12,5.45,12.53l1,2.44,4-1.61Z" transform="translate(-191.05 -2.21)"/><path class="cls-1" d="M305.62,46.18c-1.42-18-13-31-28-31a27.1,27.1,0,0,0-18.32,6.72,12.83,12.83,0,0,0-3.46-2.85,12,12,0,0,0,.13-1.7,13,13,0,0,0-24.08-6.67,10.79,10.79,0,0,0-15,2.57,11.52,11.52,0,0,0-1.1,2,15.14,15.14,0,0,0-9,27.89,47.18,47.18,0,0,0-.54,6.71c0,8.3,3.24,15.79,6.74,22.64,5.24,10.29,9.1,19.5,12.21,26.9,1,2.47,2,4.69,2.86,6.76h-.16a6.5,6.5,0,0,0-6.12,8.66H206.2a6.5,6.5,0,0,0,0,13h90.94a6.5,6.5,0,0,0,0-13h-4.71a6.48,6.48,0,0,0-6.12-8.66H284c.43-1,.89-2.06,1.35-3.15a15.13,15.13,0,0,0,18.78-21.1A10.73,10.73,0,0,0,307.33,70a13,13,0,0,0-1.71-23.86ZM204,30.36a10.84,10.84,0,0,1,10.82-10.83,11.23,11.23,0,0,1,2,.2,2.16,2.16,0,0,0,2.5-1.65A6.47,6.47,0,0,1,230.9,15.7a2.17,2.17,0,0,0,3.83-.69,8.63,8.63,0,0,1,16.94,2.36,8.4,8.4,0,0,1-.37,2.33,2.19,2.19,0,0,0,1.3,2.6A8.77,8.77,0,1,1,241.2,28a2.15,2.15,0,0,0-1.29-2.59,8.66,8.66,0,0,1-4.33-3.72,2.17,2.17,0,0,0-3.88.28,6.47,6.47,0,0,1-4.54,3.86,2.18,2.18,0,0,0-1.65,2.51,11.19,11.19,0,0,1,.18,2,10.83,10.83,0,0,1-21.65,0Zm12.75,40.15c-3.25-6.38-6.26-13.28-6.26-20.67a42,42,0,0,1,.33-4.88A15.12,15.12,0,0,0,230,30.36c0-.3,0-.6,0-.91a10.79,10.79,0,0,0,3.91-2.88,12.72,12.72,0,0,0,2.75,2.09,12.06,12.06,0,0,0-.14,1.7,13,13,0,1,0,25.08-4.74l.05,0c4.09-3.12,7.94-6.06,16-6.06,12.39,0,22,10.8,23.58,26-.22,0-.44,0-.67,0a10.83,10.83,0,1,0-11.93,14.94,13,13,0,0,0,1.75,4.73,10.82,10.82,0,0,0-4.07,8.44c0,.22,0,.43,0,.65a15.12,15.12,0,0,0-4.81,26.59c-1,2.35-1.95,4.56-2.83,6.51-3.84,8.43-6.56,11.72-9.7,11.72-2.94,0-4.15,0-4.29-10.9,0-1.3,0-2.71,0-4.26,0-13.37-1.45-21.65-8.66-21.65s-8.66,8.28-8.66,21.65c0,1.55,0,3,0,4.3-.14,10.86-1.35,10.86-4.29,10.86-3.14,0-5.85-3.29-9.7-11.73-1.29-2.81-2.62-6-4.17-9.69C226,90.24,222.11,81,216.79,70.51Zm43.54,35.63h-8.66V104c0-17.32,3-17.32,4.33-17.32s4.33,0,4.33,17.32Zm26,4.33a2.17,2.17,0,1,1,0,4.33,2.17,2.17,0,0,0,0,4.33h10.83a2.17,2.17,0,0,1,0,4.33H206.2a2.17,2.17,0,0,1,0-4.33h21.65a2.17,2.17,0,1,0,0-4.33,2.17,2.17,0,0,1,0-4.33H230c3.16,6.74,6.86,13,13.06,13,7.25,0,8.35-4.88,8.57-13h8.84c.21,8.12,1.33,13,8.57,13,6.2,0,9.9-6.24,13.06-13ZM303.78,66.8a2.17,2.17,0,0,0-1.51,2.67,2,2,0,0,0,.28.62A6.42,6.42,0,0,1,300.76,79c-.19.13-.39.25-.59.36a2.16,2.16,0,0,0-.89,2.93l.15.24a10.81,10.81,0,1,1-10.31-4.42A2.16,2.16,0,0,0,291,75.67a1.27,1.27,0,0,0-.06-.28,6.31,6.31,0,0,1-.27-1.73,6.49,6.49,0,0,1,3.79-5.88,2.17,2.17,0,0,0,1.06-2.88,2.59,2.59,0,0,0-.37-.56,8.55,8.55,0,0,1-2.31-5.84,2.17,2.17,0,0,0-2.17-2.16A6.5,6.5,0,1,1,297,48.43a2.16,2.16,0,0,0,2.58,1.65h0a8.63,8.63,0,0,1,4.21,16.73Z" transform="translate(-191.05 -2.21)"/><path class="cls-1" d="M318.79,13a8.66,8.66,0,0,1-8.66-8.66,2.17,2.17,0,1,0-4.33,0A8.66,8.66,0,0,1,297.14,13a2.17,2.17,0,1,0,0,4.33A8.66,8.66,0,0,1,305.8,26a2.17,2.17,0,0,0,4.33,0,8.66,8.66,0,0,1,8.66-8.66,2.17,2.17,0,0,0,0-4.33ZM308,18.86a13.15,13.15,0,0,0-3.66-3.66A13,13,0,0,0,308,11.55a13,13,0,0,0,3.66,3.65A13.15,13.15,0,0,0,308,18.86Z" transform="translate(-191.05 -2.21)"/><path class="cls-1" d="M204,104a2.16,2.16,0,0,0,2.16-2.16,8.66,8.66,0,0,1,8.66-8.66,2.17,2.17,0,1,0,0-4.33,8.66,8.66,0,0,1-8.66-8.66,2.17,2.17,0,1,0-4.33,0,8.66,8.66,0,0,1-8.66,8.66,2.17,2.17,0,0,0,0,4.33,8.65,8.65,0,0,1,8.66,8.66A2.17,2.17,0,0,0,204,104Zm0-16.65A13,13,0,0,0,207.7,91,13,13,0,0,0,204,94.64,13,13,0,0,0,200.38,91,13,13,0,0,0,204,87.32Z" transform="translate(-191.05 -2.21)"/><path class="cls-1" d="M291,36l3.53-2.52c-11.91-16.67-26.63-7.14-26.78-7l2.4,3.61C270.65,29.69,281.55,22.65,291,36Z" transform="translate(-191.05 -2.21)"/><rect class="cls-1" x="231.1" y="88.56" width="4.33" height="4.84" transform="translate(-207.11 111.71) rotate(-26.57)"/></g></svg>