<svg id="Camada_1" data-name="Camada 1" xmlns="http://www.w3.org/2000/svg" viewBox="0 0 99.5 96.52"><defs><style>.cls-1{fill:#20d669;}</style></defs><title>dentistica</title><g id="outline"><path class="cls-1" d="M30.89,62.55a106.22,106.22,0,0,0-4.32-9.92c-.29-.56-.6-1.16-.94-1.79-1.71-3.23-3.84-7.25-3.84-10.74H18.47c0,4.32,2.37,8.75,4.26,12.28.33.6.63,1.18.91,1.74q2.31,4.7,4.18,9.61l.77,1.87,3.07-1.23Z" transform="translate(-0.25 -1.74)"/><path class="cls-1" d="M88.09,35.62C87,21.81,78.12,11.84,66.61,11.84A20.78,20.78,0,0,0,52.55,17a9.64,9.64,0,0,0-2.66-2.18A8.26,8.26,0,0,0,50,13.5,10,10,0,0,0,31.52,8.38a8.27,8.27,0,0,0-11.51,2,8.17,8.17,0,0,0-.85,1.53,11.61,11.61,0,0,0-6.9,21.4,37,37,0,0,0-.42,5.15c0,6.37,2.49,12.11,5.17,17.37,4,7.9,7,15,9.37,20.65.77,1.89,1.54,3.59,2.2,5.18h-.13a5,5,0,0,0-5,5,4.89,4.89,0,0,0,.28,1.65h-12a5,5,0,0,0,0,10H81.59a5,5,0,0,0,0-10H78a5,5,0,0,0-3-6.36,5.07,5.07,0,0,0-1.68-.29H71.5c.33-.77.69-1.58,1-2.41A11.61,11.61,0,0,0,87,63,8.22,8.22,0,0,0,89.4,53.9a10,10,0,0,0-1.31-18.31v0Zm-78-12.14a8.33,8.33,0,0,1,8.31-8.31,8.73,8.73,0,0,1,1.53.16,1.66,1.66,0,0,0,1.92-1.27,5,5,0,0,1,8.88-1.83,1.66,1.66,0,0,0,2.33.35,1.58,1.58,0,0,0,.61-.88,6.62,6.62,0,0,1,13,1.81,6.37,6.37,0,0,1-.28,1.79,1.69,1.69,0,0,0,1,2,6.73,6.73,0,1,1-8.75,4.37,1.66,1.66,0,0,0-1-2,6.62,6.62,0,0,1-3.32-2.85,1.67,1.67,0,0,0-3,.21,5,5,0,0,1-3.49,3,1.66,1.66,0,0,0-1.26,1.92,8.82,8.82,0,0,1,.14,1.54,8.31,8.31,0,0,1-16.62,0ZM19.9,54.29c-2.5-4.89-4.8-10.19-4.8-15.86a31.18,31.18,0,0,1,.25-3.74,11.6,11.6,0,0,0,14.29-8.06,12,12,0,0,0,.43-3.15v-.69a8.4,8.4,0,0,0,3-2.21,9.78,9.78,0,0,0,2.11,1.6,8.17,8.17,0,0,0-.11,1.31,10,10,0,1,0,19.24-3.64h0c3.14-2.4,6.1-4.65,12.28-4.65,9.51,0,16.88,8.29,18.09,20h-.51a8.31,8.31,0,1,0-9.15,11.46,9.83,9.83,0,0,0,1.34,3.63,8.33,8.33,0,0,0-3.13,6.48v.5a11.6,11.6,0,0,0-3.69,20.4c-.77,1.8-1.49,3.5-2.17,5-2.94,6.46-5,9-7.44,9-2.26,0-3.19,0-3.29-8.37V80c0-10.27-1.12-16.62-6.65-16.62S43.39,69.72,43.39,80v3.3c-.11,8.33-1,8.33-3.3,8.33-2.41,0-4.49-2.53-7.44-9-1-2.16-2-4.61-3.2-7.44C27,69.43,24,62.34,19.93,54.29ZM53.31,81.63H46.66V80C46.66,66.7,49,66.7,50,66.7s3.32,0,3.32,13.29Zm20,3.32a1.67,1.67,0,0,1,.23,3.33h-.23a1.66,1.66,0,0,0,0,3.32h8.31a1.66,1.66,0,0,1,0,3.32H11.8a1.66,1.66,0,0,1,0-3.32H28.42a1.66,1.66,0,0,0,.22-3.32.81.81,0,0,0-.22,0,1.67,1.67,0,0,1,0-3.33h1.65c2.42,5.18,5.26,10,10,10,5.57,0,6.41-3.74,6.58-10h6.79c.16,6.24,1,10,6.57,10,4.76,0,7.6-4.79,10-10Zm13.42-33.5a1.66,1.66,0,0,0-1.16,2,1.61,1.61,0,0,0,.22.48,4.94,4.94,0,0,1-1.37,6.83h0a4.12,4.12,0,0,1-.45.27,1.68,1.68,0,0,0-.69,2.25h0l.11.19a8.27,8.27,0,1,1-7.91-3.4,1.65,1.65,0,0,0,1.45-1.84v0a1.55,1.55,0,0,0,0-.21,4.83,4.83,0,0,1,2.7-5.84A1.67,1.67,0,0,0,80.34,50h0a1.8,1.8,0,0,0-.29-.43,6.61,6.61,0,0,1-1.77-4.48,1.66,1.66,0,0,0-1.66-1.66,5,5,0,1,1,4.86-6.07,1.66,1.66,0,0,0,2,1.27h0a6.62,6.62,0,0,1,3.23,12.83Z" transform="translate(-0.25 -1.74)"/><path class="cls-1" d="M98.2,10.16a6.64,6.64,0,0,1-6.65-6.64h0a1.66,1.66,0,1,0-3.32-.23v.23a6.64,6.64,0,0,1-6.65,6.64h0a1.67,1.67,0,0,0-.22,3.33h.23a6.64,6.64,0,0,1,6.64,6.64h0a1.66,1.66,0,0,0,3.32,0,6.65,6.65,0,0,1,6.65-6.65h0a1.66,1.66,0,0,0,0-3.32Zm-8.28,4.5a10.16,10.16,0,0,0-2.81-2.81,10,10,0,0,0,2.81-2.8,9.86,9.86,0,0,0,2.81,2.8A10,10,0,0,0,89.92,14.66Z" transform="translate(-0.25 -1.74)"/><path class="cls-1" d="M10.11,80a1.66,1.66,0,0,0,1.66-1.66h0a6.64,6.64,0,0,1,6.65-6.64h0a1.66,1.66,0,0,0,.22-3.32.81.81,0,0,0-.22,0,6.65,6.65,0,0,1-6.65-6.65h0a1.66,1.66,0,1,0-3.32-.22.81.81,0,0,0,0,.22A6.65,6.65,0,0,1,1.8,68.37h0a1.66,1.66,0,0,0,0,3.32,6.63,6.63,0,0,1,6.65,6.63h0A1.66,1.66,0,0,0,10.11,80Zm0-12.77A10.23,10.23,0,0,0,13,70a10.06,10.06,0,0,0-2.84,2.79A9.82,9.82,0,0,0,7.34,70a10,10,0,0,0,2.77-2.83Z" transform="translate(-0.25 -1.74)"/><path class="cls-1" d="M76.87,27.81l2.71-1.93C70.44,13.09,59.15,20.4,59,20.51l1.84,2.77C61.26,23,69.62,17.57,76.87,27.81Z" transform="translate(-0.25 -1.74)"/><rect class="cls-1" x="30.9" y="68.13" width="3.32" height="3.71" transform="translate(-28.12 20.22) rotate(-26.57)"/></g></svg>