<svg id="Camada_1" data-name="Camada 1" xmlns="http://www.w3.org/2000/svg" viewBox="0 0 125.34 125.26"><defs><style>.cls-1{fill:#fff;}</style></defs><title>endodontia-branco</title><path class="cls-1" d="M316.5,104.7v0h-.15c-2.35-.52-7-1-16.32-2.08a98.13,98.13,0,0,0-17.73-.11c2.34-4.34,4.77-9.7,7.69-16.13,3.27-7.22,7-15.41,11.67-24.58a53.34,53.34,0,0,0,6.49-23.9c0-19.57-14-35.49-31.32-35.49a31.17,31.17,0,0,0-18,6.7,3.94,3.94,0,0,1-5.56.25l-.25-.25A34.43,34.43,0,0,0,243,3.75a2.09,2.09,0,0,0-2.63,1.32l-3,9.17a2,2,0,0,0,.19,1.73l5.1,8.51-10.51,5.25a2.08,2.08,0,0,0-1.15,1.87V43.44L219,40a2.08,2.08,0,0,0-2,.53l-10,10a2.09,2.09,0,0,0-.5,2.15,70.18,70.18,0,0,0,3.85,9.06c4.66,9.14,8.36,17.3,11.63,24.51,2.57,5.68,4.87,10.74,7,14.92a137.13,137.13,0,0,0-34,3.53,2.08,2.08,0,0,0-1.57,2v18.79a2.09,2.09,0,0,0,2.09,2.09H316.5a2.1,2.1,0,0,0,2.09-2.09V107.26a2.7,2.7,0,0,0,.06-.41c.06-1.07.09-1.62-2.15-2.15ZM225.69,84.56c-3.29-7.25-7-15.46-11.71-24.68a66.78,66.78,0,0,1-3.19-7.31l6.12-6.11,1.49,10.48,4.14-.6L220.9,44.92l10,2.87v8.28l-6,9.94a2.12,2.12,0,0,0-.15,1.85L229,78.3l3.88-1.55-3.8-9.48,4.74-7.89,6.13,3.06,3.86,5.81,3.48-2.32-4.18-6.26a2,2,0,0,0-.8-.71l-7.2-3.6V35.94l6,4.81-1.76,7a2.09,2.09,0,0,0,1.52,2.53h0l8.35,2.09,1-4.05-6.32-1.59,1.58-6.32a2.09,2.09,0,0,0-.72-2.14L236.85,32l9-4.49,7.06,1.41-3,5.91a2.12,2.12,0,0,0,0,1.87l4.18,8.35,3.74-1.87-3.72-7.43,3.49-7,7.95-6-2.5-3.34-7.61,5.7-8.61-1.72-5.3-8.83,2.07-6.21a30.68,30.68,0,0,1,6.9,4,8,8,0,0,0,10.89,0,26.94,26.94,0,0,1,15.43-5.83c15,0,27.14,14,27.14,31.31a49.18,49.18,0,0,1-6,22c-4.73,9.26-8.46,17.49-11.75,24.76-3.46,7.62-6.23,13.71-8.89,18.23l-2.67.22c-3.36.28-6.76.56-10.2.75-.12-2.48-.12-5.61-.12-9.6,0-14.55-1.37-23-8.35-23s-8.35,8.42-8.35,23c0,3.7,0,6.79-.11,9.26-1.9-.21-3.81-.49-5.75-.87a73.09,73.09,0,0,0-7.93-1.12c-2.44-4.41-5.09-10.24-8.13-16.94ZM260.26,104c-2.84.07-5.7,0-8.6-.14.12-2.54.12-5.66.12-9.62,0-16.56,2.11-18.79,4.18-18.79s4.17,2.23,4.17,18.79c0,4,0,7.19.13,9.76Zm54.15,19.46H197.51v-15c5.76-1.25,26.21-5.15,43.42-1.7,12,2.39,23.19,1.44,34,.53a125.52,125.52,0,0,1,24.59-.5c8.86,1,12.94,1.49,14.84,1.75Z" transform="translate(-193.33 -2.37)"/><path class="cls-1" d="M203.77,115.1h8.35v4.18h-8.35Z" transform="translate(-193.33 -2.37)"/><path class="cls-1" d="M220.47,110.93h8.35v4.17h-8.35Z" transform="translate(-193.33 -2.37)"/><path class="cls-1" d="M281,115.1h8.35v4.18H281Z" transform="translate(-193.33 -2.37)"/><path class="cls-1" d="M295.62,110.93H304v4.17h-8.35Z" transform="translate(-193.33 -2.37)"/><path class="cls-1" d="M236.2,3.33a2.06,2.06,0,0,0-1.78-.92c-16.9.4-30.65,16.3-30.65,35.45A41.27,41.27,0,0,0,204,42a2.09,2.09,0,0,0,2.3,1.85,2,2,0,0,0,1.25-.6l7.52-7.51h9.56a2.09,2.09,0,0,0,2.09-2.09v-7l7.2-3.59A2.1,2.1,0,0,0,235,20.66L233.1,13l3.29-7.67a2.1,2.1,0,0,0-.19-2Zm-7.31,10L230.56,20l-6.85,3.43a2.07,2.07,0,0,0-1.15,1.87V31.6h-8.35a2.09,2.09,0,0,0-1.48.61L208,37c.38-15.2,10.39-27.91,23.22-30.09L229,12a2.09,2.09,0,0,0-.11,1.33Z" transform="translate(-193.33 -2.37)"/><path class="cls-1" d="M267,66.48a2.09,2.09,0,0,0,2.95,0l9-9,4.79,4.79a2.08,2.08,0,0,0,3,0L295,54a2.08,2.08,0,0,0,0-3l-4.79-4.79,6.88-6.87a2.09,2.09,0,0,0,0-3L288.75,28a2.09,2.09,0,0,0-2.95,0l-6.88,6.88-4.78-4.79a2.11,2.11,0,0,0-3,0l-8.35,8.35a2.09,2.09,0,0,0,0,3l4.79,4.79-9,9a2.09,2.09,0,0,0,0,3Zm23.57-14-5.39,5.4-3.32-3.31,5.4-5.4ZM267.26,40l5.4-5.4L276,37.86l-5.4,5.4Zm20-7.49,5.4,5.4L268.48,62.05l-5.39-5.4Z" transform="translate(-193.33 -2.37)"/><path class="cls-1" d="M278.92,17h4.18v4.18h-4.18Z" transform="translate(-193.33 -2.37)"/><path class="cls-1" d="M237.17,71.26h4.18v4.18h-4.18Z" transform="translate(-193.33 -2.37)"/><path class="cls-1" d="M281,69.18h4.18v4.17H281Z" transform="translate(-193.33 -2.37)"/></svg>