<svg id="Camada_1" data-name="Camada 1" xmlns="http://www.w3.org/2000/svg" viewBox="0 0 99.28 99.21"><defs><style>.cls-1{fill:#28c9c4;}</style></defs><title>endodontia</title><path class="cls-1" d="M97.92,81.47H97.8c-1.86-.41-5.55-.79-12.94-1.65a78.49,78.49,0,0,0-14-.09c1.86-3.44,3.78-7.68,6.1-12.78,2.59-5.72,5.55-12.21,9.25-19.48A42.28,42.28,0,0,0,91.3,28.53C91.3,13,80.21.4,66.48.4A24.66,24.66,0,0,0,52.21,5.71a3.13,3.13,0,0,1-4.41.2l-.19-.2a27.34,27.34,0,0,0-8-4.25,1.65,1.65,0,0,0-2.08,1L35.2,9.77a1.61,1.61,0,0,0,.15,1.37l4,6.75-8.33,4.16a1.65,1.65,0,0,0-.92,1.48v9.39l-9.51-2.73a1.65,1.65,0,0,0-1.58.42l-7.93,7.93a1.64,1.64,0,0,0-.39,1.7,53.89,53.89,0,0,0,3,7.18c3.69,7.24,6.62,13.71,9.22,19.43,2,4.5,3.85,8.51,5.54,11.82a109,109,0,0,0-26.94,2.8A1.65,1.65,0,0,0,.36,83.05V98A1.65,1.65,0,0,0,2,99.6h95.9A1.67,1.67,0,0,0,99.58,98V83.5c0-.11,0-.22,0-.33C99.67,82.33,99.7,81.89,97.92,81.47Zm-72-16C23.34,59.76,20.4,53.25,16.67,46a51.39,51.39,0,0,1-2.53-5.8L19,35.31l1.18,8.31,3.28-.48-1.3-9,7.93,2.27v6.57L25.32,50.8a1.69,1.69,0,0,0-.12,1.47l3.37,8.28,3.07-1.23-3-7.52,3.76-6.25L37.25,48l3.06,4.6,2.76-1.84-3.32-5a1.49,1.49,0,0,0-.63-.56l-5.71-2.86V27l4.76,3.82-1.4,5.54a1.66,1.66,0,0,0,1.21,2h0L44.6,40l.79-3.21-5-1.26,1.25-5a1.65,1.65,0,0,0-.57-1.7l-6.27-5,7.14-3.56,5.59,1.12-2.38,4.68a1.7,1.7,0,0,0,0,1.49l3.32,6.61,3-1.48-3-5.89,2.77-5.54,6.3-4.76-2-2.65-6,4.52L42.7,17l-4.2-7,1.64-4.92a24.3,24.3,0,0,1,5.47,3.17,6.34,6.34,0,0,0,8.63,0A21.26,21.26,0,0,1,66.47,3.66C78.36,3.66,88,14.75,88,28.47a38.88,38.88,0,0,1-4.76,17.44c-3.74,7.34-6.7,13.86-9.31,19.62-2.74,6-4.94,10.87-7,14.45l-2.12.17c-2.66.23-5.36.45-8.08.6-.1-2-.1-4.45-.1-7.61,0-11.53-1.08-18.23-6.62-18.23s-6.62,6.68-6.62,18.23c0,2.93,0,5.38-.08,7.34-1.51-.16-3-.39-4.56-.69a58,58,0,0,0-6.29-.89c-1.93-3.49-4-8.11-6.44-13.42Zm27.4,15.4c-2.25.06-4.52,0-6.82-.11.1-2,.1-4.48.1-7.62,0-13.13,1.67-14.89,3.31-14.89s3.3,1.76,3.3,14.89C53.24,76.35,53.24,78.88,53.35,80.91ZM96.26,96.34H3.61V84.45c4.57-1,20.78-4.08,34.42-1.35,9.51,1.9,18.38,1.14,27,.42a99.07,99.07,0,0,1,19.48-.39c7,.79,10.26,1.18,11.77,1.38Z" transform="translate(-0.36 -0.4)"/><path class="cls-1" d="M8.57,89.71h6.62V93H8.57Z" transform="translate(-0.36 -0.4)"/><path class="cls-1" d="M21.81,86.41h6.62v3.3H21.81Z" transform="translate(-0.36 -0.4)"/><path class="cls-1" d="M69.78,89.71H76.4V93H69.78Z" transform="translate(-0.36 -0.4)"/><path class="cls-1" d="M81.37,86.41H88v3.3H81.4Z" transform="translate(-0.36 -0.4)"/><path class="cls-1" d="M34.28,1.13A1.63,1.63,0,0,0,32.86.4C19.47.71,8.57,13.32,8.57,28.49a32.81,32.81,0,0,0,.19,3.29,1.65,1.65,0,0,0,1.82,1.46,1.57,1.57,0,0,0,1-.47l6-6H25.1a1.65,1.65,0,0,0,1.66-1.65V19.61l5.71-2.85a1.65,1.65,0,0,0,.85-1.9l-1.5-6.07,2.61-6.08A1.67,1.67,0,0,0,34.28,1.13Zm-5.8,7.92,1.33,5.29-5.43,2.72a1.63,1.63,0,0,0-.91,1.48v5H16.85a1.66,1.66,0,0,0-1.18.49l-3.74,3.79c.3-12,8.23-22.12,18.4-23.85L28.57,8A1.72,1.72,0,0,0,28.48,9.05Z" transform="translate(-0.36 -0.4)"/><path class="cls-1" d="M58.69,51.18a1.67,1.67,0,0,0,2.34,0L68.16,44l3.8,3.8a1.65,1.65,0,0,0,2.33,0l0,0,6.55-6.55A1.66,1.66,0,0,0,80.93,39l-.05,0-3.8-3.8,5.46-5.44a1.66,1.66,0,0,0,0-2.34l0,0-6.61-6.61a1.67,1.67,0,0,0-2.34,0l-5.45,5.45-3.79-3.79a1.67,1.67,0,0,0-2.37,0v0L55.35,29a1.67,1.67,0,0,0,0,2.35l0,0,3.8,3.8L52,42.26a1.66,1.66,0,0,0,0,2.34l0,0Zm18.68-11.1L73.1,44.36l-2.64-2.62,4.29-4.28ZM58.89,30.19l4.28-4.28,2.65,2.58-4.28,4.28Zm15.86-5.94L79,28.53,59.86,47.67l-4.27-4.29Z" transform="translate(-0.36 -0.4)"/><path class="cls-1" d="M68.14,12h3.31v3.31H68.14Z" transform="translate(-0.36 -0.4)"/><path class="cls-1" d="M35.05,55h3.31v3.31H35.05Z" transform="translate(-0.36 -0.4)"/><path class="cls-1" d="M69.78,53.32H73.1v3.3H69.78Z" transform="translate(-0.36 -0.4)"/></svg>