<svg xmlns="http://www.w3.org/2000/svg" viewBox="0 0 305.61 242.69"><defs><style>.cls-1{fill-rule:evenodd;}</style></defs><title>faq</title><g id="Camada_2" data-name="Camada 2"><path class="cls-1" d="M307.49,281.77a7.23,7.23,0,0,0-.68.89c-3.33,6-8.68,7.24-14.22,3.26q-21.43-15.39-42.83-30.86a9.5,9.5,0,0,0-6.28-2.07c-4.65.19-9.3,0-14.3,0v13.62c0,4.87,0,9.75,0,14.62,0,7.56-3.3,10.83-11,10.83h-77c-25.26,0-50.53,0-75.79.06a9.13,9.13,0,0,0-4.89,1.55C46,304,31.38,314.13,17.12,324.76c-5.73,4.27-12.5,2.68-15.24-3.6v-191c2.06-5,5.89-6.62,11.15-6.58,21.18.15,42.37.06,63.55.06h3.61V95.77c0-8.42,2.83-11.23,11.3-11.23q102.34,0,204.69-.08c5.22,0,9.08,1.43,11.31,6.3Zm-15.84-16.88V100.45H96.2V237.34h4.09q73.08,0,146.18-.05a18.15,18.15,0,0,1,11.32,3.63c9.93,7.29,20.06,14.31,30.12,21.43C289,263.14,290.17,263.89,291.65,264.89ZM213.27,253H91.11c-7.56,0-10.91-3.37-10.91-10.94q0-49.53,0-99.07v-3.49H17.69V304c1.11-.72,1.93-1.2,2.71-1.75C31,294.83,41.56,287.45,52,279.84a17.34,17.34,0,0,1,10.78-3.44q73.26.11,146.52,0h4Z" transform="translate(-1.88 -84.46)"/><path class="cls-1" d="M193.48,173.09q-32.65,0-65.31,0c-5.77,0-9.14-3.36-8.69-8.52a7.69,7.69,0,0,1,6.91-7,27,27,0,0,1,3-.11H258.21a27.42,27.42,0,0,1,3.27.12,7.56,7.56,0,0,1,6.75,7.78,7.38,7.38,0,0,1-6.75,7.71,26.9,26.9,0,0,1-3,.05Z" transform="translate(-1.88 -84.46)"/><path class="cls-1" d="M194.12,208.33q-33.1,0-66.2,0c-5.94,0-9.58-4.31-8.28-9.63a7.76,7.76,0,0,1,7-5.93c1.09-.09,2.19-.08,3.28-.08H257.87a29.33,29.33,0,0,1,3.87.14,7.64,7.64,0,0,1,6.49,8,7.35,7.35,0,0,1-6.71,7.44,29.58,29.58,0,0,1-3,.05Z" transform="translate(-1.88 -84.46)"/><path class="cls-1" d="M148.68,141.65c-7,0-13.91,0-20.86,0-5.09,0-8.25-2.82-8.36-7.29-.13-4.77,3.16-8.28,8.16-8.31,14.11-.09,28.21-.06,42.32,0a7.84,7.84,0,0,1,7.81,5.33c1.06,3.17.24,6.95-2.37,8.59a11.44,11.44,0,0,1-5.54,1.62C162.79,141.76,155.73,141.65,148.68,141.65Z" transform="translate(-1.88 -84.46)"/></g></svg>