<svg id="Camada_1" data-name="Camada 1" xmlns="http://www.w3.org/2000/svg" viewBox="0 0 75.42 125.01"><defs><style>.cls-1{fill:#fff;}</style></defs><title>implantodontia-branco</title><path class="cls-1" d="M288.18,8.31a20.74,20.74,0,0,0-16-6.42,24,24,0,0,0-13.61,4.58,5.77,5.77,0,0,1-5.82,0A24,24,0,0,0,239.1,1.89a20.71,20.71,0,0,0-16,6.42c-4.09,4.58-5.79,11.08-4.93,18.81.47,4.14,2.73,9.67,6.71,16.43h-2.55a2.08,2.08,0,0,0-2.08,2.08,2,2,0,0,0,.22.93l8.33,16.67a2.08,2.08,0,0,0,1.87,1.15h8.46l.28,4.17h-4.58a2.08,2.08,0,0,0-.6,4.08l5.56,1.66.46,6.76h-5.42a2.08,2.08,0,0,0-.6,4.08l6.41,1.92.44,6.5h-6.25a2.08,2.08,0,0,0-.6,4.07l7.27,2.17.41,6.25h-7.08a2.08,2.08,0,0,0-.6,4.08l8.11,2.44.84,12.37a2.07,2.07,0,0,0,2.07,1.94H266a2.06,2.06,0,0,0,2.08-1.94l.15-2.22h8.18a2.08,2.08,0,0,0,.6-4.08l-8.34-2.5.39-5.92h7.35a2.08,2.08,0,0,0,.6-4.08l-7.53-2.26.42-6.16h6.51a2.08,2.08,0,0,0,.6-4.08l-6.71-2,.42-6.41h5.69a2.08,2.08,0,0,0,.6-4.08l-5.89-1.76,1-15h8.46a2.09,2.09,0,0,0,1.88-1.15l8.33-16.67a2.08,2.08,0,0,0-1.88-3H286.4c4-6.76,6.24-12.29,6.71-16.43.86-7.73-.84-14.24-4.93-18.81Zm-24.09,114.4H247.16l-.59-8.88,17.76,5.34Zm.52-7.81-18.33-5.5-.56-8.32,19.43,5.83Zm.82-12.26-20-6-.57-8.3L266,94.67Zm.82-12.25-21.68-6.5L244,75.57l22.77,6.83Zm.81-12.25-23.34-7-.45-6.75H268ZM283.5,51.88H270.21v4.17h11.21l-2.09,4.17H231.91l-2.08-4.17h15.38V51.88H227.75l-2.09-4.16h59.92ZM289,26.65c-.31,2.75-1.86,7.89-7.43,16.9H229.71c-5.58-9-7.12-14.15-7.43-16.9-.73-6.52.61-11.9,3.89-15.57a16.77,16.77,0,0,1,12.93-5,19.88,19.88,0,0,1,11.05,3.72,26,26,0,0,0,16.41,5.91,26.75,26.75,0,0,0,8.46-1.4l-1.3-4a21.71,21.71,0,0,1-13.75.14A7.32,7.32,0,0,0,261,9.8a19.9,19.9,0,0,1,11.11-3.75,16.78,16.78,0,0,1,12.93,5C288.35,14.75,289.7,20.13,289,26.65Z" transform="translate(-217.91 -1.86)"/><path class="cls-1" d="M228.92,14.27c-3.08,3.39-3.89,8.49-2.41,15.15l4.07-.9c-1.17-5.26-.7-9.1,1.41-11.43,3-3.36,8.75-2.72,8.8-2.72l.51-4.13c-.32-.05-7.87-.92-12.38,4Z" transform="translate(-217.91 -1.86)"/><path class="cls-1" d="M228.74,34.06l3.72-1.86,2.08,4.16-3.72,1.86Z" transform="translate(-217.91 -1.86)"/><path class="cls-1" d="M276.45,18.55h4.17v4.17h-4.17Z" transform="translate(-217.91 -1.86)"/><path class="cls-1" d="M268.12,24.8h4.17V29h-4.17Z" transform="translate(-217.91 -1.86)"/></svg>