<svg id="Camada_1" data-name="Camada 1" xmlns="http://www.w3.org/2000/svg" viewBox="0 0 59.82 99.2"><defs><style>.cls-1{fill:#2879c9;}</style></defs><title>implantodontia</title><path class="cls-1" d="M75.82,5.51A16.42,16.42,0,0,0,63.13.42a19.05,19.05,0,0,0-10.8,3.63,4.6,4.6,0,0,1-4.62,0A19.05,19.05,0,0,0,36.87.42,16.42,16.42,0,0,0,24.18,5.51c-3.25,3.64-4.6,8.79-3.92,14.93.38,3.29,2.17,7.67,5.33,13h-2a1.65,1.65,0,0,0-1.65,1.65,1.59,1.59,0,0,0,.18.74L28.7,49.1a1.65,1.65,0,0,0,1.48.91H36.9l.22,3.31H33.48A1.65,1.65,0,0,0,33,56.55l4.41,1.32.37,5.37H33.48a1.64,1.64,0,0,0-1.67,1.62A1.66,1.66,0,0,0,33,66.48L38.1,68l.34,5.16h-5a1.64,1.64,0,0,0-1.64,1.65A1.66,1.66,0,0,0,33,76.39l5.77,1.72.32,5H33.48A1.65,1.65,0,0,0,33,86.31l6.43,1.93.67,9.82a1.65,1.65,0,0,0,1.64,1.54H58.22a1.64,1.64,0,0,0,1.65-1.54L60,96.3h6.49a1.67,1.67,0,0,0,1.68-1.63A1.64,1.64,0,0,0,67,93.06l-6.62-2,.31-4.7h5.83a1.67,1.67,0,0,0,1.68-1.63A1.64,1.64,0,0,0,67,83.14l-6-1.79.34-4.89h5.16A1.65,1.65,0,0,0,67,73.22l-5.33-1.59L62,66.55h4.51a1.66,1.66,0,0,0,1.68-1.63A1.64,1.64,0,0,0,67,63.31l-4.67-1.4L63.08,50h6.71a1.66,1.66,0,0,0,1.49-.91l6.61-13.23a1.64,1.64,0,0,0-.75-2.21,1.44,1.44,0,0,0-.74-.17h-2c3.18-5.37,5-9.76,5.33-13,.68-6.14-.67-11.3-3.92-14.93ZM56.71,96.3H43.27l-.47-7,14.1,4.24Zm.41-6.2L42.57,85.74l-.44-6.61,15.42,4.63Zm.65-9.73L41.9,75.61,41.45,69l16.77,5Zm.65-9.72-17.2-5.16-.46-6.6,18.07,5.42Zm.64-9.72L40.54,55.38,40.18,50H59.81Zm13-20.84H61.56V43.4h8.9L68.8,46.71H31.17L29.52,43.4h12.2V40.09H27.87l-1.66-3.3H73.76Zm4.36-20c-.24,2.18-1.47,6.26-5.89,13.41H29.42C25,26.34,23.77,22.25,23.53,20.07,23,14.89,24,10.62,26.61,7.71a13.32,13.32,0,0,1,10.27-4,15.78,15.78,0,0,1,8.76,3,20.7,20.7,0,0,0,13,4.69,21.27,21.27,0,0,0,6.71-1.12l-1-3.17a17.19,17.19,0,0,1-10.91.11,7,7,0,0,0,.82-.51,15.7,15.7,0,0,1,8.81-3,13.31,13.31,0,0,1,10.26,4C76,10.62,77,14.89,76.47,20.07Z" transform="translate(-20.09 -0.4)"/><path class="cls-1" d="M28.8,10.24c-2.45,2.69-3.09,6.74-1.92,12l3.23-.71c-.93-4.17-.55-7.22,1.12-9.07,2.38-2.67,7-2.16,7-2.16L38.62,7c-.25,0-6.24-.73-9.82,3.18Z" transform="translate(-20.09 -0.4)"/><path class="cls-1" d="M28.65,26l3-1.48,1.65,3.3-3,1.48Z" transform="translate(-20.09 -0.4)"/><path class="cls-1" d="M66.52,13.64h3.3V17h-3.3Z" transform="translate(-20.09 -0.4)"/><path class="cls-1" d="M59.9,18.6h3.31v3.33H59.9Z" transform="translate(-20.09 -0.4)"/></svg>