<?xml version="1.0" encoding="utf-8"?>
<!-- Generator: Adobe Illustrator 24.0.1, SVG Export Plug-In . SVG Version: 6.00 Build 0)  -->
<svg version="1.1" id="Instagram" xmlns="http://www.w3.org/2000/svg" xmlns:xlink="http://www.w3.org/1999/xlink" x="0px" y="0px"
	 viewBox="0 0 612 612" style="enable-background:new 0 0 612 612;" xml:space="preserve">
<style type="text/css">
	.st0{fill:#FCFCFC;}
</style>
<title>instaiconwhite</title>
<path class="st0" d="M306,0C137,0,0,137,0,306s137,306,306,306c169,0,306-137,306-306C611.7,137.1,474.9,0.3,306,0z M306,581.9
	C153.6,581.9,30.1,458.4,30.1,306S153.6,30.1,306,30.1c152.4,0,275.9,123.5,275.9,275.9C581.7,458.3,458.3,581.7,306,581.9z"/>
<path class="st0" d="M402,158.2H210c-28.5,0.3-51.5,23.3-51.8,51.8V402c0.3,28.5,23.3,51.5,51.8,51.8H402
	c28.5-0.3,51.5-23.3,51.8-51.8V210C453.2,181.6,430.4,158.8,402,158.2z M350.3,305.1c-0.3,24.4-20.3,44-44.8,43.7
	c-24.4-0.3-44-20.3-43.7-44.8c0.1-11.2,4.5-21.9,12.2-30h63.1C345.4,282.2,350.1,293.4,350.3,305.1z M363.4,199.6h45.2v46.1h-45.2
	V199.6z M402,423.7H210c-11.4-0.1-20.6-9.3-20.7-20.7V274h49c-4.6,9.7-6.9,20.3-6.6,31.1c0,41.1,33.3,74.4,74.4,74.4
	c41.1,0,74.3-33.3,74.4-74.4c-0.2-10.7-2.4-21.2-6.6-31.1h49v128C422.7,413.6,413.6,423.1,402,423.7z"/>
</svg>
