<svg id="Instagram" xmlns="http://www.w3.org/2000/svg" viewBox="0 0 65 65"><defs><style>.cls-1{fill:tan;}</style></defs><title>instaiconcolor</title><path class="cls-1" d="M37.5,5A32.5,32.5,0,1,0,70,37.5,32.56,32.56,0,0,0,37.5,5Zm0,61.8A29.3,29.3,0,1,1,66.8,37.5,29.34,29.34,0,0,1,37.5,66.8Z" transform="translate(-5 -5)"/><path class="cls-1" d="M47.7,21.8H27.3a5.55,5.55,0,0,0-5.5,5.5V47.7a5.55,5.55,0,0,0,5.5,5.5H47.7a5.55,5.55,0,0,0,5.5-5.5V27.3A5.62,5.62,0,0,0,47.7,21.8ZM42.2,37.4a4.7,4.7,0,1,1-8.1-3.3h6.7A4.71,4.71,0,0,1,42.2,37.4Zm1.4-11.2h4.8v4.9H43.6ZM47.7,50H27.3a2.22,2.22,0,0,1-2.2-2.2V34.1h5.2a7.25,7.25,0,0,0-.7,3.3,7.9,7.9,0,0,0,15.8,0,8.84,8.84,0,0,0-.7-3.3h5.2V47.7A2.31,2.31,0,0,1,47.7,50Z" transform="translate(-5 -5)"/></svg>