<svg version="1.1" id="Camada_1" xmlns="http://www.w3.org/2000/svg" x="0" y="0" viewBox="0 0 1100 1100" style="enable-background:new 0 0 1100 1100" xml:space="preserve"><style>.st0{fill:#020101}.st2{fill:#fefefe}.st3{fill:#e6e6e5}</style><path class="st0" d="M105.42 874.98c3.21 1.56 5.33 2.78 6.44 3.55 1.09.77 2.31 1.78 3.55 3.15l1.22 1.22c.61.69.93 1.22.93 1.75 0 1.22-.9 2.07-2.6 2.49-1.75.5-3.45.95-5.06 1.46-1.64.53-2.84.85-3.58.85-1.17-.08-3.58-1.01-7.24-2.81L29.8 851.91c-2.78-1.51-4.16-3.29-4.16-5.28 0-1.96 1.59-3.79 4.83-5.33l68.88-34.73c3.63-1.75 6.07-2.68 7.37-2.68.69 0 1.83.27 3.47.85 1.64.53 3.31 1.04 5.04 1.38 1.75.45 2.6 1.3 2.6 2.6 0 .53-.24 1.09-.77 1.62-.5.45-1.19 1.14-1.99 1.99-.82.88-1.75 1.65-2.7 2.25-1.03.69-3.24 1.96-6.74 3.69l-50.8 25.8c-1.91.93-2.86 1.62-2.86 2.15 0 .85 1.3 1.88 3.9 3.26l49.55 25.5zM133.58 833.23c1.91-7.34 4.88-13.89 8.96-19.59 4.03-5.67 9.28-10.23 15.61-13.6 6.36-3.39 13.92-5.12 22.69-5.12 6.65.11 12.46 1.38 17.31 3.98 4.9 2.6 9.78 6.04 14.61 10.15.16.16.29.37.42.53.13.24.26.32.43.32 1.64 3.29 3.37 6.39 5.09 9.52 1.7 3.21 3.31 6.44 4.75 9.7 1.46 3.29 2.62 6.58 3.53 10 .9 3.42 1.32 6.92 1.32 10.6 0 .37-.03 1.22-.11 2.36-.11 1.22-.13 1.91-.13 2.23-.26.85-.64 2.25-1.14 4.48-.5 2.15-1.06 4.43-1.72 6.89-.64 2.41-1.19 4.77-1.8 7-.56 2.23-.9 3.76-1.03 4.56-1.11 3.76-3.07 7.74-5.81 11.91a65.392 65.392 0 0 1-9.54 11.37c-3.61 3.37-7.58 6.2-11.83 8.43-4.27 2.17-8.46 3.26-12.67 3.26-2.09 0-3.69-.16-4.8-.4-1.12-.29-2.07-.69-2.84-1.06-.74-.42-1.56-.93-2.39-1.38-.85-.42-2.01-1.01-3.55-1.35-.69-.19-2.04-.37-3.98-.61-1.94-.34-3.31-.61-4.14-.93-.74-.21-1.64-.69-2.84-1.38-1.17-.61-2.36-1.22-3.55-1.83-1.19-.69-2.28-1.22-3.34-1.67-1.04-.56-1.62-.85-1.78-1.01-2.76-1.8-5.3-4.56-7.58-8.38a73.035 73.035 0 0 1-5.91-12.14c-1.67-4.32-2.94-8.62-3.82-12.94-.93-4.38-1.35-8.01-1.35-11.08.07-7.79 1.02-15.43 2.93-22.82zm15.38 27.7c.18 1.91.5 3.9.93 5.81.4 1.96.9 3.79 1.56 5.57.58 1.75 1.33 3.05 2.15 3.9l9.78 9.84c1.56.4 2.76.69 3.66.85.9.16 1.86.26 2.81.45.98.16 1.86.24 2.52.24.13.08 1.11.16 2.92.16 1.96.03 3.42.03 4.38.03 2.84 0 5.22-.03 7.26-.03 1.96-.08 4.27-.66 6.79-1.62 5.99-4.83 9.99-10.08 11.98-15.72 1.93-5.65 2.92-12.14 2.97-19.54 0-4.3-.42-8.33-1.3-11.98-.9-3.71-2.15-7.55-3.61-11.64-.69-1.8-1.88-3.34-3.44-4.53-1.62-1.14-3.37-2.2-5.22-3.13-1.88-.93-3.82-1.75-5.86-2.41-2.01-.69-3.74-1.46-5.09-2.31l-13.17-.11c-.13 0-1.06.53-2.76 1.65-1.67.95-2.92 1.8-3.71 2.33-3.37 2.39-6.07 4.98-8.09 7.74-2.04 2.73-3.68 5.7-4.85 8.8a39.29 39.29 0 0 0-2.33 9.92c-.37 3.52-.58 7.21-.58 11.11-.02 1.09.11 2.63.3 4.62zM237.27 889.83c2.12-1.83 4.85-2.68 8.06-2.68 1.94 0 3.84.19 5.7.58 1.94.37 3.92.53 5.99.53.56 0 1.35 0 2.41-.08 1.03-.08 1.59-.19 1.75-.19l.85-.77c0-.58.03-1.49.11-2.73.08-1.3.16-2.6.24-4.06.08-1.48.19-2.86.34-4.16.11-1.38.19-2.3.19-2.84 0-.32.11-.98.34-2.15.19-1.06.4-1.75.53-2.07l-.35-20.44v-3.95l-1.17-24.74-1.64-1.67c-.71 0-1.91 0-3.55-.08-1.7-.08-3.5-.16-5.46-.24-1.94-.08-3.74-.19-5.41-.37-1.7-.16-2.86-.24-3.55-.24-2.79-.24-5.14-1.38-7.03-3.18-1.88-1.91-2.78-4.3-2.78-7.05 0-2.78.85-5.17 2.52-7.24 1.69-1.99 4.03-2.97 6.94-2.97h.61c.42 0 .61.08.61.21 2.25.32 5.01.32 8.27.16 3.29-.18 6.58-.18 9.91-.08 3.37.16 6.5.61 9.38 1.38 2.94.77 5.17 2.23 6.68 4.3.32.26.58.88.85 1.8.27.95.58 1.83.93 2.84.37.98.74 1.75 1.25 2.52.48.69 1.03 1.01 1.56 1.01h.43c4.35-3.45 8.96-6.63 13.92-9.54 4.96-2.92 10.29-4.37 16.01-4.37 3.5 0 6.87.64 10.13 1.85 3.29 1.22 6.12 2.81 8.46 4.93 2.38 2.07 4.29 4.67 5.7 7.66 1.46 2.94 2.2 6.31 2.15 9.91 0 5.17-1.25 9.54-3.69 13.21-2.46 3.58-6.6 5.33-12.43 5.33-2.78 0-5.04-.85-6.68-2.6-1.67-1.72-2.97-3.87-3.98-6.39-.93-2.54-1.59-5.14-1.94-7.87-.34-2.68-.56-5.04-.72-7.03-.13-.66-.53-1.01-1.22-1.01h-1.51c-.69 0-1.32 0-1.96.08-.61.08-1.22.43-1.78.93-.56.45-1.48 1.22-2.73 2.52-1.27 1.22-2.6 2.6-3.95 3.98-1.43 1.38-2.76 2.65-4.03 3.87-1.27 1.3-2.09 2.15-2.52 2.54-.53.61-1.38 1.51-2.41 2.81-1.03 1.3-2.04 2.76-3.02 4.29-1.01 1.54-1.86 3.02-2.55 4.48-.69 1.46-1.06 2.52-1.06 3.21l-.05 23.68c.13.27.29.95.5 2.04.19 1.14.32 1.83.32 2.12 0 .4.03 1.25.21 2.54.08 1.22.21 2.52.29 3.98.03 1.38.11 2.65.18 3.95.08 1.22.08 2.12.08 2.68.56 1.48 1.41 2.44 2.52 2.76 1.09.26 2.44.45 3.95.45 1.54 0 3.1-.19 4.69-.45 1.59-.24 3.18-.4 4.69-.4 3.21 0 6.15.93 8.8 2.65 2.63 1.75 3.95 4.29 3.95 7.66-.03 2.78-.64 4.93-1.91 6.55-1.27 1.59-2.92 2.84-4.93 3.55-2.01.69-4.22 1.27-6.6 1.38-2.36.24-4.61.34-6.68.34-2.39 0-4.72-.19-7-.45-2.31-.24-4.61-.43-7-.43-1.12 0-2.04 0-2.81.11-.8.08-1.88.32-3.24.66l-23.86-.08c-3.37 0-6.36-1.11-9.07-3.34-2.7-2.23-4.03-5.12-4.03-8.62.04-3.18 1.12-5.62 3.3-7.47zM346.31 834.31c1.96-7.16 4.8-13.6 8.67-19.38 3.84-5.81 8.67-10.52 14.5-14.21 5.78-3.66 12.57-5.46 20.39-5.44h2.7c1.27 0 1.94.08 2.12.24.5 0 1.57.16 3.18.53 1.62.32 3.29.69 5.01 1.19 1.75.34 3.37.8 4.91 1.35 1.59.45 2.6.82 3.13.9 2.25 1.99 4.61 4.06 7 6.1 2.41 2.15 4.64 4.35 6.68 6.89a32.94 32.94 0 0 1 4.88 7.93c1.27 2.81 1.88 5.89 1.88 9.07-.05 2.07-.37 4.21-1.03 6.39-.58 2.15-1.54 4.06-2.71 5.75-1.22 1.67-2.68 2.97-4.4 4.06-1.75 1.03-3.76 1.48-6.15 1.48-4.35 0-7.98-1.48-10.9-4.64-2.86-3.05-4.32-6.65-4.32-10.82 0-1.83.32-3.45.85-4.98.56-1.46.85-3.1.85-5.09v-3.29c-.13-.16-.69-.77-1.67-1.7-.96-.96-1.78-1.48-2.47-1.48h-13.84c-.24 0-.98.11-2.15.45-1.22.35-2.15.66-2.84.96-3.76 1.62-6.92 3.69-9.33 6.12-2.44 2.47-4.35 5.17-5.75 8.25-1.4 3.05-2.44 6.39-3 10-.56 3.66-.85 7.4-.9 11.29 0 3.53.37 7.4 1.06 11.59.66 4.27 1.99 7.88 3.92 10.84.37.4 1.09 1.11 2.07 2.15.98 1.03 2.02 2.15 3.13 3.26 1.11 1.14 2.17 2.15 3.23 3.13 1.03 1.01 1.78 1.7 2.17 2.15.4.4 1.09.93 2.12 1.54.93.69 1.56.95 1.86.95l17.97.08c2.2 0 4.19-.58 5.81-1.72 1.7-1.22 3.23-2.68 4.59-4.43 1.32-1.78 2.49-3.68 3.52-5.73 1.09-2.07 2.17-3.98 3.26-5.73 1.14-1.78 2.31-3.18 3.58-4.45 1.25-1.11 2.73-1.72 4.4-1.72 2.52.08 4.32 1.01 5.44 2.92 1.09 1.8 1.64 3.95 1.64 6.31 0 4.91-1.25 9.46-3.71 13.79a41.24 41.24 0 0 1-9.49 11.37c-3.79 3.29-8.09 5.88-12.81 7.82-4.8 1.91-9.44 2.86-14.05 2.86-6.84-.08-13.15-1.64-19.04-4.85-5.81-3.23-10.87-7.4-15.22-12.54-4.24-5.09-7.61-10.82-10.07-17.23-2.39-6.41-3.55-12.88-3.55-19.3.07-6.77 1-13.82 2.88-20.98zM440.83 856.45c3.36-4.67 7.56-8.11 12.62-10.23 5.01-2.15 10.47-3.45 16.38-3.9 5.91-.53 11.43-.93 16.44-1.3 5.01-.48 9.2-1.22 12.51-2.31 3.34-1.06 5.06-3.37 5.06-6.63.03-2.44-.42-4.67-1.22-6.73-.82-2.12-2.39-3.79-4.61-5.01-.82-.45-2.07-1.09-3.74-1.91-1.64-.85-2.57-1.19-2.71-1.19l-19.62-.08c-1.2 0-1.91.5-2.36 1.72-.4 1.14-.8 2.6-1.14 4.35-.4 1.78-.77 3.66-1.17 5.81-.45 2.07-1.14 3.98-2.02 5.73-.9 1.78-2.23 3.18-3.98 4.35-1.78 1.22-4.08 1.75-7.02 1.75-4.46 0-8.14-1.46-10.95-4.4-2.86-2.92-4.27-6.57-4.24-10.92 0-2.52.4-4.75 1.25-6.66.88-1.99 1.99-3.71 3.37-5.41 1.43-1.67 3.05-3.29 4.85-4.75 1.8-1.46 3.61-2.76 5.46-4.06 1.51-1.03 3.13-2.25 4.8-3.63 1.69-1.3 3.63-1.91 5.86-1.91l32 .53c1.8 0 3.92.77 6.36 2.28 2.39 1.54 4.77 3.34 7.05 5.41 2.3 2.15 4.32 4.37 6.07 6.73 1.72 2.39 2.78 4.35 3.18 6.02.16.4.37 1.14.66 2.31.24 1.06.56 2.25.8 3.45.29 1.11.5 2.25.74 3.34.18.98.32 1.75.32 2.12l-.05 6.52c0 1.65.05 3.55.08 5.7.08 2.15-.24 4.03-.96 5.7l-.13 35.18c0 3.84 1.67 5.8 5.01 5.8 2.2 0 3.61-.93 4.19-2.89.55-1.99 1.04-4.14 1.48-6.58.45-2.41 1.09-4.64 1.99-6.55.93-1.99 2.86-2.99 5.78-2.99 1.51.08 2.84.48 3.98 1.3 1.09.85 2.01 1.94 2.7 3.15.66 1.3 1.17 2.68 1.43 4.08.26 1.46.43 2.91.43 4.29-.03 3.02-.51 6.1-1.54 9.15-.95 3.15-2.33 5.86-4.08 8.25-1.72 2.44-3.92 4.43-6.47 5.96-2.6 1.54-5.59 2.31-8.94 2.31-2.65 0-4.91-.34-6.84-1.01-1.96-.61-4.14-1.67-6.52-3.29-.82-.37-1.54-1.06-2.15-1.99-.61-.93-1.25-1.75-1.91-2.68a14.52 14.52 0 0 0-2.07-2.41c-.77-.69-1.64-1.11-2.63-1.11h-1.06c-1.94 1.03-3.92 2.15-5.94 3.52-2.01 1.46-4.08 2.76-6.21 4.13-2.09 1.3-4.24 2.36-6.47 3.29-2.25.88-4.53 1.38-6.92 1.38l-18.77-.08c-1.54 0-2.86-.42-3.98-1.14-1.11-.85-2.23-1.54-3.34-2.23-5.73-3.37-9.83-7.58-12.41-12.51-2.57-4.98-3.84-10.68-3.79-17.23.09-8.6 1.74-15.25 5.11-19.89zm11.85 23.7c.4 1.54.98 3.05 1.75 4.5.77 1.46 1.7 2.68 2.84 3.69 1.09.95 2.33 1.41 3.71 1.41l21.32.08c.19 0 .61-.11 1.38-.61.77-.34 1.43-.77 1.99-.95.29-.35.98-.77 1.99-1.3 1.06-.53 1.7-.93 1.99-1.01 5.17-3.53 8.7-7.11 10.47-10.87 1.86-3.71 2.76-8.61 2.78-14.61v-2.54c-.16 0-.4-.08-.85-.27-.4-.26-.69-.34-.79-.34-.13-.16-.29-.18-.45-.18l-.4.18c-.4 0-1.59.16-3.45.53-1.86.32-3.84.61-5.94 1.01-2.12.29-4.09.69-5.97.98-1.88.4-3.02.56-3.47.56-3.37.53-6.71.9-10.15 1.22-3.37.29-6.84.69-10.31 1.22-1.83.16-3.45 1.22-4.82 3.37-.74.93-1.59 2.41-2.63 4.56-1.06 2.07-1.59 3.9-1.59 5.43-.01 1.03.15 2.4.6 3.94zM555.14 835.08c1.91-7.21 4.77-13.68 8.67-19.38 3.84-5.8 8.67-10.52 14.45-14.21 5.78-3.66 12.59-5.51 20.44-5.51h2.68c1.3 0 1.88.08 2.07.24.58 0 1.7.24 3.26.53 1.62.4 3.29.77 4.98 1.22 1.75.4 3.37.85 4.85 1.38 1.62.48 2.6.77 3.21.93 2.23 1.99 4.61 3.97 7.02 6.1 2.36 2.07 4.59 4.35 6.57 6.81a30.31 30.31 0 0 1 4.88 7.93c1.3 2.89 1.91 5.97 1.91 9.15-.08 2.07-.4 4.21-1.01 6.31-.61 2.23-1.51 4.06-2.76 5.75-1.22 1.67-2.6 3.05-4.4 4.14-1.67.95-3.74 1.49-6.13 1.49-4.32 0-7.93-1.57-10.79-4.64-2.92-3.05-4.45-6.73-4.45-10.89 0-1.78.32-3.45.93-4.91.53-1.46.85-3.1.85-5.09v-3.37l-1.7-1.7c-.98-.95-1.75-1.46-2.52-1.46l-13.71-.03c-.34 0-1.11.18-2.23.53-1.14.34-2.15.66-2.84.87-3.76 1.7-6.89 3.76-9.36 6.2-2.44 2.39-4.32 5.09-5.75 8.25-1.41 3.05-2.41 6.31-3 10-.56 3.55-.79 7.4-.84 11.29 0 3.47.32 7.32.98 11.58.69 4.27 2.01 7.88 3.95 10.76.45.43 1.14 1.11 2.07 2.23 1.01 1.03 2.04 2.15 3.13 3.26 1.14 1.06 2.17 2.15 3.29 3.13 1.01 1.01 1.72 1.7 2.15 2.07.42.42 1.11 1.01 2.09 1.62.98.61 1.62.88 1.91.88l17.92.08c2.23 0 4.22-.5 5.86-1.72 1.7-1.14 3.24-2.6 4.53-4.38 1.3-1.75 2.52-3.66 3.58-5.7a75.5 75.5 0 0 1 3.18-5.73c1.2-1.78 2.39-3.23 3.61-4.45 1.3-1.11 2.76-1.72 4.4-1.72 2.57 0 4.37.96 5.44 2.84 1.09 1.88 1.7 4.03 1.7 6.39 0 4.9-1.3 9.46-3.76 13.79-2.41 4.29-5.54 8.11-9.41 11.3-3.87 3.29-8.19 5.88-12.91 7.85-4.75 1.96-9.41 2.83-14.05 2.83-6.81 0-13.12-1.56-18.96-4.85-5.86-3.24-10.92-7.32-15.22-12.46-4.3-5.09-7.63-10.9-10.07-17.31-2.41-6.42-3.61-12.8-3.61-19.22.06-6.84.99-13.84 2.92-21zM647.54 835.08c1.91-7.42 4.88-13.89 8.91-19.65 4.06-5.7 9.23-10.18 15.67-13.63 6.31-3.37 13.89-5.06 22.75-5.06 6.63 0 12.35 1.38 17.23 3.98 4.85 2.57 9.76 5.94 14.66 10.15.11.16.29.32.45.53.08.24.24.32.32.32 1.64 3.21 3.37 6.39 5.17 9.52 1.67 3.15 3.29 6.34 4.75 9.62 1.41 3.29 2.6 6.63 3.47 10.07.93 3.45 1.38 6.92 1.38 10.53 0 .45-.08 1.22-.13 2.44-.08 1.17-.16 1.93-.16 2.23-.32.85-.61 2.31-1.17 4.4-.53 2.23-.98 4.53-1.67 6.97-.66 2.41-1.27 4.72-1.72 6.95-.61 2.28-1.01 3.82-1.09 4.66-1.22 3.71-3.05 7.69-5.81 11.88-2.73 4.11-5.94 7.95-9.62 11.3-3.63 3.45-7.53 6.23-11.83 8.46-4.19 2.23-8.46 3.29-12.57 3.29-2.15 0-3.74-.16-4.9-.45-1.06-.24-1.99-.61-2.7-1.01-.77-.45-1.65-.9-2.49-1.38-.8-.53-1.96-.96-3.47-1.38-.77-.11-2.07-.34-4-.69-1.99-.19-3.31-.53-4.24-.8-.61-.32-1.62-.77-2.76-1.38-1.22-.61-2.44-1.22-3.53-1.91-1.22-.64-2.33-1.17-3.37-1.7-1.04-.45-1.64-.77-1.8-.93-2.76-1.83-5.36-4.67-7.61-8.38a89.23 89.23 0 0 1-5.92-12.14c-1.59-4.32-2.86-8.7-3.82-12.96-.85-4.35-1.27-8.01-1.27-11.08 0-7.84 1-15.37 2.89-22.77zm15.43 27.6c.13 1.99.45 3.95.9 5.86.4 1.99.93 3.84 1.54 5.59s1.38 2.99 2.15 3.87l9.73 9.84c1.54.42 2.76.69 3.69.85.9.19 1.83.35 2.89.42.93.11 1.78.18 2.41.18.16.16 1.19.24 2.92.24h4.43c2.73.11 5.22 0 7.18-.08 2.07 0 4.35-.5 6.84-1.54 5.96-4.85 9.91-10.08 11.9-15.69 1.99-5.67 3.08-12.14 3.08-19.54 0-4.35-.45-8.3-1.38-12.06-.85-3.63-2.07-7.53-3.61-11.58-.69-1.8-1.8-3.26-3.39-4.48-1.54-1.25-3.37-2.23-5.23-3.16-1.8-.9-3.79-1.75-5.78-2.44-2.07-.69-3.82-1.46-5.17-2.31l-13.12-.08c-.16 0-1.09.58-2.76 1.54-1.7 1.09-2.92 1.91-3.84 2.44-3.37 2.38-5.94 4.88-8.06 7.71-1.96 2.76-3.61 5.72-4.72 8.88-1.22 3.1-1.99 6.39-2.46 9.91-.29 3.47-.45 7.16-.45 11.03-.01 1.15-.01 2.69.31 4.6zM797.25 799.21c3.02.61 5.86 1.75 8.54 3.42a26.18 26.18 0 0 1 3.53 2.97c.79.95 2.17 1.38 4.16 1.38.08 0 .53 0 1.3-.16l1.7-5.01v-19.46c0-1.75-1.22-2.84-3.79-3.13-2.65-.32-5.44-.61-8.51-1.01-3.1-.29-5.86-1.22-8.46-2.6-2.6-1.46-3.79-4.11-3.79-8.17 0-1.99.58-3.47 1.8-4.75 1.3-1.11 2.92-1.72 4.91-1.72l25.24.08c1.14 0 2.2.37 3.37 1.04 1.14.69 2.07 1.64 2.97 2.68.93 1.01 1.7 2.15 2.23 3.45.5 1.22.85 2.44.85 3.53l-.26 64.64 1.62 3.95-.16 47.43 2.15 1.7c1.35 0 3.31-.16 5.97-.32 2.57-.19 5.09-.11 7.61.24 2.41.37 4.72 1.06 6.55 2.23 1.85 1.14 2.83 2.97 2.76 5.43 0 2.78-.61 5.01-1.99 6.68-1.3 1.7-3.05 2.92-5.09 3.76-2.07.85-4.38 1.38-6.82 1.54-2.41.18-4.72.26-6.79.26-4.75 0-8.8-.5-12.28-1.54-3.36-.96-6.55-3.26-9.62-6.84-.16 0-.37-.08-.61-.16-.29-.08-.53-.08-.61-.08-.77 0-1.22.08-1.62.32-.37.13-.69.45-.82.69-.24.29-.56.69-.93 1.06-.42.37-1.19.93-2.15 1.46-3.18 1.83-6.1 3.37-8.7 4.59-2.57 1.19-5.62 1.8-9.07 1.8-5.17 0-10-.88-14.55-2.76a47.8 47.8 0 0 1-12.22-7.24c-3.74-3.02-7-6.55-9.84-10.61-2.84-4.03-5.09-8.38-6.81-12.94 0-.16-.16-.61-.35-1.38-.24-.77-.53-1.62-.93-2.54-.37-.9-.61-1.83-.85-2.68-.13-.9-.29-1.51-.29-1.83l.08-25.24c.08-.98.37-2.28 1.06-3.9.69-1.62 1.11-2.76 1.46-3.45.16-.42.43-1.35.96-2.81.58-1.43 1.01-3.13 1.46-4.88.56-1.8 1.01-3.5 1.54-5.04.45-1.51.77-2.52.93-2.89.13-.16.45-.61.9-1.46l17.13-17.31c.88-.85 1.96-1.46 3.34-1.91 1.22-.4 2.71-.69 4.27-.93 1.54-.16 2.97-.29 4.4-.37 1.54-.08 2.92-.08 4.14-.08 2.88.02 5.9.31 8.98.87zm-31.21 66.65c.98 4.59 2.52 8.72 4.67 12.49 2.09 3.79 5.01 6.84 8.54 9.23 3.53 2.33 7.77 3.55 12.83 3.55 4 0 7.61-1.22 10.52-3.79 3.02-2.6 5.54-5.65 7.58-9.41 1.99-3.63 3.53-7.61 4.59-11.88.93-4.21 1.46-8.03 1.46-11.37 0-4.06-.53-8.3-1.54-12.75-.98-4.51-2.68-8.62-4.85-12.35-2.23-3.71-5.07-6.95-8.54-9.47-3.45-2.52-7.58-3.71-12.3-3.71-4.58-.11-8.45 1.19-11.58 3.63-3.23 2.55-5.67 5.59-7.64 9.23a42.863 42.863 0 0 0-3.98 11.85c-.77 4.35-1.22 8.22-1.22 11.75.01 4.2.46 8.52 1.46 13zM873.71 845.08c.77-5.22 1.96-10.08 3.79-14.74 1.83-4.64 4.29-9.01 7.32-12.91 2.99-3.95 6.81-7.24 11.45-9.68.37-.32 1.14-.69 2.28-1.27 1.09-.53 2.31-1.19 3.53-1.8 1.3-.61 2.41-1.11 3.5-1.56 1.06-.53 1.75-.85 2.15-1.01 1.51-.69 3.13-.98 4.75-.9 1.59.08 3.21.13 4.69.13 8.86 0 16.44 2.15 22.54 6.42 6.15 4.27 11.82 9.76 17.07 16.49.53.85 1.3 2.41 2.23 4.72.9 2.28 1.67 4.83 2.44 7.58.77 2.65 1.38 5.3 1.99 7.93.53 2.6.77 4.48.77 5.7 0 .32 0 .93-.08 1.75-.08.93-.08 1.54-.08 1.86-1.3 2.07-3 3.39-5.04 4.08-2.12.69-4.27 1.3-6.5 1.7-1.59 0-4.35-.08-8.3-.16-3.98-.08-8.11-.16-12.59-.16-4.37 0-8.51 0-12.46.08-3.98.08-6.68.08-8.22.08-1.54 0-3.37 0-5.59.08-2.17.08-4.24.16-6.31.24-2.15 0-4.72.21-7.79.45l-.82.61c0 .16-.08.69-.08 1.54-.16.82-.16 1.38-.16 1.67 0 4.03.77 7.93 2.15 11.53 1.54 3.63 3.52 6.87 6.09 9.6 2.52 2.73 5.46 4.96 8.99 6.58 3.52 1.59 7.32 2.44 11.53 2.44.37 0 1.3 0 2.84-.08 1.4-.08 2.44-.08 2.78-.08 1.91-1.54 4.21-2.6 6.65-3.29 2.57-.61 4.72-1.64 6.55-3.18 1.38-1.22 2.68-2.76 3.84-4.59 1.22-1.78 2.44-3.53 3.82-5.17 1.35-1.7 2.73-3.08 4.27-4.22 1.51-1.06 3.42-1.62 5.65-1.62 2.12 0 3.79.61 5.17 1.91 1.3 1.25 1.99 2.84 1.99 4.8-.08 3.21-.77 6.04-2.12 8.62-1.46 2.6-3 5.14-4.64 7.66-4.22 6.02-9.73 10.37-16.6 12.94-6.84 2.6-13.89 3.9-21.13 3.84-7.08 0-13.52-1.43-19.14-4.27-5.78-2.76-10.53-6.57-14.4-11.29-3.92-4.75-6.89-10.23-8.96-16.49-2.15-6.18-3.1-12.65-3.02-19.54-.01-4.92.36-9.85 1.21-15.02zm18.45-2.84c0 .37.32.61.85.61l48.28.16c.24 0 .61-.16 1.09-.53.53-.32.9-.64 1.22-.93.16-.32.16-.77.16-1.46v-1.46c.03-3.37-.77-6.15-2.47-8.46-1.67-2.33-3.74-4.13-6.23-5.51-2.46-1.27-5.22-2.25-8.27-2.94-3-.61-5.78-.93-8.38-.93-2.99-.08-5.94.32-9.01 1.09-3.13.74-5.94 1.99-8.38 3.66-2.6 1.7-4.67 3.71-6.36 6.34-1.64 2.6-2.49 5.54-2.49 9.07-.01.28-.01.68-.01 1.29zM1070.21 855.15l-69.41 34.68c-3.6 1.86-5.94 2.76-7.31 2.68-.77 0-1.91-.21-3.53-.77-1.64-.61-3.34-1.06-5.01-1.51-1.78-.48-2.62-1.27-2.62-2.49 0-.58.32-1.19.93-1.78l1.22-1.22c1.27-1.3 2.47-2.36 3.42-2.97 1.03-.69 3.13-1.93 6.65-3.68l49.73-25.16c2.6-1.3 3.84-2.39 3.84-3.21 0-.56-.32-.93-1.09-1.27-.85-.42-1.38-.69-1.67-.95l-50.66-26.09c-3.37-1.75-5.67-2.97-6.65-3.66-1.01-.69-1.88-1.46-2.73-2.31-.85-.88-1.46-1.56-1.99-2.04-.53-.53-.77-1.06-.77-1.59 0-1.3.85-2.15 2.68-2.54 1.7-.45 3.34-.9 4.96-1.43 1.59-.56 2.81-.77 3.5-.77 1.3 0 3.77.9 7.32 2.76l68.66 34.65c3.13 1.75 4.67 3.55 4.67 5.54 0 1.98-1.38 3.75-4.14 5.13z"/><g><path style="fill:#e6e6e4" d="m638.66 447.77 93.74-62.78 70.42 58.96-3.82 76.78-83.99-36.9z"/><path class="st3" d="m803.03 554.49 5.34-41.51-211.94-71.74 5.93 84.69s40.17-16.85 82.41 4.97c36.04 18.62 96.48 24 113.46 25.18 0 0 9.56-.31 4.8-1.59zM381.25 568.24s160.08-98.2 146.42-55.35c22.71-34.73 21.24-78.45 21.24-78.45l-205 63.11c-.01 0 23.24 63 37.34 70.69z"/><path d="M381.36 560.47c-1.9-2.03-18.5-15.56-9.32-30.15 21.66-41.65 112.92-64.85 136.91-55.85 24.02 9.08 18.11 34.27 18.11 34.27s-4.35 16.91-24.82 33.41c-20.44 16.6 20.07 19.3 42.5 14.21s107.4-60.98 122.7-70.44c13.95-8.54 35.58-1.59 39.48-.21 0 0 .65.03 2.08 1.48 8.57 5.62 38.17 34.91 68.25 58.95 34.09 27.24 54.27-8.32 54.27-8.32s8.22-8.22 5.86-73.16c-2.33-64.85-51.89-97.9-89.72-125.05-37.67-27.16-110.85-50.76-135.66-63.72-24.76-12.98-100.3-90.86-100.3-90.86-16.54-7.1-11.85 14.7-10.02 20.65 25.37 100.88-6.52 104.7-12.99 106.22-133.94 48.9-174.45 174.03-174.45 174.03-24.81 66.84-12.72 164.61-12.72 170.39s-5.49 5.52-5.81 5.67c-72.54 10.45-62.22 70.26-62.52 80.92 11.48-20.04 57.53-27.73 67.82-31.6 10.34-3.77 18.9-17.66 18.9-17.66s3.85 4.4 15.35 12.94c11.48 8.59 46.29 5.67 46.29 5.67s12.14 6.15 20.07 12.67c2.36-26.57-26.28-64.64-46.29-62.89-20.07 1.75-15.06-8.27-14.74-30.65.23-21.96 34.87-60.95 39.81-62.77 8.83-3.21 1.07-8.02 1.07-8.02a.948.948 0 0 0-.11-.13m391.45-68.13c-8.35 1.07-22.35-1.92-45.13-17.86-45.95-32.19-31.21-47.06-25.51-51.12 0 0 28.26-27.15 64.11 13.8 20.88 23.86 23.42 36.48 21.91 42.85 0 0-1.25 4.7-4.5 6.89s-5.85 4.58-10.88 5.44z" style="fill:#060405"/></g></svg>