<?xml version="1.0" encoding="utf-8"?>
<!-- Generator: Adobe Illustrator 24.0.1, SVG Export Plug-In . SVG Version: 6.00 Build 0)  -->
<svg version="1.1" id="Camada_1" xmlns="http://www.w3.org/2000/svg" xmlns:xlink="http://www.w3.org/1999/xlink" x="0px" y="0px"
	 viewBox="0 0 1080 620" style="enable-background:new 0 0 1080 620;" xml:space="preserve">
<style type="text/css">
	.st0{display:none;fill:#949594;}
	.st1{display:none;}
	.st2{display:inline;fill:#949594;}
	.st3{display:inline;fill:#E23931;}
	.st4{display:none;fill:#E23931;}
	.st5{display:none;fill:#009E9A;}
	.st6{opacity:0.15;fill:#FCFCFC;enable-background:new    ;}
	.st7{fill:#FCFCFC;enable-background:new    ;}
	.st8{fill:#FCFCFC;}
</style>
<rect x="759.3" y="485.9" class="st0" width="4.9" height="3"/>
<rect x="738.9" y="497.9" class="st0" width="22.6" height="12.6"/>
<path class="st0" d="M739.9,510.8c-4.5-0.7-18.3,0-18.3,0c-0.4,0.1-0.9,0.3-1.3,0.5v19.4h47v-3.2C760.5,517.1,747.9,512,739.9,510.8
	z"/>
<g class="st1">
	<path class="st2" d="M830.5,461.6c-4.8-7-11.6-12.1-20.4-15.1c6.4-3,11.3-7.5,14.6-13.5c3.3-6,5-12.6,5-20c0-9.6-2.8-18-8.3-25.1
		c-5.6-7.1-12-11.6-19.3-13.3c-7.3-1.8-18.2-2.6-32.8-2.6h-53v19.9h19.6v97.7c8.4,1.2,16.4,4.3,24,9.3v-41.1h13.7
		c9.5,0,16.9,0.7,22.1,2.1c5.2,1.4,9.5,4.2,12.8,8.5c3.3,4.2,5,9.5,5,15.7c0,6.9-1.7,12.5-5.2,16.9c-3.5,4.4-8,7.2-13.4,8.4
		c-3,0.7-7.1,1.1-12.1,1.4v20c6.4-0.3,11.8-0.8,16.2-1.6c7-1.2,13.4-3.6,19.3-7.1c5.9-3.5,10.6-8.5,14.1-14.9
		c3.5-6.4,5.3-13.5,5.3-21.4C837.7,476.7,835.3,468.6,830.5,461.6z M798.8,432c-4.5,4-12.5,6-24,6h-15v-46.3h15
		c20.5,0,30.8,7.5,30.8,22.6C805.7,422.2,803.4,428,798.8,432z"/>
</g>
<path class="st0" d="M699.6,620.8v-48.5h16.7v11.8c8,14.5,18.5,21.8,31.4,21.8c6.6,0,12.2-2,16.7-6c4.5-4,6.8-9.3,6.8-15.8
	c0-6.3-1.9-10.9-5.6-13.7c-3.7-2.8-10.7-5.5-21-8.3c-12-3.2-20.8-6.2-26.6-9.1c-5.8-2.8-10.3-6.9-13.8-12.2
	c-3.4-5.3-5.1-11.5-5.1-18.8c0-11.2,3.7-20.1,11.2-26.8c7.5-6.7,16.8-10,28.1-10c10.7,0,20.6,3.5,29.8,10.4v-8.9h16.3v40.5h-16.3
	v-9.3c-6.8-10.3-16.3-15.4-28.3-15.4c-7.3,0-12.9,1.7-16.8,5c-3.9,3.4-5.8,7.4-5.8,12c0,3.6,1,6.7,3,9.5c2,2.7,4.5,4.7,7.6,6
	s9.1,3.1,18.1,5.4c11.8,3.1,20.3,5.9,25.6,8.6c5.3,2.7,9.9,7.1,13.7,13.3c3.8,6.2,5.8,13.3,5.8,21.4c0,11.4-4,20.8-12,28.2
	c-8,7.4-18,11.1-29.8,11.1c-12.2,0-23.1-4.4-32.8-13.1v11H699.6z"/>
<g class="st1">
	<path class="st3" d="M838.8,454.1c-4.8-7-11.6-12.1-20.4-15.1c6.4-3,11.3-7.5,14.6-13.5c3.3-6,5-12.6,5-20c0-9.6-2.8-18-8.3-25.1
		c-5.6-7.1-12-11.6-19.3-13.3c-7.3-1.8-18.2-2.6-32.8-2.6h-53v19.9h19.6v97.7c8.4,1.2,16.4,4.3,24,9.3v-41.1h13.7
		c9.5,0,16.9,0.7,22.1,2.1c5.2,1.4,9.5,4.2,12.8,8.5c3.3,4.2,5,9.5,5,15.7c0,6.9-1.7,12.5-5.2,16.9c-3.5,4.4-8,7.2-13.4,8.4
		c-3,0.7-7.1,1.1-12.1,1.4v20c6.4-0.3,11.8-0.8,16.2-1.6c7-1.2,13.4-3.6,19.3-7.1c5.9-3.5,10.6-8.5,14.1-14.9
		c3.5-6.4,5.3-13.5,5.3-21.4C846,469.2,843.6,461.1,838.8,454.1z M807.2,424.5c-4.5,4-12.5,6-24,6h-15v-46.3h15
		c20.5,0,30.8,7.5,30.8,22.6C814,414.6,811.7,420.5,807.2,424.5z"/>
</g>
<path class="st4" d="M744.2,503.3c-4.5-0.7-18.3,0-18.3,0c-0.4,0.1-0.9,0.3-1.3,0.5v19.4h47V520
	C764.7,509.6,752.1,504.5,744.2,503.3z"/>
<path class="st5" d="M707.6,620.8v-48.5h16.7v11.8c8,14.5,18.5,21.8,31.4,21.8c6.6,0,12.2-2,16.7-6c4.5-4,6.8-9.3,6.8-15.8
	c0-6.3-1.9-10.9-5.6-13.7c-3.7-2.8-10.7-5.5-21-8.3c-12-3.2-20.8-6.2-26.6-9.1c-5.8-2.8-10.3-6.9-13.8-12.2
	c-3.4-5.3-5.1-11.5-5.1-18.8c0-11.2,3.7-20.1,11.2-26.8c7.5-6.7,16.8-10,28.1-10c10.7,0,20.6,3.5,29.8,10.4v-8.9h16.3v40.5h-16.3
	v-9.3c-6.8-10.3-16.3-15.4-28.3-15.4c-7.3,0-12.9,1.7-16.8,5c-3.9,3.4-5.8,7.4-5.8,12c0,3.6,1,6.7,3,9.5c2,2.7,4.5,4.7,7.6,6
	s9.1,3.1,18.1,5.4c11.8,3.1,20.3,5.9,25.6,8.6c5.3,2.7,9.9,7.1,13.7,13.3c3.8,6.2,5.8,13.3,5.8,21.4c0,11.4-4,20.8-12,28.2
	c-8,7.4-18,11.1-29.8,11.1c-12.2,0-23.1-4.4-32.8-13.1v11H707.6z"/>
<path class="st6" d="M252.1,209.7c9.6-4.6,16.9-11.4,21.9-20.3c5-8.9,7.5-19,7.5-30.1c0-14.4-4.2-27-12.5-37.7s-18-17.4-28.9-20
	s-27.4-3.9-49.2-3.9h-79.6v29.9h29.4v179.2h-29.4v29.9h81.3c18.1,0,32.4-0.9,42.9-2.8c10.5-1.8,20.1-5.4,29-10.6
	c8.8-5.3,15.9-12.7,21.2-22.3c5.3-9.6,8-20.3,8-32.1c0-13.6-3.6-25.8-10.7-36.4C275.6,221.8,265.4,214.2,252.1,209.7z M176.6,127.5
	h22.5c30.8,0,46.2,11.3,46.2,34c0,11.7-3.4,20.5-10.2,26.5c-6.8,6-18.8,9-36,9h-22.5L176.6,127.5L176.6,127.5z M249.4,291.5
	c-5.2,6.6-11.9,10.8-20.2,12.5c-8.3,1.8-21.3,2.7-39,2.7h-13.6v-80.1h20.6c14.3,0,25.4,1.1,33.3,3.2s14.3,6.4,19.3,12.7
	c5,6.4,7.5,14.2,7.5,23.6C257.2,276.5,254.6,285,249.4,291.5z"/>
<path class="st7" d="M252.1,209.7c9.6-4.6,16.9-11.4,21.9-20.3c5-8.9,7.5-19,7.5-30.1c0-14.4-4.2-27-12.5-37.7s-18-17.4-28.9-20
	s-27.4-3.9-49.2-3.9h-79.6v29.9h29.4v179.2h-29.4v29.9h81.3c18.1,0,32.4-0.9,42.9-2.8c10.5-1.8,20.1-5.4,29-10.6
	c8.8-5.3,15.9-12.7,21.2-22.3c5.3-9.6,8-20.3,8-32.1c0-13.6-3.6-25.8-10.7-36.4C275.6,221.8,265.4,214.2,252.1,209.7z M176.6,127.5
	h22.5c30.8,0,46.2,11.3,46.2,34c0,11.7-3.4,20.5-10.2,26.5c-6.8,6-18.8,9-36,9h-22.5L176.6,127.5L176.6,127.5z M249.4,291.5
	c-5.2,6.6-11.9,10.8-20.2,12.5c-8.3,1.8-21.3,2.7-39,2.7h-13.6v-80.1h20.6c14.3,0,25.4,1.1,33.3,3.2s14.3,6.4,19.3,12.7
	c5,6.4,7.5,14.2,7.5,23.6C257.2,276.5,254.6,285,249.4,291.5z"/>
<path class="st8" d="M432.2,219.2c-14.5-12.9-30.7-19.3-48.6-19.3c-18.2,0-34.4,6.6-48.5,19.8c-14.1,13.2-21.1,30-21.1,50.5
	c0,21.5,7.2,38.6,21.6,51.3s31.8,19,52.2,19c13.1,0,25.6-2.8,37.7-8.5c12-5.6,21.8-14.3,29.3-25.9l-23.1-10.2
	c-10.6,14.7-25.1,22-43.3,22c-12.6,0-22.9-3.8-30.9-11.4c-8.1-7.6-12.9-17.5-14.6-29.8h111.9C454.2,251.2,446.7,232.1,432.2,219.2z
	 M343.8,257.7c1.6-10.8,6.2-19.6,13.6-26.5c7.4-6.8,16.4-10.2,26.8-10.2c11.5,0,21.1,3.8,29,11.3s12.7,16,14.6,25.4H343.8z"/>
<path class="st8" d="M584.7,251.8c0-10.8-0.6-18.7-1.9-23.6c-1.2-4.9-3.6-9.6-7.2-13.8c-3.6-4.3-9-7.7-16.3-10.4
	c-7.3-2.7-15.9-4.1-25.9-4.1c-27.2,0-46.4,10.4-57.5,31.1l25,6.6c5.9-10.4,15.3-15.7,28.5-15.7c7.6,0,13.8,1.5,18.5,4.4
	s7.7,6.2,9,9.9c1.3,3.7,1.9,8.9,1.9,15.7V265c-11.6-7.5-23.7-11.3-36.2-11.3c-13.4,0-24.8,4.1-34.3,12.2s-14.2,18.4-14.2,30.8
	c0,12.3,4.5,22.4,13.4,30.2c8.9,7.9,19.5,11.8,31.5,11.8c15.6,0,29.7-6.1,42.3-18.4v16.2h45.6v-23.2h-22.4L584.7,251.8L584.7,251.8z
	 M558.8,302.7c-11.3,10.6-23.2,16-35.9,16c-7.3,0-13.1-2.1-17.4-6.3c-4.3-4.2-6.4-9.4-6.4-15.7c0-6.7,2.4-12.1,7.3-16.4
	c4.9-4.2,10.9-6.3,18.1-6.3c11.5,0,23,4.4,34.2,13.2L558.8,302.7L558.8,302.7z"/>
<path class="st6" d="M59.2,516.3v-86.8h29.9v21.1c14.3,26,33,39,56.2,39c11.8,0,21.8-3.6,29.9-10.8c8.1-7.2,12.2-16.7,12.2-28.4
	c0-11.3-3.3-19.5-10-24.5s-19.2-9.9-37.6-14.9c-21.4-5.7-37.3-11.1-47.6-16.2c-10.3-5.1-18.5-12.4-24.7-21.8
	c-6.1-9.5-9.2-20.6-9.2-33.6c0-20,6.7-36,20-48c13.3-12,30.1-18,50.3-18c19.1,0,36.9,6.2,53.3,18.5v-16H211v72.5h-29.2v-16.7
	c-12.3-18.4-29.2-27.7-50.7-27.7c-13.1,0-23.1,3-30.1,9c-7,6-10.5,13.2-10.5,21.6c0,6.4,1.8,12.1,5.3,16.9
	c3.6,4.9,8.1,8.5,13.6,10.7c5.5,2.3,16.3,5.5,32.5,9.6c21.1,5.5,36.4,10.6,45.9,15.4c9.5,4.8,17.7,12.7,24.6,23.8
	c6.9,11.1,10.3,23.9,10.3,38.3c0,20.4-7.2,37.3-21.6,50.5C186.8,513.4,169,520,147.8,520c-21.8,0-41.3-7.8-58.8-23.5v19.8
	L59.2,516.3L59.2,516.3z"/>
<path class="st8" d="M572.6,494v-86.6h-26.8v-23.2h47.7v30c2.9-7.8,7-14.3,12.2-19.4c5.2-5.1,10.8-8.5,16.6-10.2
	c5.8-1.6,13.8-2.5,23.8-2.5h6.9v26.4h-5.2c-13.3,0-23.2,1.3-29.8,4s-11.4,7.5-14.6,14.5c-3.2,7-4.8,19.6-4.8,37.7V494h29v23.2h-81.9
	V494L572.6,494L572.6,494z"/>
<path class="st8" d="M734.1,313.4V203.6h-49.6v23.2H708v72c-13.8,11.5-26.7,17.3-38.8,17.3c-4,0-7.4-1.1-10-3.3
	c-2.7-2.2-4.3-5-4.8-8.4c-0.5-3.4-0.8-10-0.8-19.8v-81.1h-45v23.2h18.8V288c0,13.8,1,23.7,2.9,29.9c1.9,6.2,5.8,11.2,11.6,15.1
	c5.8,3.9,13.2,5.8,22.1,5.8c6.9,0,14-1.4,21.2-4.3c0.6-2.8,2-5.4,4.1-7.6c3-3.1,6.8-4.7,11.3-4.7c1.8,0,3.4,0.3,4.9,0.8
	c0.8-0.6,1.6-1.1,2.4-1.7v2.8c1.3,0.7,2.6,1.6,3.8,2.7c2.8,2.7,4.3,6,4.5,9.8h40.7v-23.2L734.1,313.4L734.1,313.4z"/>
<path class="st8" d="M711.8,326.8c-3.1-3-6.8-4.5-11.1-4.5c-4.6,0-8.4,1.6-11.3,4.7c-3,3.1-4.5,6.8-4.5,11c0,4.3,1.5,8,4.6,11.1
	c3.1,3.1,6.8,4.7,11.2,4.7c4.3,0,8-1.5,11.1-4.6c3.1-3.1,4.7-6.8,4.7-11.2C716.5,333.6,714.9,329.9,711.8,326.8z"/>
<path class="st8" d="M787.5,495.8v-86.6h-26.8V386h47.7v30c2.9-7.8,7-14.3,12.2-19.4s10.7-8.5,16.6-10.2c5.8-1.6,13.8-2.5,23.8-2.5
	h6.9v26.4h-5.2c-13.3,0-23.2,1.3-29.8,4s-11.4,7.5-14.6,14.5c-3.2,7-4.7,19.6-4.7,37.7v29.3h29V519h-81.9v-23.2H787.5z"/>
<path class="st8" d="M1013.1,456.3H901.3c1.7,12.3,6.5,22.2,14.6,29.8s18.4,11.4,30.9,11.4c18.2,0,32.7-7.3,43.3-22l23.1,10.2
	c-7.5,11.6-17.3,20.3-29.3,25.9c-12,5.6-24.5,8.5-37.7,8.5c-20.3,0-37.7-6.3-52.2-19c-14.4-12.7-21.7-29.8-21.7-51.3
	c0-20.4,7-37.3,21.1-50.5c14.1-13.2,30.2-19.8,48.5-19.8c17.9,0,34.1,6.4,48.6,19.3C1005.1,411.7,1012.6,430.8,1013.1,456.3z
	 M986.2,437.4c-1.8-9.4-6.7-17.8-14.6-25.4c-7.9-7.6-17.6-11.3-29-11.3c-10.5,0-19.4,3.4-26.8,10.2c-7.4,6.8-12,15.6-13.6,26.5
	L986.2,437.4L986.2,437.4z"/>
<path class="st8" d="M237.9,449.7c0-20.5,6.8-37.4,20.3-50.5s30.1-19.7,49.6-19.7c19.1,0,35.6,6.5,49.4,19.5
	c13.8,13,20.6,29.9,20.6,50.8s-6.9,37.8-20.5,50.9c-13.7,13-30.2,19.5-49.4,19.5c-19.8,0-36.4-6.6-49.8-19.8
	C244.6,487.1,237.9,470.3,237.9,449.7z M265.5,449.7c0,13.1,4.1,23.9,12.3,32.3c8.2,8.4,18.2,12.6,30,12.6c12,0,22.1-4.3,30.2-12.7
	s12.2-19.2,12.2-32.1c0-13-4.1-23.8-12.4-32.2c-8.3-8.4-18.2-12.7-30-12.7c-12.3,0-22.4,4.3-30.4,12.9
	C269.5,426.3,265.5,437,265.5,449.7z"/>
<path class="st8" d="M530.8,494.7v23.2h-49.1v-15.3c-15.3,11.6-30,17.5-44,17.5c-8.9,0-16.2-1.9-22.1-5.8
	c-5.8-3.9-9.7-8.9-11.6-15.1c-1.9-6.2-2.9-16.1-2.9-29.9v-61.2h-18.8v-23.2h45v81.1c0,9.8,0.3,16.4,0.8,19.8
	c0.5,3.4,2.1,6.2,4.8,8.4s6,3.3,10,3.3c12.1,0,25-5.8,38.8-17.3v-72h-23.5v-23.2h49.6v109.8L530.8,494.7L530.8,494.7z"/>
<polygon class="st8" points="714.7,494.8 714.7,384.9 667.9,384.9 667.9,408.2 688.5,408.2 688.5,494.8 667.9,494.8 667.9,518 
	735.3,518 735.3,494.8 "/>
<path class="st8" d="M1013.1,456.3H901.3c1.7,12.3,6.5,22.2,14.6,29.8s18.4,11.4,30.9,11.4c18.2,0,32.7-7.3,43.3-22l23.1,10.2
	c-7.5,11.6-17.3,20.3-29.3,25.9c-12,5.6-24.5,8.5-37.7,8.5c-20.3,0-37.7-6.3-52.2-19c-14.4-12.7-21.7-29.8-21.7-51.3
	c0-20.4,7-37.3,21.1-50.5c14.1-13.2,30.2-19.8,48.5-19.8c17.9,0,34.1,6.4,48.6,19.3C1005.1,411.7,1012.6,430.8,1013.1,456.3z
	 M986.2,437.4c-1.8-9.4-6.7-17.8-14.6-25.4c-7.9-7.6-17.6-11.3-29-11.3c-10.5,0-19.4,3.4-26.8,10.2c-7.4,6.8-12,15.6-13.6,26.5
	L986.2,437.4L986.2,437.4z"/>
<g>
	<g>
		<path class="st8" d="M876.4,170.2c0,0-83.1-57.6-86.5,45.2c1.1,27.1,29.4,98.9,38.4,113c9,14.1,27.7,27.1,27.7,0
			c0-27.1,7.3-37.9,7.3-37.9s5-7.6,6.3-7.9"/>
		<path class="st8" d="M876.4,170.2c-2.3-1.5-4.7-2.8-7.2-4.1c-2.4-1.3-4.9-2.4-7.4-3.5c-5-2.2-10.2-4-15.4-5.4
			c-2.6-0.6-5.3-1.2-8-1.5c-2.7-0.3-5.3-0.5-8-0.4c-5.3,0.1-10.6,1.3-15.3,3.7c-4.7,2.4-8.6,6-11.6,10.3c-1.5,2.1-2.8,4.5-3.9,6.9
			c-1.1,2.4-2.1,4.9-2.9,7.4c-1.6,5.1-2.7,10.4-3.4,15.7c-0.7,5.4-1.1,10.8-1.2,16.2v-0.2c0.2,4.3,1,8.6,1.8,12.9
			c0.9,4.3,2,8.6,3.2,12.9c1.2,4.3,2.4,8.6,3.8,12.8c1.3,4.3,2.7,8.5,4.1,12.7c2.9,8.4,5.9,16.8,9.2,25.1
			c3.2,8.3,6.5,16.6,10.2,24.7c0.9,2,1.9,4,2.9,6c1,2,2,3.9,3.2,5.7c2.3,3.6,5.2,7,8.4,9.8c1.6,1.4,3.3,2.7,5.2,3.6
			c1.8,0.9,3.8,1.4,5.4,1.1c0.8-0.2,1.5-0.6,2.2-1.2c0.6-0.6,1.2-1.5,1.5-2.4c0.8-1.8,1.3-4,1.5-6.1c0.1-1.1,0.2-2.2,0.3-3.3
			l0.1-3.4c0-1.1,0-2.2,0.1-3.4l0.2-3.4c0.4-4.5,1-9,2-13.4c1-4.4,2.3-8.8,4.2-12.9c0.5-1,1-2,1.7-3c0.7-0.9,1.3-1.8,2-2.7
			c0.7-0.9,1.4-1.8,2.1-2.6c0.4-0.4,0.7-0.9,1.1-1.3c0.2-0.2,0.4-0.4,0.6-0.6c0.2-0.2,0.4-0.4,0.7-0.5c-0.3,0.1-0.5,0.3-0.7,0.5
			s-0.4,0.4-0.6,0.6c-0.4,0.4-0.7,0.9-1,1.3c-0.7,0.9-1.3,1.8-1.9,2.8c-0.6,0.9-1.2,1.9-1.8,2.8c-0.5,0.9-1,1.9-1.4,3
			c-1.7,4.1-2.7,8.4-3.5,12.8s-1.2,8.8-1.4,13.2l-0.1,3.3c0,1.1,0,2.2,0,3.4l0,3.4c0,1.1,0,2.3-0.1,3.5c-0.2,2.3-0.6,4.6-1.5,6.9
			c-0.5,1.1-1.1,2.3-2,3.3c-0.9,1-2.2,1.8-3.5,2.2c-1.4,0.4-2.8,0.3-4,0.1c-1.3-0.2-2.5-0.7-3.5-1.2c-2.2-1-4.1-2.4-6-3.9
			c-3.6-3-6.6-6.5-9.3-10.3c-1.3-1.9-2.5-4-3.5-6c-1.1-2-2-4-3-6.1c-1.9-4.1-3.8-8.2-5.5-12.3c-1.8-4.1-3.5-8.3-5.2-12.5
			c-3.3-8.4-6.4-16.8-9.3-25.3c-2.9-8.5-5.7-17.1-8-25.8c-1.2-4.4-2.2-8.7-3.2-13.2c-0.9-4.4-1.7-8.9-1.8-13.6v-0.1v-0.1
			c0.2-5.5,0.7-11.1,1.5-16.6c0.8-5.5,2-11,3.8-16.3c0.9-2.7,2-5.3,3.2-7.8c1.3-2.5,2.7-5,4.4-7.3c1.7-2.3,3.7-4.4,5.8-6.3
			c2.2-1.9,4.6-3.5,7.2-4.7c2.6-1.2,5.3-2.1,8.1-2.7c2.8-0.6,5.6-0.8,8.4-0.8c5.6,0,11.2,1.1,16.5,2.7c5.3,1.6,10.4,3.7,15.4,6.2
			c2.5,1.2,4.9,2.6,7.2,4C871.9,167.1,874.2,168.6,876.4,170.2z"/>
	</g>
	<g>
		<path class="st8" d="M862.9,170c0,0,83.1-57.6,86.5,45.2c-1.1,27.1-29.4,98.9-38.4,113c-9,14.1-27.7,27.1-27.7,0
			c0-27.1-7.3-37.9-7.3-37.9s-5-7.6-6.3-7.9"/>
		<path class="st8" d="M862.9,170c2.3-1.5,4.7-2.8,7.2-4.1c2.4-1.3,4.9-2.4,7.4-3.5c5-2.2,10.2-4,15.4-5.4c2.6-0.6,5.3-1.2,8-1.5
			c2.7-0.3,5.4-0.5,8-0.4c5.3,0.1,10.6,1.3,15.3,3.7c4.7,2.4,8.6,6,11.6,10.3c1.5,2.1,2.8,4.5,3.9,6.9c1.1,2.4,2.1,4.9,2.9,7.4
			c1.6,5.1,2.7,10.4,3.4,15.7c0.7,5.4,1.1,10.8,1.2,16.2v-0.2c-0.2,4.3-1,8.6-1.9,12.9c-0.9,4.3-2,8.6-3.1,12.9
			c-1.2,4.3-2.5,8.6-3.8,12.8c-1.3,4.2-2.7,8.5-4.1,12.7c-2.9,8.4-5.9,16.8-9.2,25.1c-3.2,8.3-6.5,16.6-10.2,24.7
			c-0.9,2-1.9,4-2.9,6c-1,2-2,3.9-3.2,5.7c-2.3,3.6-5.2,7-8.4,9.8c-1.6,1.4-3.3,2.7-5.2,3.6c-1.8,0.9-3.8,1.4-5.4,1.1
			c-0.8-0.2-1.5-0.6-2.2-1.2c-0.6-0.6-1.2-1.5-1.5-2.4c-0.8-1.8-1.3-4-1.5-6.1c-0.1-1.1-0.2-2.2-0.3-3.3l-0.1-3.4
			c0-1.1,0-2.2-0.1-3.4l-0.3-3.4c-0.4-4.5-1-9-2-13.4c-1-4.4-2.3-8.8-4.2-12.8c-0.5-1-1-2-1.7-3c-0.7-0.9-1.3-1.8-2-2.7
			c-0.7-0.9-1.4-1.8-2.1-2.6c-0.4-0.4-0.7-0.9-1.1-1.3c-0.2-0.2-0.4-0.4-0.6-0.6c-0.2-0.2-0.4-0.4-0.7-0.5c0.3,0.1,0.5,0.3,0.7,0.5
			c0.2,0.2,0.4,0.4,0.5,0.6c0.3,0.4,0.7,0.9,1,1.3c0.7,0.9,1.3,1.8,1.9,2.8c0.6,0.9,1.2,1.9,1.8,2.8c0.5,0.9,1,1.9,1.5,3
			c1.7,4.1,2.7,8.4,3.5,12.8c0.8,4.4,1.2,8.8,1.4,13.2l0.1,3.3c0,1.1,0,2.2,0,3.4l0,3.4c0,1.1,0,2.3,0.1,3.5
			c0.2,2.3,0.6,4.6,1.5,6.9c0.5,1.1,1.1,2.3,2,3.3c0.9,1,2.2,1.8,3.5,2.2c1.4,0.4,2.8,0.3,4,0.1c1.3-0.2,2.4-0.7,3.5-1.2
			c2.2-1,4.1-2.4,6-3.9c3.6-3,6.6-6.5,9.3-10.3c1.3-1.9,2.4-4,3.5-6c1-2,2-4,3-6.1c1.9-4.1,3.8-8.2,5.5-12.3
			c1.8-4.1,3.5-8.3,5.2-12.5c3.3-8.4,6.4-16.8,9.3-25.3c2.9-8.5,5.6-17.1,8-25.8c1.2-4.4,2.2-8.7,3.2-13.2c0.9-4.4,1.7-8.9,1.8-13.6
			v-0.1v-0.1c-0.2-5.5-0.7-11.1-1.5-16.6c-0.8-5.5-2-11-3.8-16.3c-0.9-2.7-2-5.3-3.2-7.8c-1.3-2.5-2.7-5-4.4-7.3
			c-1.7-2.3-3.7-4.4-5.8-6.3s-4.6-3.5-7.2-4.7c-2.6-1.2-5.3-2.1-8.1-2.7c-2.8-0.6-5.6-0.8-8.4-0.8c-5.6,0-11.2,1.1-16.5,2.7
			c-5.3,1.6-10.4,3.7-15.4,6.2c-2.5,1.2-4.9,2.6-7.2,4C867.5,167,865.2,168.4,862.9,170z"/>
	</g>
</g>
<path class="st7" d="M59.2,516.3v-86.8h29.9v21.1c14.3,26,33,39,56.2,39c11.8,0,21.8-3.6,29.9-10.8c8.1-7.2,12.2-16.7,12.2-28.4
	c0-11.3-3.3-19.5-10-24.5s-19.2-9.9-37.6-14.9c-21.4-5.7-37.3-11.1-47.6-16.2c-10.3-5.1-18.5-12.4-24.7-21.8
	c-6.1-9.5-9.2-20.6-9.2-33.6c0-20,6.7-36,20-48c13.3-12,30.1-18,50.3-18c19.1,0,36.9,6.2,53.3,18.5v-16H211v72.5h-29.2v-16.7
	c-12.3-18.4-29.2-27.7-50.7-27.7c-13.1,0-23.1,3-30.1,9c-7,6-10.5,13.2-10.5,21.6c0,6.4,1.8,12.1,5.3,16.9
	c3.6,4.9,8.1,8.5,13.6,10.7c5.5,2.3,16.3,5.5,32.5,9.6c21.1,5.5,36.4,10.6,45.9,15.4c9.5,4.8,17.7,12.7,24.6,23.8
	c6.9,11.1,10.3,23.9,10.3,38.3c0,20.4-7.2,37.3-21.6,50.5C186.8,513.4,169,520,147.8,520c-21.8,0-41.3-7.8-58.8-23.5v19.8
	L59.2,516.3L59.2,516.3z"/>
<path class="st8" d="M998.6,469.4"/>
<path class="st8" d="M705.6,323l2.4-1.7v2.8C708,324,706.8,323.4,705.6,323z"/>
</svg>
