<?xml version="1.0" encoding="utf-8"?>
<!-- Generator: Adobe Illustrator 16.0.3, SVG Export Plug-In . SVG Version: 6.00 Build 0)  -->
<!DOCTYPE svg PUBLIC "-//W3C//DTD SVG 1.1//EN" "http://www.w3.org/Graphics/SVG/1.1/DTD/svg11.dtd">
<svg version="1.1" id="Camada_1" xmlns="http://www.w3.org/2000/svg" xmlns:xlink="http://www.w3.org/1999/xlink" x="0px" y="0px"
	 width="112px" height="51px" viewBox="0 0 112 51" enable-background="new 0 0 112 51" xml:space="preserve">
<rect x="275.259" y="201.354" display="none" fill="#939393" width="4.859" height="3.031"/>
<rect x="254.874" y="213.357" display="none" fill="#939393" width="22.615" height="12.629"/>
<path display="none" fill="#939393" d="M255.93,226.289c-4.52-0.679-18.28,0-18.28,0c-0.438,0.141-0.862,0.291-1.281,0.449v19.454
	h47.053v-3.165C276.486,232.6,263.888,227.482,255.93,226.289z"/>
<g display="none">
	<path display="inline" fill="#939393" d="M346.528,177.066c-4.769-7.053-11.574-12.104-20.42-15.154
		c6.406-3.051,11.269-7.553,14.583-13.501c3.32-5.948,4.98-12.62,4.98-20.017c0-9.609-2.789-17.977-8.354-25.108
		c-5.566-7.132-11.994-11.574-19.275-13.328s-18.208-2.629-32.771-2.629h-52.964v19.901h19.562v97.725
		c8.435,1.191,16.439,4.304,24.02,9.338v-41.057h13.728c9.535,0,16.911,0.703,22.138,2.117c5.221,1.412,9.491,4.23,12.812,8.465
		c3.314,4.23,4.975,9.474,4.975,15.728c0,6.863-1.735,12.488-5.204,16.872c-3.471,4.387-7.949,7.168-13.439,8.352
		c-3.052,0.658-7.086,1.132-12.094,1.423v20c6.384-0.285,11.77-0.81,16.153-1.577c6.976-1.219,13.4-3.583,19.276-7.092
		c5.868-3.508,10.578-8.465,14.126-14.871c3.544-6.406,5.316-13.535,5.316-21.389C353.675,192.188,351.293,184.123,346.528,177.066z
		 M314.841,147.554c-4.537,4.005-12.525,6.007-23.965,6.007h-14.987v-46.33h14.987c20.514,0,30.77,7.553,30.77,22.652
		C321.646,137.662,319.377,143.552,314.841,147.554z"/>
</g>
<path display="none" fill="#939393" d="M215.594,336.264v-48.452h16.697v11.804c7.992,14.52,18.45,21.781,31.372,21.781
	c6.585,0,12.152-2.018,16.692-6.047c4.542-4.029,6.813-9.305,6.813-15.83c0-6.334-1.857-10.891-5.566-13.672
	c-3.71-2.784-10.713-5.549-21.012-8.298c-11.959-3.2-20.818-6.221-26.576-9.069c-5.757-2.845-10.348-6.907-13.766-12.183
	c-3.422-5.278-5.134-11.528-5.134-18.759c0-11.19,3.725-20.131,11.177-26.816c7.453-6.682,16.805-10.026,28.063-10.026
	c10.686,0,20.596,3.454,29.746,10.362v-8.922h16.307v40.488h-16.307v-9.309c-6.848-10.295-16.282-15.444-28.305-15.444
	c-7.292,0-12.892,1.677-16.792,5.037c-3.898,3.356-5.851,7.372-5.851,12.04c0,3.582,0.989,6.731,2.975,9.451
	c1.98,2.72,4.509,4.718,7.577,5.998c3.07,1.277,9.114,3.065,18.134,5.361c11.775,3.06,20.313,5.922,25.622,8.576
	c5.307,2.656,9.879,7.085,13.717,13.291c3.834,6.207,5.754,13.342,5.754,21.398c0,11.393-4.012,20.797-12.041,28.219
	c-8.026,7.422-17.955,11.133-29.791,11.133c-12.151,0-23.087-4.381-32.809-13.143v11.029H215.594z"/>
<g display="none">
	<path display="inline" fill="#C33B34" d="M354.84,169.556c-4.769-7.053-11.574-12.104-20.42-15.154
		c6.406-3.051,11.269-7.554,14.583-13.501c3.32-5.949,4.98-12.62,4.98-20.018c0-9.608-2.789-17.976-8.354-25.108
		c-5.566-7.132-11.994-11.574-19.275-13.328s-18.208-2.629-32.771-2.629h-52.964v19.901h19.562v97.724
		c8.435,1.191,16.439,4.305,24.02,9.339v-41.058h13.728c9.535,0,16.911,0.704,22.138,2.117c5.221,1.412,9.491,4.23,12.812,8.465
		c3.314,4.23,4.975,9.475,4.975,15.729c0,6.863-1.735,12.488-5.204,16.871c-3.471,4.387-7.949,7.169-13.439,8.352
		c-3.052,0.658-7.086,1.133-12.094,1.424v20c6.384-0.285,11.77-0.811,16.153-1.577c6.976-1.22,13.4-3.583,19.276-7.093
		c5.868-3.508,10.578-8.465,14.126-14.87c3.544-6.406,5.316-13.535,5.316-21.39C361.986,184.677,359.604,176.611,354.84,169.556z
		 M323.152,140.043c-4.537,4.005-12.525,6.006-23.965,6.006H284.2v-46.33h14.987c20.514,0,30.77,7.553,30.77,22.652
		C329.957,130.15,327.688,136.041,323.152,140.043z"/>
</g>
<path display="none" fill="#C33B34" d="M260.181,218.777c-4.52-0.678-18.28,0-18.28,0c-0.438,0.141-0.862,0.292-1.281,0.449v19.455
	h47.053v-3.165C280.737,225.089,268.139,219.972,260.181,218.777z"/>
<path display="none" fill="#309D98" d="M223.594,336.264v-48.452h16.697v11.804c7.992,14.52,18.45,21.781,31.372,21.781
	c6.585,0,12.152-2.018,16.692-6.047c4.542-4.029,6.813-9.305,6.813-15.83c0-6.334-1.857-10.891-5.566-13.672
	c-3.71-2.784-10.713-5.549-21.012-8.298c-11.959-3.2-20.818-6.221-26.576-9.069c-5.757-2.845-10.348-6.907-13.766-12.183
	c-3.422-5.278-5.134-11.528-5.134-18.759c0-11.19,3.725-20.131,11.177-26.816c7.453-6.682,16.805-10.026,28.063-10.026
	c10.686,0,20.596,3.454,29.746,10.362v-8.922h16.307v40.488h-16.307v-9.309c-6.848-10.295-16.282-15.444-28.305-15.444
	c-7.292,0-12.892,1.677-16.792,5.037c-3.898,3.356-5.851,7.372-5.851,12.04c0,3.582,0.989,6.731,2.975,9.451
	c1.98,2.72,4.509,4.718,7.577,5.998c3.07,1.277,9.114,3.065,18.134,5.361c11.775,3.06,20.313,5.922,25.622,8.576
	c5.307,2.656,9.879,7.085,13.717,13.291c3.834,6.207,5.754,13.342,5.754,21.398c0,11.393-4.012,20.797-12.041,28.219
	c-8.026,7.422-17.955,11.133-29.791,11.133c-12.151,0-23.087-4.381-32.809-13.143v11.029H223.594z"/>
<rect x="164.929" y="-201.889" fill="none" width="179.88" height="59.963"/>
<text transform="matrix(1 0 0 1 164.9287 -150.9648)" display="none"><tspan x="0" y="0" display="inline" fill="#C33B34" font-family="'Rockwell'" font-size="75">B</tspan><tspan x="43.726" y="0" display="inline" fill="#C33B34" font-family="'Rockwell'" font-size="60">eau</tspan></text>
<rect x="152.523" y="-163.46" fill="none" width="224.333" height="56.113"/>
<text transform="matrix(1 0 0 1 152.5234 -112.5361)" display="none"><tspan x="0" y="0" display="inline" fill="#309D98" font-family="'Rockwell'" font-size="75">S</tspan><tspan x="39.807" y="0" display="inline" fill="#309D98" font-family="'Rockwell'" font-size="60">ourire</tspan></text>
<g>
	<path fill="#C33B34" d="M24.336,14.425c1.076-0.511,1.891-1.266,2.445-2.263c0.557-0.998,0.834-2.116,0.834-3.356
		c0-1.61-0.467-3.015-1.4-4.21c-0.932-1.196-2.01-1.941-3.23-2.235s-3.053-0.441-5.494-0.441H8.607v3.338h3.281v20.006H8.607V28.6
		h9.072c2.021,0,3.617-0.102,4.787-0.306c1.17-0.206,2.246-0.602,3.232-1.189c0.984-0.588,1.773-1.42,2.367-2.494
		c0.596-1.074,0.893-2.271,0.893-3.587c0-1.521-0.398-2.874-1.199-4.058C26.961,15.784,25.818,14.937,24.336,14.425z M15.916,5.257
		h2.512c3.441,0,5.16,1.266,5.16,3.798c0,1.305-0.381,2.292-1.143,2.963c-0.758,0.672-2.098,1.008-4.018,1.008h-2.512V5.257z
		 M24.039,23.565c-0.582,0.734-1.334,1.201-2.254,1.399s-2.371,0.298-4.354,0.298h-1.516v-8.938h2.301
		c1.6,0,2.836,0.118,3.713,0.355c0.875,0.235,1.59,0.709,2.148,1.419c0.555,0.709,0.832,1.588,0.832,2.638
		C24.91,21.887,24.619,22.829,24.039,23.565z"/>
	<path fill="#C33B34" d="M24.336,14.425c1.076-0.511,1.891-1.266,2.445-2.263c0.557-0.998,0.834-2.116,0.834-3.356
		c0-1.61-0.467-3.015-1.4-4.21c-0.932-1.196-2.01-1.941-3.23-2.235s-3.053-0.441-5.494-0.441H8.607v3.338h3.281v20.006H8.607V28.6
		h9.072c2.021,0,3.617-0.102,4.787-0.306c1.17-0.206,2.246-0.602,3.232-1.189c0.984-0.588,1.773-1.42,2.367-2.494
		c0.596-1.074,0.893-2.271,0.893-3.587c0-1.521-0.398-2.874-1.199-4.058C26.961,15.784,25.818,14.937,24.336,14.425z M15.916,5.257
		h2.512c3.441,0,5.16,1.266,5.16,3.798c0,1.305-0.381,2.292-1.143,2.963c-0.758,0.672-2.098,1.008-4.018,1.008h-2.512V5.257z
		 M24.039,23.565c-0.582,0.734-1.334,1.201-2.254,1.399s-2.371,0.298-4.354,0.298h-1.516v-8.938h2.301
		c1.6,0,2.836,0.118,3.713,0.355c0.875,0.235,1.59,0.709,2.148,1.419c0.555,0.709,0.832,1.588,0.832,2.638
		C24.91,21.887,24.619,22.829,24.039,23.565z"/>
	<path fill="#C33B34" d="M44.439,15.488c-1.621-1.438-3.43-2.157-5.424-2.157c-2.035,0-3.84,0.737-5.408,2.21
		c-1.572,1.474-2.357,3.351-2.357,5.633c0,2.403,0.807,4.313,2.418,5.73c1.611,1.418,3.551,2.125,5.824,2.125
		c1.461,0,2.863-0.314,4.203-0.943s2.43-1.594,3.268-2.893l-2.578-1.136c-1.186,1.637-2.797,2.455-4.832,2.455
		c-1.402,0-2.553-0.424-3.453-1.273s-1.441-1.959-1.627-3.33h12.49C46.904,19.066,46.063,16.926,44.439,15.488z M34.58,19.792
		c0.184-1.206,0.691-2.191,1.52-2.953c0.83-0.763,1.826-1.145,2.994-1.145c1.277,0,2.355,0.422,3.236,1.267
		c0.879,0.844,1.422,1.788,1.627,2.831H34.58z"/>
	<path fill="#C33B34" d="M61.467,19.132c0-1.208-0.068-2.086-0.207-2.64c-0.137-0.552-0.404-1.066-0.805-1.541
		c-0.398-0.476-1.006-0.865-1.818-1.167c-0.813-0.301-1.777-0.453-2.893-0.453c-3.039,0-5.176,1.157-6.414,3.468l2.793,0.737
		c0.654-1.165,1.715-1.75,3.176-1.75c0.85,0,1.537,0.165,2.064,0.492c0.527,0.326,0.861,0.695,1.004,1.104
		c0.145,0.409,0.217,0.994,0.217,1.75v1.473c-1.301-0.838-2.646-1.258-4.037-1.258c-1.494,0-2.768,0.455-3.828,1.367
		c-1.059,0.91-1.588,2.056-1.588,3.436c0,1.372,0.498,2.497,1.496,3.376c0.998,0.881,2.17,1.32,3.521,1.32
		c1.74,0,3.314-0.685,4.727-2.057V28.6h5.094v-2.593h-2.502V19.132z M58.584,24.81c-1.26,1.188-2.594,1.78-4.006,1.78
		c-0.82,0-1.465-0.235-1.941-0.706c-0.477-0.47-0.715-1.054-0.715-1.749c0-0.746,0.271-1.355,0.814-1.826
		c0.541-0.471,1.217-0.705,2.025-0.705c1.289,0,2.563,0.49,3.822,1.473V24.81z"/>
	<path fill="#309D98" d="M2.801,48.65v-9.687h3.338v2.359c1.598,2.903,3.689,4.355,6.273,4.355c1.316,0,2.43-0.403,3.338-1.21
		c0.908-0.806,1.361-1.86,1.361-3.164c0-1.268-0.371-2.178-1.113-2.734c-0.742-0.556-2.143-1.109-4.201-1.658
		c-2.391-0.64-4.16-1.244-5.313-1.813c-1.15-0.569-2.068-1.382-2.752-2.437s-1.027-2.305-1.027-3.75
		c0-2.237,0.746-4.025,2.236-5.361c1.488-1.337,3.359-2.004,5.609-2.004c2.135,0,4.117,0.69,5.947,2.071v-1.784h3.26v8.095h-3.26
		v-1.861c-1.369-2.058-3.256-3.087-5.66-3.087c-1.457,0-2.576,0.335-3.355,1.007c-0.779,0.671-1.17,1.474-1.17,2.406
		c0,0.717,0.199,1.347,0.596,1.891c0.395,0.544,0.9,0.943,1.514,1.198c0.613,0.257,1.822,0.613,3.627,1.072
		c2.354,0.611,4.059,1.184,5.121,1.716c1.061,0.529,1.975,1.415,2.742,2.656c0.766,1.241,1.15,2.667,1.15,4.278
		c0,2.276-0.803,4.157-2.408,5.642c-1.604,1.483-3.59,2.226-5.955,2.226c-2.43,0-4.615-0.877-6.561-2.629v2.206H2.801z"/>
	<path fill="#309D98" d="M60.115,46.165v-9.668h-2.994v-2.592h5.324v3.345c0.326-0.87,0.781-1.592,1.365-2.164
		c0.584-0.573,1.199-0.951,1.85-1.136s1.537-0.276,2.662-0.276h0.77v2.946h-0.584c-1.484,0-2.592,0.148-3.324,0.445
		c-0.73,0.297-1.271,0.835-1.625,1.619c-0.354,0.781-0.531,2.187-0.531,4.211v3.27h3.24v2.594h-9.146v-2.594H60.115z"/>
	<path fill="#C33B34" d="M78.145,26.007V13.746h-5.539v2.593h2.623v8.041c-1.533,1.289-2.977,1.933-4.328,1.933
		c-0.449,0-0.822-0.121-1.119-0.367c-0.295-0.246-0.475-0.559-0.537-0.937c-0.061-0.377-0.092-1.114-0.092-2.209v-9.054h-5.018
		v2.593h2.102v6.829c0,1.534,0.109,2.646,0.322,3.337c0.217,0.691,0.648,1.254,1.297,1.688c0.65,0.436,1.471,0.653,2.463,0.653
		c0.773,0,1.563-0.16,2.369-0.476c0.068-0.315,0.217-0.599,0.457-0.85c0.332-0.348,0.754-0.521,1.268-0.521
		c0.193,0,0.375,0.035,0.547,0.091c0.09-0.065,0.182-0.125,0.27-0.193v0.308c0.15,0.078,0.293,0.175,0.424,0.301
		c0.313,0.303,0.477,0.67,0.51,1.095h4.545v-2.593H78.145z"/>
	<path fill="#309D98" d="M75.654,27.505c-0.348-0.337-0.762-0.506-1.242-0.506c-0.512,0-0.934,0.174-1.268,0.521
		c-0.33,0.348-0.498,0.757-0.498,1.229c0,0.48,0.172,0.895,0.516,1.243c0.342,0.348,0.758,0.521,1.25,0.521
		c0.48,0,0.895-0.171,1.242-0.514c0.348-0.342,0.521-0.761,0.521-1.25C76.176,28.257,76.002,27.843,75.654,27.505z"/>
	<path fill="#309D98" d="M84.102,46.367v-9.668h-2.99v-2.594h5.324v3.346c0.326-0.87,0.783-1.591,1.365-2.163
		c0.584-0.573,1.201-0.953,1.85-1.136c0.65-0.185,1.537-0.275,2.662-0.275h0.768v2.945h-0.582c-1.484,0-2.592,0.148-3.324,0.445
		c-0.73,0.296-1.273,0.836-1.625,1.618c-0.354,0.782-0.529,2.187-0.529,4.212v3.27h3.236v2.594h-9.145v-2.594H84.102z"/>
	<path fill="#309D98" d="M109.295,41.96h-12.49c0.184,1.371,0.727,2.48,1.625,3.33c0.902,0.849,2.053,1.273,3.453,1.273
		c2.037,0,3.646-0.817,4.834-2.455l2.578,1.137c-0.838,1.298-1.928,2.263-3.268,2.892s-2.742,0.944-4.205,0.944
		c-2.27,0-4.213-0.709-5.822-2.126c-1.611-1.417-2.418-3.327-2.418-5.731c0-2.281,0.785-4.158,2.355-5.631
		c1.572-1.475,3.373-2.21,5.41-2.21c1.994,0,3.803,0.719,5.422,2.155C108.391,36.976,109.234,39.116,109.295,41.96z M106.289,39.843
		c-0.207-1.043-0.748-1.987-1.627-2.831c-0.881-0.845-1.961-1.267-3.238-1.267c-1.166,0-2.166,0.381-2.994,1.145
		c-0.828,0.761-1.334,1.746-1.518,2.953H106.289z"/>
	<path fill="#309D98" d="M22.756,41.224c0-2.291,0.758-4.171,2.271-5.639s3.359-2.202,5.541-2.202c2.137,0,3.973,0.724,5.508,2.172
		c1.533,1.446,2.301,3.336,2.301,5.669c0,2.332-0.764,4.225-2.293,5.678c-1.529,1.452-3.369,2.18-5.516,2.18
		c-2.211,0-4.066-0.737-5.564-2.21S22.756,43.516,22.756,41.224z M25.842,41.217c0,1.466,0.457,2.667,1.373,3.604
		c0.914,0.937,2.033,1.405,3.354,1.405c1.34,0,2.461-0.475,3.367-1.422c0.904-0.945,1.357-2.143,1.357-3.588
		c0-1.456-0.461-2.655-1.381-3.598s-2.035-1.414-3.344-1.414c-1.373,0-2.504,0.481-3.395,1.444
		C26.285,38.612,25.842,39.803,25.842,41.217z"/>
	<path fill="#309D98" d="M55.453,46.242v2.593h-5.479v-1.702c-1.709,1.3-3.344,1.948-4.908,1.948c-0.994,0-1.814-0.218-2.465-0.652
		c-0.648-0.435-1.082-0.998-1.297-1.688c-0.215-0.689-0.322-1.803-0.322-3.337v-6.829h-2.102v-2.593h5.018v9.054
		c0,1.095,0.031,1.83,0.092,2.21c0.063,0.378,0.24,0.69,0.537,0.936c0.299,0.245,0.672,0.368,1.121,0.368
		c1.35,0,2.793-0.644,4.326-1.934v-8.041h-2.623v-2.593h5.539v12.261H55.453z"/>
	<polygon fill="#309D98" points="75.977,46.253 75.977,33.991 70.758,33.991 70.758,36.585 73.061,36.585 73.061,46.253 
		70.758,46.253 70.758,48.846 78.277,48.846 78.277,46.253 	"/>
	<path fill="#309D98" d="M109.295,41.96h-12.49c0.184,1.371,0.727,2.48,1.625,3.33c0.902,0.849,2.053,1.273,3.453,1.273
		c2.037,0,3.646-0.817,4.834-2.455l2.578,1.137c-0.838,1.298-1.928,2.263-3.268,2.892s-2.742,0.944-4.205,0.944
		c-2.27,0-4.213-0.709-5.822-2.126c-1.611-1.417-2.418-3.327-2.418-5.731c0-2.281,0.785-4.158,2.355-5.631
		c1.572-1.475,3.373-2.21,5.41-2.21c1.994,0,3.803,0.719,5.422,2.155C108.391,36.976,109.234,39.116,109.295,41.96z M106.289,39.843
		c-0.207-1.043-0.748-1.987-1.627-2.831c-0.881-0.845-1.961-1.267-3.238-1.267c-1.166,0-2.166,0.381-2.994,1.145
		c-0.828,0.761-1.334,1.746-1.518,2.953H106.289z"/>
	<g>
		<g>
			<path fill="#FFFFFF" d="M94.033,10.021c0,0-9.273-6.434-9.652,5.046c0.127,3.027,3.281,11.038,4.289,12.614
				c1.01,1.578,3.09,3.029,3.09,0c0-3.026,0.82-4.225,0.82-4.225s0.564-0.849,0.699-0.884"/>
			<path fill="#C33B34" d="M94.033,10.021c-0.262-0.163-0.529-0.311-0.801-0.452c-0.271-0.14-0.545-0.272-0.826-0.395
				c-0.559-0.243-1.133-0.449-1.719-0.597c-0.293-0.074-0.592-0.133-0.891-0.17c-0.299-0.036-0.598-0.057-0.895-0.049
				c-0.598,0.015-1.186,0.142-1.705,0.411c-0.52,0.267-0.961,0.668-1.297,1.15c-0.17,0.238-0.313,0.497-0.439,0.765
				c-0.123,0.268-0.232,0.546-0.32,0.83c-0.182,0.568-0.301,1.158-0.383,1.754c-0.08,0.597-0.121,1.201-0.137,1.805v-0.018
				c0.025,0.478,0.105,0.963,0.207,1.444c0.1,0.483,0.219,0.962,0.352,1.439c0.129,0.479,0.271,0.955,0.42,1.43
				c0.148,0.474,0.301,0.947,0.461,1.418c0.32,0.942,0.662,1.877,1.023,2.806c0.357,0.929,0.73,1.854,1.141,2.755
				c0.104,0.225,0.209,0.45,0.32,0.668c0.111,0.22,0.221,0.436,0.352,0.635c0.262,0.401,0.576,0.778,0.936,1.094
				c0.18,0.155,0.371,0.299,0.574,0.399c0.203,0.103,0.422,0.161,0.605,0.119c0.09-0.021,0.17-0.068,0.24-0.138
				c0.07-0.071,0.129-0.162,0.174-0.265c0.092-0.204,0.141-0.441,0.168-0.679c0.014-0.12,0.023-0.241,0.029-0.362l0.012-0.375
				c0.004-0.125,0.006-0.249,0.014-0.376l0.027-0.377c0.047-0.502,0.113-1.003,0.223-1.495c0.109-0.491,0.256-0.977,0.471-1.435
				c0.055-0.113,0.113-0.227,0.186-0.332c0.074-0.102,0.148-0.203,0.225-0.303c0.074-0.1,0.152-0.198,0.232-0.295
				c0.039-0.048,0.08-0.096,0.123-0.142c0.021-0.022,0.043-0.044,0.066-0.065c0.023-0.02,0.047-0.043,0.078-0.053
				c-0.029,0.013-0.051,0.035-0.074,0.057c-0.021,0.022-0.041,0.045-0.063,0.069c-0.037,0.049-0.076,0.099-0.113,0.149
				c-0.072,0.1-0.143,0.203-0.213,0.308c-0.068,0.104-0.137,0.208-0.203,0.313c-0.061,0.104-0.113,0.217-0.16,0.331
				c-0.189,0.458-0.305,0.941-0.391,1.43c-0.084,0.486-0.131,0.982-0.154,1.477l-0.01,0.369c-0.004,0.124-0.004,0.249-0.004,0.374
				l0.002,0.375c-0.002,0.127-0.006,0.256-0.016,0.385c-0.023,0.259-0.064,0.519-0.166,0.775c-0.053,0.128-0.125,0.254-0.227,0.365
				c-0.104,0.111-0.242,0.2-0.395,0.241c-0.15,0.041-0.305,0.037-0.447,0.009c-0.143-0.026-0.273-0.075-0.395-0.133
				c-0.248-0.115-0.463-0.269-0.664-0.436c-0.4-0.335-0.742-0.725-1.035-1.153c-0.148-0.215-0.273-0.442-0.393-0.665
				c-0.117-0.226-0.227-0.452-0.336-0.68c-0.215-0.454-0.418-0.913-0.617-1.374c-0.195-0.462-0.389-0.925-0.572-1.39
				c-0.369-0.934-0.719-1.874-1.045-2.82c-0.328-0.948-0.629-1.906-0.891-2.879c-0.131-0.485-0.25-0.977-0.352-1.474
				c-0.098-0.495-0.184-0.998-0.207-1.521v-0.01V15.06c0.027-0.619,0.078-1.237,0.17-1.854c0.094-0.614,0.227-1.228,0.428-1.823
				c0.1-0.298,0.221-0.59,0.361-0.873s0.303-0.558,0.494-0.813C85.781,9.44,86,9.202,86.244,8.995
				c0.244-0.209,0.516-0.387,0.805-0.523c0.291-0.138,0.598-0.236,0.908-0.297c0.313-0.063,0.627-0.089,0.941-0.086
				c0.631,0.005,1.248,0.125,1.84,0.3c0.594,0.174,1.164,0.411,1.717,0.688c0.273,0.138,0.543,0.284,0.805,0.442
				C93.523,9.678,93.785,9.842,94.033,10.021z"/>
		</g>
		<g>
			<path fill="#FFFFFF" d="M92.525,10.003c0,0,9.271-6.435,9.652,5.045c-0.125,3.028-3.281,11.038-4.289,12.616
				c-1.01,1.576-3.092,3.028-3.092,0c0-3.027-0.82-4.226-0.82-4.226s-0.563-0.848-0.697-0.883"/>
			<path fill="#309D98" d="M92.525,10.003c0.26-0.164,0.527-0.312,0.799-0.453c0.271-0.139,0.547-0.271,0.826-0.394
				c0.559-0.242,1.133-0.449,1.721-0.597c0.293-0.074,0.592-0.132,0.891-0.17c0.297-0.037,0.598-0.056,0.893-0.049
				c0.598,0.015,1.188,0.141,1.707,0.41c0.52,0.268,0.959,0.67,1.295,1.15c0.17,0.24,0.314,0.498,0.441,0.765
				c0.123,0.27,0.229,0.546,0.318,0.831c0.182,0.567,0.303,1.159,0.385,1.755c0.078,0.597,0.121,1.199,0.135,1.805v-0.018
				c-0.023,0.476-0.105,0.963-0.205,1.443c-0.1,0.482-0.221,0.963-0.352,1.44c-0.131,0.479-0.271,0.955-0.422,1.428
				c-0.148,0.476-0.301,0.948-0.461,1.42c-0.318,0.941-0.66,1.877-1.021,2.806c-0.359,0.928-0.732,1.852-1.143,2.754
				c-0.102,0.226-0.209,0.449-0.318,0.669c-0.113,0.22-0.223,0.434-0.354,0.635c-0.26,0.399-0.576,0.777-0.934,1.094
				c-0.182,0.155-0.371,0.297-0.574,0.399c-0.203,0.102-0.424,0.16-0.605,0.119c-0.09-0.023-0.172-0.068-0.24-0.14
				c-0.07-0.07-0.129-0.162-0.174-0.263c-0.092-0.205-0.141-0.441-0.17-0.68c-0.014-0.121-0.021-0.242-0.029-0.363l-0.01-0.373
				c-0.004-0.126-0.008-0.25-0.014-0.376l-0.029-0.377c-0.045-0.504-0.111-1.003-0.221-1.496c-0.109-0.492-0.256-0.978-0.473-1.434
				c-0.055-0.114-0.111-0.227-0.186-0.332c-0.074-0.102-0.146-0.203-0.223-0.304c-0.076-0.099-0.152-0.197-0.232-0.295
				c-0.041-0.048-0.08-0.095-0.123-0.141c-0.023-0.022-0.043-0.045-0.068-0.066c-0.021-0.021-0.047-0.042-0.076-0.052
				c0.029,0.011,0.051,0.035,0.072,0.056c0.023,0.022,0.041,0.046,0.063,0.07c0.039,0.048,0.076,0.098,0.113,0.147
				c0.074,0.102,0.145,0.204,0.213,0.308c0.07,0.105,0.137,0.21,0.203,0.315c0.061,0.104,0.115,0.216,0.162,0.331
				c0.188,0.456,0.305,0.941,0.389,1.428c0.084,0.487,0.131,0.982,0.154,1.478l0.012,0.37c0.004,0.123,0,0.249,0.002,0.373
				l-0.002,0.376c0.002,0.127,0.006,0.256,0.018,0.385c0.021,0.258,0.063,0.519,0.166,0.775c0.053,0.126,0.123,0.254,0.227,0.364
				c0.102,0.11,0.24,0.201,0.391,0.242c0.154,0.039,0.309,0.037,0.449,0.009c0.143-0.027,0.273-0.075,0.396-0.134
				c0.246-0.116,0.463-0.269,0.664-0.435c0.398-0.336,0.74-0.726,1.035-1.153c0.148-0.215,0.273-0.442,0.391-0.666
				c0.117-0.225,0.227-0.452,0.336-0.679c0.215-0.456,0.418-0.913,0.617-1.374c0.197-0.462,0.389-0.925,0.576-1.391
				c0.367-0.933,0.715-1.873,1.041-2.821c0.328-0.948,0.631-1.905,0.893-2.878c0.129-0.484,0.248-0.976,0.35-1.473
				c0.1-0.497,0.186-0.999,0.207-1.521v-0.011v-0.007c-0.025-0.619-0.078-1.237-0.168-1.854c-0.094-0.614-0.227-1.228-0.428-1.823
				c-0.102-0.297-0.221-0.589-0.361-0.872s-0.303-0.558-0.494-0.813c-0.189-0.256-0.406-0.494-0.652-0.703
				c-0.242-0.208-0.516-0.385-0.803-0.521c-0.291-0.139-0.598-0.236-0.908-0.299c-0.314-0.062-0.629-0.087-0.941-0.084
				c-0.631,0.004-1.248,0.123-1.842,0.298c-0.594,0.176-1.164,0.413-1.715,0.689c-0.273,0.138-0.545,0.284-0.807,0.442
				C93.033,9.658,92.773,9.823,92.525,10.003z"/>
		</g>
	</g>
	<path fill="#309D98" d="M2.801,48.65v-9.687h3.338v2.359c1.598,2.903,3.689,4.355,6.273,4.355c1.316,0,2.43-0.403,3.338-1.21
		c0.908-0.806,1.361-1.86,1.361-3.164c0-1.268-0.371-2.178-1.113-2.734c-0.742-0.556-2.143-1.109-4.201-1.658
		c-2.391-0.64-4.16-1.244-5.313-1.813c-1.15-0.569-2.068-1.382-2.752-2.437s-1.027-2.305-1.027-3.75
		c0-2.237,0.746-4.025,2.236-5.361c1.488-1.337,3.359-2.004,5.609-2.004c2.135,0,4.117,0.69,5.947,2.071v-1.784h3.26v8.095h-3.26
		v-1.861c-1.369-2.058-3.256-3.087-5.66-3.087c-1.457,0-2.576,0.335-3.355,1.007c-0.779,0.671-1.17,1.474-1.17,2.406
		c0,0.717,0.199,1.347,0.596,1.891c0.395,0.544,0.9,0.943,1.514,1.198c0.613,0.257,1.822,0.613,3.627,1.072
		c2.354,0.611,4.059,1.184,5.121,1.716c1.061,0.529,1.975,1.415,2.742,2.656c0.766,1.241,1.15,2.667,1.15,4.278
		c0,2.276-0.803,4.157-2.408,5.642c-1.604,1.483-3.59,2.226-5.955,2.226c-2.43,0-4.615-0.877-6.561-2.629v2.206H2.801z"/>
	<path fill="#CE7172" d="M107.672,43.421"/>
	<path fill="#C33B34" d="M74.965,27.081l0.27-0.192v0.307C75.234,27.195,75.102,27.124,74.965,27.081z"/>
</g>
</svg>
