<?xml version="1.0" encoding="utf-8"?>
<!-- Generator: Adobe Illustrator 24.0.1, SVG Export Plug-In . SVG Version: 6.00 Build 0)  -->
<svg version="1.1" id="Camada_1" xmlns="http://www.w3.org/2000/svg" xmlns:xlink="http://www.w3.org/1999/xlink" x="0px" y="0px"
	 viewBox="0 0 1100 1100" style="enable-background:new 0 0 1100 1100;" xml:space="preserve">
<style type="text/css">
	.st0{fill:#020101;}
	.st1{fill:#E6E6E4;}
	.st2{fill:#FEFEFE;}
	.st3{fill:#E6E6E5;}
	.st4{fill:#060405;}
</style>
<g>
	<path class="st0" d="M105.42,874.98c3.21,1.56,5.33,2.78,6.44,3.55c1.09,0.77,2.31,1.78,3.55,3.15l1.22,1.22
		c0.61,0.69,0.93,1.22,0.93,1.75c0,1.22-0.9,2.07-2.6,2.49c-1.75,0.5-3.45,0.95-5.06,1.46c-1.64,0.53-2.84,0.85-3.58,0.85
		c-1.17-0.08-3.58-1.01-7.24-2.81l-69.28-34.73c-2.78-1.51-4.16-3.29-4.16-5.28c0-1.96,1.59-3.79,4.83-5.33l68.88-34.73
		c3.63-1.75,6.07-2.68,7.37-2.68c0.69,0,1.83,0.27,3.47,0.85c1.64,0.53,3.31,1.04,5.04,1.38c1.75,0.45,2.6,1.3,2.6,2.6
		c0,0.53-0.24,1.09-0.77,1.62c-0.5,0.45-1.19,1.14-1.99,1.99c-0.82,0.88-1.75,1.65-2.7,2.25c-1.03,0.69-3.24,1.96-6.74,3.69
		l-50.8,25.8c-1.91,0.93-2.86,1.62-2.86,2.15c0,0.85,1.3,1.88,3.9,3.26L105.42,874.98z"/>
	<path class="st0" d="M133.58,833.23c1.91-7.34,4.88-13.89,8.96-19.59c4.03-5.67,9.28-10.23,15.61-13.6
		c6.36-3.39,13.92-5.12,22.69-5.12c6.65,0.11,12.46,1.38,17.31,3.98c4.9,2.6,9.78,6.04,14.61,10.15c0.16,0.16,0.29,0.37,0.42,0.53
		c0.13,0.24,0.26,0.32,0.43,0.32c1.64,3.29,3.37,6.39,5.09,9.52c1.7,3.21,3.31,6.44,4.75,9.7c1.46,3.29,2.62,6.58,3.53,10
		c0.9,3.42,1.32,6.92,1.32,10.6c0,0.37-0.03,1.22-0.11,2.36c-0.11,1.22-0.13,1.91-0.13,2.23c-0.26,0.85-0.64,2.25-1.14,4.48
		c-0.5,2.15-1.06,4.43-1.72,6.89c-0.64,2.41-1.19,4.77-1.8,7c-0.56,2.23-0.9,3.76-1.03,4.56c-1.11,3.76-3.07,7.74-5.81,11.91
		c-2.73,4.13-5.91,7.92-9.54,11.37c-3.61,3.37-7.58,6.2-11.83,8.43c-4.27,2.17-8.46,3.26-12.67,3.26c-2.09,0-3.69-0.16-4.8-0.4
		c-1.12-0.29-2.07-0.69-2.84-1.06c-0.74-0.42-1.56-0.93-2.39-1.38c-0.85-0.42-2.01-1.01-3.55-1.35c-0.69-0.19-2.04-0.37-3.98-0.61
		c-1.94-0.34-3.31-0.61-4.14-0.93c-0.74-0.21-1.64-0.69-2.84-1.38c-1.17-0.61-2.36-1.22-3.55-1.83c-1.19-0.69-2.28-1.22-3.34-1.67
		c-1.04-0.56-1.62-0.85-1.78-1.01c-2.76-1.8-5.3-4.56-7.58-8.38c-2.28-3.76-4.27-7.79-5.91-12.14c-1.67-4.32-2.94-8.62-3.82-12.94
		c-0.93-4.38-1.35-8.01-1.35-11.08C130.72,848.26,131.67,840.62,133.58,833.23z M148.96,860.93c0.18,1.91,0.5,3.9,0.93,5.81
		c0.4,1.96,0.9,3.79,1.56,5.57c0.58,1.75,1.33,3.05,2.15,3.9l9.78,9.84c1.56,0.4,2.76,0.69,3.66,0.85c0.9,0.16,1.86,0.26,2.81,0.45
		c0.98,0.16,1.86,0.24,2.52,0.24c0.13,0.08,1.11,0.16,2.92,0.16c1.96,0.03,3.42,0.03,4.38,0.03c2.84,0,5.22-0.03,7.26-0.03
		c1.96-0.08,4.27-0.66,6.79-1.62c5.99-4.83,9.99-10.08,11.98-15.72c1.93-5.65,2.92-12.14,2.97-19.54c0-4.3-0.42-8.33-1.3-11.98
		c-0.9-3.71-2.15-7.55-3.61-11.64c-0.69-1.8-1.88-3.34-3.44-4.53c-1.62-1.14-3.37-2.2-5.22-3.13c-1.88-0.93-3.82-1.75-5.86-2.41
		c-2.01-0.69-3.74-1.46-5.09-2.31l-13.17-0.11c-0.13,0-1.06,0.53-2.76,1.65c-1.67,0.95-2.92,1.8-3.71,2.33
		c-3.37,2.39-6.07,4.98-8.09,7.74c-2.04,2.73-3.68,5.7-4.85,8.8c-1.19,3.15-1.99,6.52-2.33,9.92c-0.37,3.52-0.58,7.21-0.58,11.11
		C148.64,857.4,148.77,858.94,148.96,860.93z"/>
	<path class="st0" d="M237.27,889.83c2.12-1.83,4.85-2.68,8.06-2.68c1.94,0,3.84,0.19,5.7,0.58c1.94,0.37,3.92,0.53,5.99,0.53
		c0.56,0,1.35,0,2.41-0.08c1.03-0.08,1.59-0.19,1.75-0.19l0.85-0.77c0-0.58,0.03-1.49,0.11-2.73c0.08-1.3,0.16-2.6,0.24-4.06
		c0.08-1.48,0.19-2.86,0.34-4.16c0.11-1.38,0.19-2.3,0.19-2.84c0-0.32,0.11-0.98,0.34-2.15c0.19-1.06,0.4-1.75,0.53-2.07
		l-0.35-20.44v-3.95l-1.17-24.74l-1.64-1.67c-0.71,0-1.91,0-3.55-0.08c-1.7-0.08-3.5-0.16-5.46-0.24c-1.94-0.08-3.74-0.19-5.41-0.37
		c-1.7-0.16-2.86-0.24-3.55-0.24c-2.79-0.24-5.14-1.38-7.03-3.18c-1.88-1.91-2.78-4.3-2.78-7.05c0-2.78,0.85-5.17,2.52-7.24
		c1.69-1.99,4.03-2.97,6.94-2.97c0.11,0,0.35,0,0.61,0c0.42,0,0.61,0.08,0.61,0.21c2.25,0.32,5.01,0.32,8.27,0.16
		c3.29-0.18,6.58-0.18,9.91-0.08c3.37,0.16,6.5,0.61,9.38,1.38c2.94,0.77,5.17,2.23,6.68,4.3c0.32,0.26,0.58,0.88,0.85,1.8
		c0.27,0.95,0.58,1.83,0.93,2.84c0.37,0.98,0.74,1.75,1.25,2.52c0.48,0.69,1.03,1.01,1.56,1.01h0.43c4.35-3.45,8.96-6.63,13.92-9.54
		c4.96-2.92,10.29-4.37,16.01-4.37c3.5,0,6.87,0.64,10.13,1.85c3.29,1.22,6.12,2.81,8.46,4.93c2.38,2.07,4.29,4.67,5.7,7.66
		c1.46,2.94,2.2,6.31,2.15,9.91c0,5.17-1.25,9.54-3.69,13.21c-2.46,3.58-6.6,5.33-12.43,5.33c-2.78,0-5.04-0.85-6.68-2.6
		c-1.67-1.72-2.97-3.87-3.98-6.39c-0.93-2.54-1.59-5.14-1.94-7.87c-0.34-2.68-0.56-5.04-0.72-7.03c-0.13-0.66-0.53-1.01-1.22-1.01
		c-0.74,0-1.19,0-1.51,0c-0.69,0-1.32,0-1.96,0.08c-0.61,0.08-1.22,0.43-1.78,0.93c-0.56,0.45-1.48,1.22-2.73,2.52
		c-1.27,1.22-2.6,2.6-3.95,3.98c-1.43,1.38-2.76,2.65-4.03,3.87c-1.27,1.3-2.09,2.15-2.52,2.54c-0.53,0.61-1.38,1.51-2.41,2.81
		c-1.03,1.3-2.04,2.76-3.02,4.29c-1.01,1.54-1.86,3.02-2.55,4.48c-0.69,1.46-1.06,2.52-1.06,3.21l-0.05,23.68
		c0.13,0.27,0.29,0.95,0.5,2.04c0.19,1.14,0.32,1.83,0.32,2.12c0,0.4,0.03,1.25,0.21,2.54c0.08,1.22,0.21,2.52,0.29,3.98
		c0.03,1.38,0.11,2.65,0.18,3.95c0.08,1.22,0.08,2.12,0.08,2.68c0.56,1.48,1.41,2.44,2.52,2.76c1.09,0.26,2.44,0.45,3.95,0.45
		c1.54,0,3.1-0.19,4.69-0.45c1.59-0.24,3.18-0.4,4.69-0.4c3.21,0,6.15,0.93,8.8,2.65c2.63,1.75,3.95,4.29,3.95,7.66
		c-0.03,2.78-0.64,4.93-1.91,6.55c-1.27,1.59-2.92,2.84-4.93,3.55c-2.01,0.69-4.22,1.27-6.6,1.38c-2.36,0.24-4.61,0.34-6.68,0.34
		c-2.39,0-4.72-0.19-7-0.45c-2.31-0.24-4.61-0.43-7-0.43c-1.12,0-2.04,0-2.81,0.11c-0.8,0.08-1.88,0.32-3.24,0.66l-23.86-0.08
		c-3.37,0-6.36-1.11-9.07-3.34c-2.7-2.23-4.03-5.12-4.03-8.62C234.01,894.12,235.09,891.68,237.27,889.83z"/>
	<path class="st0" d="M346.31,834.31c1.96-7.16,4.8-13.6,8.67-19.38c3.84-5.81,8.67-10.52,14.5-14.21
		c5.78-3.66,12.57-5.46,20.39-5.44c0.69,0,1.56,0,2.7,0c1.27,0,1.94,0.08,2.12,0.24c0.5,0,1.57,0.16,3.18,0.53
		c1.62,0.32,3.29,0.69,5.01,1.19c1.75,0.34,3.37,0.8,4.91,1.35c1.59,0.45,2.6,0.82,3.13,0.9c2.25,1.99,4.61,4.06,7,6.1
		c2.41,2.15,4.64,4.35,6.68,6.89c2.02,2.44,3.6,5.01,4.88,7.93c1.27,2.81,1.88,5.89,1.88,9.07c-0.05,2.07-0.37,4.21-1.03,6.39
		c-0.58,2.15-1.54,4.06-2.71,5.75c-1.22,1.67-2.68,2.97-4.4,4.06c-1.75,1.03-3.76,1.48-6.15,1.48c-4.35,0-7.98-1.48-10.9-4.64
		c-2.86-3.05-4.32-6.65-4.32-10.82c0-1.83,0.32-3.45,0.85-4.98c0.56-1.46,0.85-3.1,0.85-5.09v-3.29c-0.13-0.16-0.69-0.77-1.67-1.7
		c-0.96-0.96-1.78-1.48-2.47-1.48h-13.84c-0.24,0-0.98,0.11-2.15,0.45c-1.22,0.35-2.15,0.66-2.84,0.96
		c-3.76,1.62-6.92,3.69-9.33,6.12c-2.44,2.47-4.35,5.17-5.75,8.25c-1.4,3.05-2.44,6.39-3,10c-0.56,3.66-0.85,7.4-0.9,11.29
		c0,3.53,0.37,7.4,1.06,11.59c0.66,4.27,1.99,7.88,3.92,10.84c0.37,0.4,1.09,1.11,2.07,2.15c0.98,1.03,2.02,2.15,3.13,3.26
		c1.11,1.14,2.17,2.15,3.23,3.13c1.03,1.01,1.78,1.7,2.17,2.15c0.4,0.4,1.09,0.93,2.12,1.54c0.93,0.69,1.56,0.95,1.86,0.95
		l17.97,0.08c2.2,0,4.19-0.58,5.81-1.72c1.7-1.22,3.23-2.68,4.59-4.43c1.32-1.78,2.49-3.68,3.52-5.73c1.09-2.07,2.17-3.98,3.26-5.73
		c1.14-1.78,2.31-3.18,3.58-4.45c1.25-1.11,2.73-1.72,4.4-1.72c2.52,0.08,4.32,1.01,5.44,2.92c1.09,1.8,1.64,3.95,1.64,6.31
		c0,4.91-1.25,9.46-3.71,13.79c-2.44,4.3-5.59,8.11-9.49,11.37c-3.79,3.29-8.09,5.88-12.81,7.82c-4.8,1.91-9.44,2.86-14.05,2.86
		c-6.84-0.08-13.15-1.64-19.04-4.85c-5.81-3.23-10.87-7.4-15.22-12.54c-4.24-5.09-7.61-10.82-10.07-17.23
		c-2.39-6.41-3.55-12.88-3.55-19.3C343.5,848.52,344.43,841.47,346.31,834.31z"/>
	<path class="st0" d="M440.83,856.45c3.36-4.67,7.56-8.11,12.62-10.23c5.01-2.15,10.47-3.45,16.38-3.9
		c5.91-0.53,11.43-0.93,16.44-1.3c5.01-0.48,9.2-1.22,12.51-2.31c3.34-1.06,5.06-3.37,5.06-6.63c0.03-2.44-0.42-4.67-1.22-6.73
		c-0.82-2.12-2.39-3.79-4.61-5.01c-0.82-0.45-2.07-1.09-3.74-1.91c-1.64-0.85-2.57-1.19-2.71-1.19l-19.62-0.08
		c-1.2,0-1.91,0.5-2.36,1.72c-0.4,1.14-0.8,2.6-1.14,4.35c-0.4,1.78-0.77,3.66-1.17,5.81c-0.45,2.07-1.14,3.98-2.02,5.73
		c-0.9,1.78-2.23,3.18-3.98,4.35c-1.78,1.22-4.08,1.75-7.02,1.75c-4.46,0-8.14-1.46-10.95-4.4c-2.86-2.92-4.27-6.57-4.24-10.92
		c0-2.52,0.4-4.75,1.25-6.66c0.88-1.99,1.99-3.71,3.37-5.41c1.43-1.67,3.05-3.29,4.85-4.75c1.8-1.46,3.61-2.76,5.46-4.06
		c1.51-1.03,3.13-2.25,4.8-3.63c1.69-1.3,3.63-1.91,5.86-1.91l32,0.53c1.8,0,3.92,0.77,6.36,2.28c2.39,1.54,4.77,3.34,7.05,5.41
		c2.3,2.15,4.32,4.37,6.07,6.73c1.72,2.39,2.78,4.35,3.18,6.02c0.16,0.4,0.37,1.14,0.66,2.31c0.24,1.06,0.56,2.25,0.8,3.45
		c0.29,1.11,0.5,2.25,0.74,3.34c0.18,0.98,0.32,1.75,0.32,2.12l-0.05,6.52c0,1.65,0.05,3.55,0.08,5.7c0.08,2.15-0.24,4.03-0.96,5.7
		l-0.13,35.18c0,3.84,1.67,5.8,5.01,5.8c2.2,0,3.61-0.93,4.19-2.89c0.55-1.99,1.04-4.14,1.48-6.58c0.45-2.41,1.09-4.64,1.99-6.55
		c0.93-1.99,2.86-2.99,5.78-2.99c1.51,0.08,2.84,0.48,3.98,1.3c1.09,0.85,2.01,1.94,2.7,3.15c0.66,1.3,1.17,2.68,1.43,4.08
		c0.26,1.46,0.43,2.91,0.43,4.29c-0.03,3.02-0.51,6.1-1.54,9.15c-0.95,3.15-2.33,5.86-4.08,8.25c-1.72,2.44-3.92,4.43-6.47,5.96
		c-2.6,1.54-5.59,2.31-8.94,2.31c-2.65,0-4.91-0.34-6.84-1.01c-1.96-0.61-4.14-1.67-6.52-3.29c-0.82-0.37-1.54-1.06-2.15-1.99
		c-0.61-0.93-1.25-1.75-1.91-2.68c-0.64-0.93-1.33-1.72-2.07-2.41c-0.77-0.69-1.64-1.11-2.63-1.11h-1.06
		c-1.94,1.03-3.92,2.15-5.94,3.52c-2.01,1.46-4.08,2.76-6.21,4.13c-2.09,1.3-4.24,2.36-6.47,3.29c-2.25,0.88-4.53,1.38-6.92,1.38
		l-18.77-0.08c-1.54,0-2.86-0.42-3.98-1.14c-1.11-0.85-2.23-1.54-3.34-2.23c-5.73-3.37-9.83-7.58-12.41-12.51
		c-2.57-4.98-3.84-10.68-3.79-17.23C435.81,867.74,437.46,861.09,440.83,856.45z M452.68,880.15c0.4,1.54,0.98,3.05,1.75,4.5
		c0.77,1.46,1.7,2.68,2.84,3.69c1.09,0.95,2.33,1.41,3.71,1.41l21.32,0.08c0.19,0,0.61-0.11,1.38-0.61
		c0.77-0.34,1.43-0.77,1.99-0.95c0.29-0.35,0.98-0.77,1.99-1.3c1.06-0.53,1.7-0.93,1.99-1.01c5.17-3.53,8.7-7.11,10.47-10.87
		c1.86-3.71,2.76-8.61,2.78-14.61v-2.54c-0.16,0-0.4-0.08-0.85-0.27c-0.4-0.26-0.69-0.34-0.79-0.34c-0.13-0.16-0.29-0.18-0.45-0.18
		l-0.4,0.18c-0.4,0-1.59,0.16-3.45,0.53c-1.86,0.32-3.84,0.61-5.94,1.01c-2.12,0.29-4.09,0.69-5.97,0.98
		c-1.88,0.4-3.02,0.56-3.47,0.56c-3.37,0.53-6.71,0.9-10.15,1.22c-3.37,0.29-6.84,0.69-10.31,1.22c-1.83,0.16-3.45,1.22-4.82,3.37
		c-0.74,0.93-1.59,2.41-2.63,4.56c-1.06,2.07-1.59,3.9-1.59,5.43C452.07,877.24,452.23,878.61,452.68,880.15z"/>
	<path class="st0" d="M555.14,835.08c1.91-7.21,4.77-13.68,8.67-19.38c3.84-5.8,8.67-10.52,14.45-14.21
		c5.78-3.66,12.59-5.51,20.44-5.51c0.61,0,1.54,0,2.68,0c1.3,0,1.88,0.08,2.07,0.24c0.58,0,1.7,0.24,3.26,0.53
		c1.62,0.4,3.29,0.77,4.98,1.22c1.75,0.4,3.37,0.85,4.85,1.38c1.62,0.48,2.6,0.77,3.21,0.93c2.23,1.99,4.61,3.97,7.02,6.1
		c2.36,2.07,4.59,4.35,6.57,6.81c2.07,2.44,3.69,5.09,4.88,7.93c1.3,2.89,1.91,5.97,1.91,9.15c-0.08,2.07-0.4,4.21-1.01,6.31
		c-0.61,2.23-1.51,4.06-2.76,5.75c-1.22,1.67-2.6,3.05-4.4,4.14c-1.67,0.95-3.74,1.49-6.13,1.49c-4.32,0-7.93-1.57-10.79-4.64
		c-2.92-3.05-4.45-6.73-4.45-10.89c0-1.78,0.32-3.45,0.93-4.91c0.53-1.46,0.85-3.1,0.85-5.09v-3.37c-0.16-0.16-0.69-0.69-1.7-1.7
		c-0.98-0.95-1.75-1.46-2.52-1.46l-13.71-0.03c-0.34,0-1.11,0.18-2.23,0.53c-1.14,0.34-2.15,0.66-2.84,0.87
		c-3.76,1.7-6.89,3.76-9.36,6.2c-2.44,2.39-4.32,5.09-5.75,8.25c-1.41,3.05-2.41,6.31-3,10c-0.56,3.55-0.79,7.4-0.84,11.29
		c0,3.47,0.32,7.32,0.98,11.58c0.69,4.27,2.01,7.88,3.95,10.76c0.45,0.43,1.14,1.11,2.07,2.23c1.01,1.03,2.04,2.15,3.13,3.26
		c1.14,1.06,2.17,2.15,3.29,3.13c1.01,1.01,1.72,1.7,2.15,2.07c0.42,0.42,1.11,1.01,2.09,1.62c0.98,0.61,1.62,0.88,1.91,0.88
		l17.92,0.08c2.23,0,4.22-0.5,5.86-1.72c1.7-1.14,3.24-2.6,4.53-4.38c1.3-1.75,2.52-3.66,3.58-5.7c1.08-2.15,2.15-4.06,3.18-5.73
		c1.2-1.78,2.39-3.23,3.61-4.45c1.3-1.11,2.76-1.72,4.4-1.72c2.57,0,4.37,0.96,5.44,2.84c1.09,1.88,1.7,4.03,1.7,6.39
		c0,4.9-1.3,9.46-3.76,13.79c-2.41,4.29-5.54,8.11-9.41,11.3c-3.87,3.29-8.19,5.88-12.91,7.85c-4.75,1.96-9.41,2.83-14.05,2.83
		c-6.81,0-13.12-1.56-18.96-4.85c-5.86-3.24-10.92-7.32-15.22-12.46c-4.3-5.09-7.63-10.9-10.07-17.31
		c-2.41-6.42-3.61-12.8-3.61-19.22C552.28,849.24,553.21,842.24,555.14,835.08z"/>
	<path class="st0" d="M647.54,835.08c1.91-7.42,4.88-13.89,8.91-19.65c4.06-5.7,9.23-10.18,15.67-13.63
		c6.31-3.37,13.89-5.06,22.75-5.06c6.63,0,12.35,1.38,17.23,3.98c4.85,2.57,9.76,5.94,14.66,10.15c0.11,0.16,0.29,0.32,0.45,0.53
		c0.08,0.24,0.24,0.32,0.32,0.32c1.64,3.21,3.37,6.39,5.17,9.52c1.67,3.15,3.29,6.34,4.75,9.62c1.41,3.29,2.6,6.63,3.47,10.07
		c0.93,3.45,1.38,6.92,1.38,10.53c0,0.45-0.08,1.22-0.13,2.44c-0.08,1.17-0.16,1.93-0.16,2.23c-0.32,0.85-0.61,2.31-1.17,4.4
		c-0.53,2.23-0.98,4.53-1.67,6.97c-0.66,2.41-1.27,4.72-1.72,6.95c-0.61,2.28-1.01,3.82-1.09,4.66c-1.22,3.71-3.05,7.69-5.81,11.88
		c-2.73,4.11-5.94,7.95-9.62,11.3c-3.63,3.45-7.53,6.23-11.83,8.46c-4.19,2.23-8.46,3.29-12.57,3.29c-2.15,0-3.74-0.16-4.9-0.45
		c-1.06-0.24-1.99-0.61-2.7-1.01c-0.77-0.45-1.65-0.9-2.49-1.38c-0.8-0.53-1.96-0.96-3.47-1.38c-0.77-0.11-2.07-0.34-4-0.69
		c-1.99-0.19-3.31-0.53-4.24-0.8c-0.61-0.32-1.62-0.77-2.76-1.38c-1.22-0.61-2.44-1.22-3.53-1.91c-1.22-0.64-2.33-1.17-3.37-1.7
		c-1.04-0.45-1.64-0.77-1.8-0.93c-2.76-1.83-5.36-4.67-7.61-8.38c-2.23-3.82-4.22-7.85-5.92-12.14c-1.59-4.32-2.86-8.7-3.82-12.96
		c-0.85-4.35-1.27-8.01-1.27-11.08C644.65,850.01,645.65,842.48,647.54,835.08z M662.97,862.68c0.13,1.99,0.45,3.95,0.9,5.86
		c0.4,1.99,0.93,3.84,1.54,5.59c0.61,1.75,1.38,2.99,2.15,3.87l9.73,9.84c1.54,0.42,2.76,0.69,3.69,0.85
		c0.9,0.19,1.83,0.35,2.89,0.42c0.93,0.11,1.78,0.18,2.41,0.18c0.16,0.16,1.19,0.24,2.92,0.24c1.99,0,3.53,0,4.43,0
		c2.73,0.11,5.22,0,7.18-0.08c2.07,0,4.35-0.5,6.84-1.54c5.96-4.85,9.91-10.08,11.9-15.69c1.99-5.67,3.08-12.14,3.08-19.54
		c0-4.35-0.45-8.3-1.38-12.06c-0.85-3.63-2.07-7.53-3.61-11.58c-0.69-1.8-1.8-3.26-3.39-4.48c-1.54-1.25-3.37-2.23-5.23-3.16
		c-1.8-0.9-3.79-1.75-5.78-2.44c-2.07-0.69-3.82-1.46-5.17-2.31l-13.12-0.08c-0.16,0-1.09,0.58-2.76,1.54
		c-1.7,1.09-2.92,1.91-3.84,2.44c-3.37,2.38-5.94,4.88-8.06,7.71c-1.96,2.76-3.61,5.72-4.72,8.88c-1.22,3.1-1.99,6.39-2.46,9.91
		c-0.29,3.47-0.45,7.16-0.45,11.03C662.65,859.23,662.65,860.77,662.97,862.68z"/>
	<path class="st0" d="M797.25,799.21c3.02,0.61,5.86,1.75,8.54,3.42c1.54,1.08,2.68,2.12,3.53,2.97c0.79,0.95,2.17,1.38,4.16,1.38
		c0.08,0,0.53,0,1.3-0.16l1.7-5.01v-19.46c0-1.75-1.22-2.84-3.79-3.13c-2.65-0.32-5.44-0.61-8.51-1.01c-3.1-0.29-5.86-1.22-8.46-2.6
		c-2.6-1.46-3.79-4.11-3.79-8.17c0-1.99,0.58-3.47,1.8-4.75c1.3-1.11,2.92-1.72,4.91-1.72l25.24,0.08c1.14,0,2.2,0.37,3.37,1.04
		c1.14,0.69,2.07,1.64,2.97,2.68c0.93,1.01,1.7,2.15,2.23,3.45c0.5,1.22,0.85,2.44,0.85,3.53l-0.26,64.64l1.62,3.95l-0.16,47.43
		l2.15,1.7c1.35,0,3.31-0.16,5.97-0.32c2.57-0.19,5.09-0.11,7.61,0.24c2.41,0.37,4.72,1.06,6.55,2.23c1.85,1.14,2.83,2.97,2.76,5.43
		c0,2.78-0.61,5.01-1.99,6.68c-1.3,1.7-3.05,2.92-5.09,3.76c-2.07,0.85-4.38,1.38-6.82,1.54c-2.41,0.18-4.72,0.26-6.79,0.26
		c-4.75,0-8.8-0.5-12.28-1.54c-3.36-0.96-6.55-3.26-9.62-6.84c-0.16,0-0.37-0.08-0.61-0.16c-0.29-0.08-0.53-0.08-0.61-0.08
		c-0.77,0-1.22,0.08-1.62,0.32c-0.37,0.13-0.69,0.45-0.82,0.69c-0.24,0.29-0.56,0.69-0.93,1.06c-0.42,0.37-1.19,0.93-2.15,1.46
		c-3.18,1.83-6.1,3.37-8.7,4.59c-2.57,1.19-5.62,1.8-9.07,1.8c-5.17,0-10-0.88-14.55-2.76c-4.43-1.8-8.54-4.24-12.22-7.24
		c-3.74-3.02-7-6.55-9.84-10.61c-2.84-4.03-5.09-8.38-6.81-12.94c0-0.16-0.16-0.61-0.35-1.38c-0.24-0.77-0.53-1.62-0.93-2.54
		c-0.37-0.9-0.61-1.83-0.85-2.68c-0.13-0.9-0.29-1.51-0.29-1.83l0.08-25.24c0.08-0.98,0.37-2.28,1.06-3.9
		c0.69-1.62,1.11-2.76,1.46-3.45c0.16-0.42,0.43-1.35,0.96-2.81c0.58-1.43,1.01-3.13,1.46-4.88c0.56-1.8,1.01-3.5,1.54-5.04
		c0.45-1.51,0.77-2.52,0.93-2.89c0.13-0.16,0.45-0.61,0.9-1.46l17.13-17.31c0.88-0.85,1.96-1.46,3.34-1.91
		c1.22-0.4,2.71-0.69,4.27-0.93c1.54-0.16,2.97-0.29,4.4-0.37c1.54-0.08,2.92-0.08,4.14-0.08
		C791.15,798.36,794.17,798.65,797.25,799.21z M766.04,865.86c0.98,4.59,2.52,8.72,4.67,12.49c2.09,3.79,5.01,6.84,8.54,9.23
		c3.53,2.33,7.77,3.55,12.83,3.55c4,0,7.61-1.22,10.52-3.79c3.02-2.6,5.54-5.65,7.58-9.41c1.99-3.63,3.53-7.61,4.59-11.88
		c0.93-4.21,1.46-8.03,1.46-11.37c0-4.06-0.53-8.3-1.54-12.75c-0.98-4.51-2.68-8.62-4.85-12.35c-2.23-3.71-5.07-6.95-8.54-9.47
		c-3.45-2.52-7.58-3.71-12.3-3.71c-4.58-0.11-8.45,1.19-11.58,3.63c-3.23,2.55-5.67,5.59-7.64,9.23c-1.83,3.61-3.21,7.56-3.98,11.85
		c-0.77,4.35-1.22,8.22-1.22,11.75C764.59,857.06,765.04,861.38,766.04,865.86z"/>
	<path class="st0" d="M873.71,845.08c0.77-5.22,1.96-10.08,3.79-14.74c1.83-4.64,4.29-9.01,7.32-12.91
		c2.99-3.95,6.81-7.24,11.45-9.68c0.37-0.32,1.14-0.69,2.28-1.27c1.09-0.53,2.31-1.19,3.53-1.8c1.3-0.61,2.41-1.11,3.5-1.56
		c1.06-0.53,1.75-0.85,2.15-1.01c1.51-0.69,3.13-0.98,4.75-0.9c1.59,0.08,3.21,0.13,4.69,0.13c8.86,0,16.44,2.15,22.54,6.42
		c6.15,4.27,11.82,9.76,17.07,16.49c0.53,0.85,1.3,2.41,2.23,4.72c0.9,2.28,1.67,4.83,2.44,7.58c0.77,2.65,1.38,5.3,1.99,7.93
		c0.53,2.6,0.77,4.48,0.77,5.7c0,0.32,0,0.93-0.08,1.75c-0.08,0.93-0.08,1.54-0.08,1.86c-1.3,2.07-3,3.39-5.04,4.08
		c-2.12,0.69-4.27,1.3-6.5,1.7c-1.59,0-4.35-0.08-8.3-0.16c-3.98-0.08-8.11-0.16-12.59-0.16c-4.37,0-8.51,0-12.46,0.08
		c-3.98,0.08-6.68,0.08-8.22,0.08c-1.54,0-3.37,0-5.59,0.08c-2.17,0.08-4.24,0.16-6.31,0.24c-2.15,0-4.72,0.21-7.79,0.45l-0.82,0.61
		c0,0.16-0.08,0.69-0.08,1.54c-0.16,0.82-0.16,1.38-0.16,1.67c0,4.03,0.77,7.93,2.15,11.53c1.54,3.63,3.52,6.87,6.09,9.6
		c2.52,2.73,5.46,4.96,8.99,6.58c3.52,1.59,7.32,2.44,11.53,2.44c0.37,0,1.3,0,2.84-0.08c1.4-0.08,2.44-0.08,2.78-0.08
		c1.91-1.54,4.21-2.6,6.65-3.29c2.57-0.61,4.72-1.64,6.55-3.18c1.38-1.22,2.68-2.76,3.84-4.59c1.22-1.78,2.44-3.53,3.82-5.17
		c1.35-1.7,2.73-3.08,4.27-4.22c1.51-1.06,3.42-1.62,5.65-1.62c2.12,0,3.79,0.61,5.17,1.91c1.3,1.25,1.99,2.84,1.99,4.8
		c-0.08,3.21-0.77,6.04-2.12,8.62c-1.46,2.6-3,5.14-4.64,7.66c-4.22,6.02-9.73,10.37-16.6,12.94c-6.84,2.6-13.89,3.9-21.13,3.84
		c-7.08,0-13.52-1.43-19.14-4.27c-5.78-2.76-10.53-6.57-14.4-11.29c-3.92-4.75-6.89-10.23-8.96-16.49
		c-2.15-6.18-3.1-12.65-3.02-19.54C872.49,855.18,872.86,850.25,873.71,845.08z M892.16,842.24c0,0.37,0.32,0.61,0.85,0.61
		l48.28,0.16c0.24,0,0.61-0.16,1.09-0.53c0.53-0.32,0.9-0.64,1.22-0.93c0.16-0.32,0.16-0.77,0.16-1.46s0-1.22,0-1.46
		c0.03-3.37-0.77-6.15-2.47-8.46c-1.67-2.33-3.74-4.13-6.23-5.51c-2.46-1.27-5.22-2.25-8.27-2.94c-3-0.61-5.78-0.93-8.38-0.93
		c-2.99-0.08-5.94,0.32-9.01,1.09c-3.13,0.74-5.94,1.99-8.38,3.66c-2.6,1.7-4.67,3.71-6.36,6.34c-1.64,2.6-2.49,5.54-2.49,9.07
		C892.16,841.23,892.16,841.63,892.16,842.24z"/>
	<path class="st0" d="M1070.21,855.15l-69.41,34.68c-3.6,1.86-5.94,2.76-7.31,2.68c-0.77,0-1.91-0.21-3.53-0.77
		c-1.64-0.61-3.34-1.06-5.01-1.51c-1.78-0.48-2.62-1.27-2.62-2.49c0-0.58,0.32-1.19,0.93-1.78l1.22-1.22
		c1.27-1.3,2.47-2.36,3.42-2.97c1.03-0.69,3.13-1.93,6.65-3.68l49.73-25.16c2.6-1.3,3.84-2.39,3.84-3.21c0-0.56-0.32-0.93-1.09-1.27
		c-0.85-0.42-1.38-0.69-1.67-0.95l-50.66-26.09c-3.37-1.75-5.67-2.97-6.65-3.66c-1.01-0.69-1.88-1.46-2.73-2.31
		c-0.85-0.88-1.46-1.56-1.99-2.04c-0.53-0.53-0.77-1.06-0.77-1.59c0-1.3,0.85-2.15,2.68-2.54c1.7-0.45,3.34-0.9,4.96-1.43
		c1.59-0.56,2.81-0.77,3.5-0.77c1.3,0,3.77,0.9,7.32,2.76l68.66,34.65c3.13,1.75,4.67,3.55,4.67,5.54
		C1074.35,852,1072.97,853.77,1070.21,855.15z"/>
</g>
<g>
	<polygon class="st1" points="638.66,447.77 732.4,384.99 802.82,443.95 799,520.73 715.01,483.83 	"/>
	<path class="st2" d="M502.01,560.79"/>
	<g>
		<path class="st3" d="M803.03,554.49l5.34-41.51l-211.94-71.74l5.93,84.69c0,0,40.17-16.85,82.41,4.97
			c36.04,18.62,96.48,24,113.46,25.18C798.23,556.08,807.79,555.77,803.03,554.49z"/>
		<path class="st3" d="M381.25,568.24c0,0,160.08-98.2,146.42-55.35c22.71-34.73,21.24-78.45,21.24-78.45l-205,63.11
			C343.9,497.55,367.15,560.55,381.25,568.24z"/>
		<path class="st4" d="M381.36,560.47c-1.9-2.03-18.5-15.56-9.32-30.15c21.66-41.65,112.92-64.85,136.91-55.85
			c24.02,9.08,18.11,34.27,18.11,34.27s-4.35,16.91-24.82,33.41c-20.44,16.6,20.07,19.3,42.5,14.21
			c22.43-5.09,107.4-60.98,122.7-70.44c13.95-8.54,35.58-1.59,39.48-0.21c0,0,0.65,0.03,2.08,1.48
			c8.57,5.62,38.17,34.91,68.25,58.95c34.09,27.24,54.27-8.32,54.27-8.32s8.22-8.22,5.86-73.16c-2.33-64.85-51.89-97.9-89.72-125.05
			c-37.67-27.16-110.85-50.76-135.66-63.72c-24.76-12.98-100.3-90.86-100.3-90.86c-16.54-7.1-11.85,14.7-10.02,20.65
			c25.37,100.88-6.52,104.7-12.99,106.22c-133.94,48.9-174.45,174.03-174.45,174.03c-24.81,66.84-12.72,164.61-12.72,170.39
			s-5.49,5.52-5.81,5.67c-72.54,10.45-62.22,70.26-62.52,80.92c11.48-20.04,57.53-27.73,67.82-31.6
			c10.34-3.77,18.9-17.66,18.9-17.66s3.85,4.4,15.35,12.94c11.48,8.59,46.29,5.67,46.29,5.67s12.14,6.15,20.07,12.67
			c2.36-26.57-26.28-64.64-46.29-62.89c-20.07,1.75-15.06-8.27-14.74-30.65c0.23-21.96,34.87-60.95,39.81-62.77
			c8.83-3.21,1.07-8.02,1.07-8.02C381.45,560.57,381.41,560.52,381.36,560.47 M772.81,492.34c-8.35,1.07-22.35-1.92-45.13-17.86
			c-45.95-32.19-31.21-47.06-25.51-51.12c0,0,28.26-27.15,64.11,13.8c20.88,23.86,23.42,36.48,21.91,42.85c0,0-1.25,4.7-4.5,6.89
			S777.84,491.48,772.81,492.34z"/>
		<path class="st2" d="M517.46,558.43"/>
	</g>
</g>
</svg>
