<svg id="Camada_1" data-name="Camada 1" xmlns="http://www.w3.org/2000/svg" viewBox="0 0 279.32 125.69"><defs><style>.cls-1{fill:#fff;}</style></defs><title>ortodontia-branco</title><g id="outline"><path class="cls-1" d="M381.46,63h-3.81c1-2.33,2-4.73,3.3-7.2a44.08,44.08,0,0,0,5.17-20.74c0-18.88-11.75-32.58-27.93-32.58a27.76,27.76,0,0,0-16.8,5.61,3.52,3.52,0,0,1-3.65,0,27.76,27.76,0,0,0-16.8-5.61,26.32,26.32,0,0,0-23.27,13.84A26.34,26.34,0,0,0,274.39,2.48,27.71,27.71,0,0,0,257.6,8.09a3.54,3.54,0,0,1-3.66,0,27.71,27.71,0,0,0-16.79-5.61,26.34,26.34,0,0,0-23.28,13.84A26.33,26.33,0,0,0,190.6,2.48a27.74,27.74,0,0,0-16.8,5.61,3.54,3.54,0,0,1-3.66,0,27.71,27.71,0,0,0-16.79-5.61c-16.18,0-27.93,13.7-27.93,32.58a44.19,44.19,0,0,0,5.16,20.74c1.27,2.47,2.33,4.86,3.31,7.2h-3.81a14,14,0,0,0-14,14v46.56a4.65,4.65,0,0,0,4.66,4.65h270a4.66,4.66,0,0,0,4.66-4.65V77A14,14,0,0,0,381.46,63ZM320.94,11.79a18.69,18.69,0,0,1,11.14,3.69,12.81,12.81,0,0,0,15,0,18.69,18.69,0,0,1,11.14-3.69c11,0,18.62,9.57,18.62,23.27,0,.39-.05.75-.07,1.13a45.29,45.29,0,0,1-18.55-.09V30.41a4.66,4.66,0,0,0-4.66-4.66H325.6a4.66,4.66,0,0,0-4.66,4.66v5.83a80,80,0,0,1-18.39,2.84,35.84,35.84,0,0,1-.23-4C302.32,21.36,310,11.79,320.94,11.79ZM339,63h0a11.82,11.82,0,0,0-8.95,3.17,21,21,0,0,0-4.46,15.45c0,9.17-2.33,14-4.52,14.06a34.94,34.94,0,0,1-3.2-10.46,133.41,133.41,0,0,0-11.41-33.65c-.56-1.11-1-2.18-1.46-3.26a90.21,90.21,0,0,0,15.93-2.45V49a4.66,4.66,0,0,0,4.66,4.66h27.93A4.66,4.66,0,0,0,358.19,49V45.58a56.6,56.6,0,0,0,9.81.86,51.08,51.08,0,0,0,7-.46,41.86,41.86,0,0,1-2.33,5.58,133.48,133.48,0,0,0-11.41,33.66,38.61,38.61,0,0,1-3.06,10.36c-2.33,0-4.66-4.79-4.66-14a21,21,0,0,0-4.46-15.45A11.91,11.91,0,0,0,340.12,63Zm-8.76-18.62V35.06h18.63v9.32ZM297.16,55.8c.19-.38.32-.75.51-1.14.18.39.31.76.5,1.14,1.27,2.47,2.33,4.86,3.31,7.2h-7.63C294.83,60.67,295.9,58.27,297.16,55.8Zm-60-44a18.71,18.71,0,0,1,11.14,3.69,12.79,12.79,0,0,0,15,0,18.71,18.71,0,0,1,11.14-3.69c11,0,18.62,9.57,18.62,23.27a34.22,34.22,0,0,1-.23,3.92,102,102,0,0,1-18.39-2.79V30.41a4.66,4.66,0,0,0-4.65-4.66H241.8a4.66,4.66,0,0,0-4.65,4.66v5.83a80,80,0,0,1-18.39,2.84,35.84,35.84,0,0,1-.23-4C218.53,21.36,226.18,11.79,237.15,11.79ZM255.21,63h0a11.89,11.89,0,0,0-8.94,3.17,21,21,0,0,0-4.47,15.45c0,9.17-2.32,14-4.51,14.06a34.68,34.68,0,0,1-3.21-10.46,133,133,0,0,0-11.41-33.65c-.56-1.11-1-2.18-1.46-3.26a90.32,90.32,0,0,0,15.94-2.45V49a4.66,4.66,0,0,0,4.65,4.66h27.94A4.66,4.66,0,0,0,274.39,49V45.77a109.25,109.25,0,0,0,16,2.42c-.47,1.11-.93,2.22-1.52,3.36a133.45,133.45,0,0,0-11.4,33.66,38.34,38.34,0,0,1-3.07,10.37c-2.33,0-4.65-4.79-4.65-14a21,21,0,0,0-4.47-15.45A11.89,11.89,0,0,0,256.33,63Zm-8.75-18.62V35.06h18.62v9.32ZM213.36,55.8c.2-.38.33-.75.51-1.14.19.39.31.76.51,1.14,1.26,2.47,2.33,4.86,3.3,7.2h-7.62c1-2.33,2-4.73,3.3-7.2Zm-60-44a18.69,18.69,0,0,1,11.14,3.69,12.79,12.79,0,0,0,15,0,18.74,18.74,0,0,1,11.15-3.69c11,0,18.62,9.57,18.62,23.27A36.65,36.65,0,0,1,209,39a102,102,0,0,1-18.39-2.79V30.41a4.66,4.66,0,0,0-4.66-4.66H158a4.66,4.66,0,0,0-4.66,4.66v5.76a45.33,45.33,0,0,1-18.56-.06c0-.35-.06-.69-.06-1C134.73,21.36,142.39,11.79,153.35,11.79ZM171.42,63h0a11.82,11.82,0,0,0-8.95,3.17A21,21,0,0,0,158,81.62c0,9.17-2.33,14-4.52,14.06a35.25,35.25,0,0,1-3.21-10.46,133,133,0,0,0-11.4-33.65,40.6,40.6,0,0,1-2.36-5.71,56.75,56.75,0,0,0,8,.58,50.88,50.88,0,0,0,8.8-.79V49A4.66,4.66,0,0,0,158,53.69h27.93A4.66,4.66,0,0,0,190.6,49V45.77a109.12,109.12,0,0,0,16,2.42c-.46,1.11-.93,2.22-1.51,3.36a133.48,133.48,0,0,0-11.41,33.66,38.68,38.68,0,0,1-3.06,10.37c-2.33,0-4.66-4.79-4.66-14a21,21,0,0,0-4.46-15.45A11.93,11.93,0,0,0,172.53,63Zm-8.76-18.62V35.06h18.62v9.32Zm223.46,74.48H125.42V77a4.66,4.66,0,0,1,4.66-4.65h7.23c1.79,5.65,2.94,10.7,3.89,15,2.12,9.46,4,17.63,12.15,17.63,3.26,0,14-1.67,14-23.27,0-6.62,1.33-8.45,1.73-8.85s1.09-.41,2.65-.46h.54c1.57,0,2.24,0,2.66.46s1.73,2.23,1.73,8.85c0,21.6,10.71,23.27,14,23.27,8.2,0,10-8.17,12.15-17.63.93-4.23,2.09-9.32,3.89-15h14.47c1.79,5.65,2.94,10.7,3.88,15,2.12,9.46,3.95,17.63,12.16,17.63,3.26,0,14-1.67,14-23.27,0-6.62,1.33-8.45,1.74-8.85s1.09-.41,2.65-.46H256c1.57,0,2.24,0,2.65.46s1.73,2.23,1.73,8.85c0,21.6,10.71,23.27,14,23.27,8.21,0,10-8.17,12.16-17.63.93-4.23,2.09-9.32,3.88-15H304.9c1.79,5.65,2.94,10.7,3.89,15,2.12,9.46,3.95,17.63,12.15,17.63,3.26,0,14-1.67,14-23.27,0-6.62,1.33-8.45,1.73-8.85s1.11-.41,2.65-.46h.54c1.58,0,2.24,0,2.66.46s1.73,2.23,1.73,8.85c0,21.6,10.71,23.27,14,23.27,8.2,0,10-8.17,12.15-17.63.93-4.23,2.1-9.32,3.89-15h7.23A4.66,4.66,0,0,1,386.12,77Z" transform="translate(-116.11 -2.48)"/></g></svg>