<svg id="Camada_1" data-name="Camada 1" xmlns="http://www.w3.org/2000/svg" viewBox="0 0 99.76 44.92"><defs><style>.cls-1{fill:#2156c2;}</style></defs><title>ortodontia</title><g id="outline"><path class="cls-1" d="M94.9,47.39H93.54c.36-.83.72-1.69,1.18-2.57a15.71,15.71,0,0,0,1.85-7.41c0-6.75-4.2-11.64-10-11.64a9.86,9.86,0,0,0-6,2,1.26,1.26,0,0,1-1.3,0,9.86,9.86,0,0,0-6-2A9.37,9.37,0,0,0,65,30.71a9.39,9.39,0,0,0-8.32-4.94,9.81,9.81,0,0,0-6,2,1.28,1.28,0,0,1-1.31,0,9.86,9.86,0,0,0-6-2,9.37,9.37,0,0,0-8.31,4.94,9.38,9.38,0,0,0-8.31-4.94,9.82,9.82,0,0,0-6,2,1.28,1.28,0,0,1-1.31,0,9.84,9.84,0,0,0-6-2c-5.78,0-10,4.89-10,11.64A15.73,15.73,0,0,0,5.3,44.82c.45.88.83,1.73,1.18,2.57H5.12a5,5,0,0,0-5,5V69a1.66,1.66,0,0,0,1.66,1.66H98.22A1.67,1.67,0,0,0,99.88,69V52.39A5,5,0,0,0,94.9,47.39ZM73.29,29.09a6.74,6.74,0,0,1,4,1.32,4.55,4.55,0,0,0,5.35,0,6.72,6.72,0,0,1,4-1.32c3.93,0,6.65,3.42,6.65,8.32,0,.13,0,.26,0,.4a16.1,16.1,0,0,1-6.63,0v-2a1.66,1.66,0,0,0-1.66-1.66H75a1.66,1.66,0,0,0-1.66,1.66h0v2.09a28.71,28.71,0,0,1-6.57,1,11.32,11.32,0,0,1-.08-1.43C66.64,32.51,69.38,29.09,73.29,29.09Zm6.45,18.3h0a4.2,4.2,0,0,0-3.2,1.13A7.53,7.53,0,0,0,75,54c0,3.28-.83,5-1.62,5a12.5,12.5,0,0,1-1.14-3.73,48.23,48.23,0,0,0-4.07-12c-.2-.39-.36-.77-.53-1.16a32.08,32.08,0,0,0,5.69-.88v1.13A1.67,1.67,0,0,0,75,44.05h10a1.66,1.66,0,0,0,1.67-1.66h0V41.16a19.63,19.63,0,0,0,3.5.31,19.12,19.12,0,0,0,2.51-.16,14.46,14.46,0,0,1-.84,2,48.1,48.1,0,0,0-4.07,12A14.17,14.17,0,0,1,86.6,59c-.84,0-1.67-1.72-1.67-5a7.54,7.54,0,0,0-1.59-5.52,4.23,4.23,0,0,0-3.2-1.11Zm-3.13-6.65V37.41h6.65v3.33ZM64.8,44.82c.06-.14.11-.27.18-.41l.17.41c.46.88.84,1.73,1.19,2.57H63.61C64,46.56,64.34,45.7,64.8,44.82ZM43.36,29.1a6.68,6.68,0,0,1,4,1.31,4.56,4.56,0,0,0,5.36,0,6.71,6.71,0,0,1,4-1.31c3.93,0,6.65,3.42,6.65,8.31a13.14,13.14,0,0,1-.08,1.4,36.34,36.34,0,0,1-6.57-1V35.74A1.66,1.66,0,0,0,55,34.08H45a1.67,1.67,0,0,0-1.66,1.66v2.09a28.63,28.63,0,0,1-6.57,1,13.55,13.55,0,0,1-.08-1.43c0-4.9,2.73-8.32,6.65-8.32Zm6.45,18.29h0a4.27,4.27,0,0,0-3.19,1.13A7.49,7.49,0,0,0,45,54c0,3.28-.83,5-1.61,5a12.43,12.43,0,0,1-1.15-3.73,47.31,47.31,0,0,0-4.07-12c-.2-.39-.36-.77-.52-1.16a32.22,32.22,0,0,0,5.69-.88v1.13A1.66,1.66,0,0,0,45,44.05H55a1.66,1.66,0,0,0,1.66-1.66V41.23a39.3,39.3,0,0,0,5.72.87c-.17.39-.34.79-.55,1.2a48.16,48.16,0,0,0-4.07,12A13.78,13.78,0,0,1,56.66,59C55.83,59,55,57.32,55,54a7.5,7.5,0,0,0-1.59-5.51,4.2,4.2,0,0,0-3.2-1.12Zm-3.13-6.65V37.41h6.66v3.33ZM34.86,44.82c.07-.14.12-.27.19-.41.06.14.11.27.18.41.45.88.83,1.73,1.18,2.57H33.68C34,46.56,34.4,45.7,34.86,44.82ZM13.43,29.1a6.68,6.68,0,0,1,4,1.31,4.56,4.56,0,0,0,5.36,0,6.71,6.71,0,0,1,4-1.31c3.93,0,6.65,3.42,6.65,8.31a13,13,0,0,1-.09,1.4,36.32,36.32,0,0,1-6.57-1V35.74a1.66,1.66,0,0,0-1.67-1.66h-10a1.66,1.66,0,0,0-1.66,1.66h0V37.8a16.1,16.1,0,0,1-6.63,0c0-.12,0-.25,0-.36,0-4.91,2.74-8.33,6.65-8.33Zm6.45,18.29h0a4.19,4.19,0,0,0-3.19,1.13A7.49,7.49,0,0,0,15.09,54c0,3.28-.83,5-1.61,5a12.52,12.52,0,0,1-1.15-3.73,47.44,47.44,0,0,0-4.07-12,13.46,13.46,0,0,1-.84-2,19.42,19.42,0,0,0,2.85.21,18.45,18.45,0,0,0,3.15-.28v1.2a1.66,1.66,0,0,0,1.65,1.67h10a1.66,1.66,0,0,0,1.66-1.66h0V41.23a39.72,39.72,0,0,0,5.72.87c-.17.39-.33.79-.54,1.2a47.79,47.79,0,0,0-4.08,12A13.41,13.41,0,0,1,26.74,59c-.83,0-1.66-1.72-1.66-5a7.5,7.5,0,0,0-1.6-5.52,4.22,4.22,0,0,0-3.2-1.11Zm-3.12-6.65V37.41H23.4v3.33ZM96.57,67.35H3.45v-15a1.67,1.67,0,0,1,1.67-1.66H7.7c.64,2,1,3.82,1.39,5.36.76,3.38,1.43,6.3,4.34,6.3,1.17,0,5-.6,5-8.32,0-2.36.48-3,.62-3.16s.39-.14.95-.16h.19c.56,0,.8,0,.95.16s.62.8.62,3.16c0,7.72,3.82,8.32,5,8.32,2.92,0,3.57-2.92,4.34-6.3.33-1.51.74-3.33,1.38-5.36h5.17c.64,2,1.05,3.82,1.39,5.36.76,3.38,1.41,6.3,4.34,6.3,1.17,0,5-.6,5-8.32,0-2.36.48-3,.62-3.16s.39-.14,1-.16h.14c.56,0,.8,0,.95.16s.62.8.62,3.16c0,7.72,3.82,8.32,5,8.32,2.93,0,3.57-2.92,4.34-6.3.33-1.51.75-3.33,1.39-5.36h5.17c.64,2,1,3.82,1.39,5.36.76,3.38,1.41,6.3,4.34,6.3,1.16,0,5-.6,5-8.32,0-2.36.47-3,.62-3.16s.39-.14.94-.16H80c.57,0,.8,0,.95.16s.62.8.62,3.16c0,7.72,3.83,8.32,5,8.32,2.93,0,3.57-2.92,4.34-6.3.34-1.51.75-3.33,1.39-5.36h2.58a1.67,1.67,0,0,1,1.65,1.66v15Z" transform="translate(-0.12 -25.77)"/></g></svg>