<svg id="Camada_1" data-name="Camada 1" xmlns="http://www.w3.org/2000/svg" viewBox="0 0 125.79 125.78"><defs><style>.cls-1{fill:#fff;}</style></defs><title>periodontia-branco</title><path class="cls-1" d="M308.33,39.85c0-.7.08-1.41.08-2.09C308.41,18.1,294.3,2.11,277,2.11a31.24,31.24,0,0,0-18,6.72c-1.89,1.44-3.14,1.65-4.82.68l-.42-.25-.61-.42a31.19,31.19,0,0,0-18-6.73c-17.34,0-31.45,16-31.45,35.64,0,.69,0,1.4.08,2.11a9.09,9.09,0,0,0-7.1,2.17,11,11,0,0,0-3.46,8.3v75.46a2.1,2.1,0,0,0,2.1,2.1H316.79a2.1,2.1,0,0,0,2.1-2.1V50.33a11,11,0,0,0-3.46-8.3,9.14,9.14,0,0,0-7.1-2.18ZM235,6.3a27.31,27.31,0,0,1,15.47,5.84,13.25,13.25,0,0,0,1.32.89l.18.11A30.53,30.53,0,0,0,267.59,17a45,45,0,0,0,14.23-2.46l-1.33-4a36.6,36.6,0,0,1-19.12,1.62l.1-.07A27.35,27.35,0,0,1,277,6.3c15,0,27.25,14.11,27.25,31.45a49.24,49.24,0,0,1-6.06,22.11c-3.54,7-6.56,13.19-9.22,18.69-7.65,15.8-12.33,25.44-17.72,27.8.42-2.53,1-6.42,1.37-11.06a103.84,103.84,0,0,0,14.53-34.86l7.13-1.78-1-4.07-7,1.74-3.37-5.06-3.49,2.33,3.7,5.54A102.56,102.56,0,0,1,273,86.5,68,68,0,0,0,268.85,61l3.56-5.36-3.49-2.32-3.37,5.06-6.95-1.74-1,4.06,7.36,1.84c6.25,15.22,3.13,37.25,2,44-2.24-1.22-2.51-5.84-2.51-18.5C264.39,73.45,263,65,256,65s-8.39,8.45-8.39,23.06c0,12.66-.27,17.28-2.51,18.5-1.18-6.73-4.3-28.75,2-44l7.36-1.84-1-4.06-7,1.74-3.37-5.06-3.49,2.32L243.15,61a68,68,0,0,0-4.1,25.46,102.56,102.56,0,0,1-10.16-27.37l3.7-5.54-3.49-2.33-3.37,5.06-7-1.74-1,4.07,7.13,1.78a103.84,103.84,0,0,0,14.53,34.86c.38,4.64.94,8.53,1.37,11.06-5.39-2.36-10.07-12-17.72-27.8-2.66-5.5-5.68-11.74-9.22-18.69a49.24,49.24,0,0,1-6.06-22.11C207.79,20.41,220,6.3,235,6.3Zm30.9,104.49a17.42,17.42,0,0,0-.38,3.06l-.73-.39a17.91,17.91,0,0,0-17.7,0l-.69.37a17.31,17.31,0,0,0-.38-3c5.75-1.62,5.75-9.2,5.75-22.73,0-16.63,2.12-18.87,4.19-18.87s4.19,2.24,4.19,18.87C260.19,101.59,260.19,109.17,265.94,110.79ZM197.3,50.33a6.82,6.82,0,0,1,2-5.16,5,5,0,0,1,4-1.15l.77.1a59,59,0,0,0,6,17.64c3.53,6.92,6.54,13.13,9.19,18.61,9.31,19.24,14.27,29.47,22.5,30.63a12.41,12.41,0,0,1,.4,4.2,17.88,17.88,0,0,1-1.94.11,12.42,12.42,0,0,1-6.87-1.85,17.89,17.89,0,0,0-17.69,0,13.68,13.68,0,0,1-13.74,0,18.17,18.17,0,0,0-4.66-1.89ZM314.7,123.7H197.3v-7.77a17.54,17.54,0,0,1,2.68,1.23,17.91,17.91,0,0,0,17.7,0,13.66,13.66,0,0,1,13.73,0,17.91,17.91,0,0,0,17.7,0,13.68,13.68,0,0,1,13.75,0,17.89,17.89,0,0,0,17.69,0,13.68,13.68,0,0,1,13.75,0,17.92,17.92,0,0,0,17.71,0,16.73,16.73,0,0,1,2.69-1.23Zm0-12.13a18,18,0,0,0-4.66,1.88,13.7,13.7,0,0,1-13.76,0,17.91,17.91,0,0,0-17.7,0,12.43,12.43,0,0,1-6.87,1.86,17.33,17.33,0,0,1-1.91-.11,12.33,12.33,0,0,1,.4-4.19c8.23-1.17,13.19-11.4,22.5-30.64,2.65-5.48,5.66-11.69,9.19-18.61a59,59,0,0,0,6-17.64l.78-.1a5,5,0,0,1,4,1.15,6.83,6.83,0,0,1,2.06,5.16Z" transform="translate(-193.11 -2.11)"/><path class="cls-1" d="M214.07,33.56h4.2v4.19h-4.2Z" transform="translate(-193.11 -2.11)"/><path class="cls-1" d="M240.91,14.65l.84-4.11C219,6,214.16,28.72,214.12,28.94l4.1.83C218.38,29,222.23,10.9,240.91,14.65Z" transform="translate(-193.11 -2.11)"/><path class="cls-1" d="M203.59,102.73h4.2v4.2h-4.2Z" transform="translate(-193.11 -2.11)"/><path class="cls-1" d="M212,94.35h4.19v4.19H212Z" transform="translate(-193.11 -2.11)"/><path class="cls-1" d="M220.36,102.73h4.2v4.2h-4.2Z" transform="translate(-193.11 -2.11)"/><path class="cls-1" d="M203.59,88.06h4.2v4.19h-4.2Z" transform="translate(-193.11 -2.11)"/><path class="cls-1" d="M201.5,62.9h4.19v4.2H201.5Z" transform="translate(-193.11 -2.11)"/><path class="cls-1" d="M207.79,75.48H212v4.19h-4.19Z" transform="translate(-193.11 -2.11)"/><path class="cls-1" d="M304.21,65h4.2v4.19h-4.2Z" transform="translate(-193.11 -2.11)"/><path class="cls-1" d="M306.31,77.58h4.19v4.19h-4.19Z" transform="translate(-193.11 -2.11)"/><path class="cls-1" d="M295.83,81.77H300V86h-4.19Z" transform="translate(-193.11 -2.11)"/><path class="cls-1" d="M304.21,88.06h4.2v4.19h-4.2Z" transform="translate(-193.11 -2.11)"/><path class="cls-1" d="M295.83,96.44H300v4.2h-4.19Z" transform="translate(-193.11 -2.11)"/><path class="cls-1" d="M304.21,104.83h4.2V109h-4.2Z" transform="translate(-193.11 -2.11)"/><path class="cls-1" d="M287.44,102.73h4.2v4.2h-4.2Z" transform="translate(-193.11 -2.11)"/></svg>