<svg id="Camada_1" data-name="Camada 1" xmlns="http://www.w3.org/2000/svg" viewBox="0 0 99.29 99.37"><defs><style>.cls-1{fill:#26bf8f;}</style></defs><title>periodontia</title><path class="cls-1" d="M91.3,30.13c0-.55.06-1.11.06-1.65C91.36,13,80.21.32,66.55.32A24.58,24.58,0,0,0,52.33,5.63c-1.5,1.13-2.48,1.3-3.81.53L48.19,6l-.49-.33A24.62,24.62,0,0,0,33.49.32C19.79.32,8.64,13,8.64,28.47a15.63,15.63,0,0,0,.06,1.67,7.2,7.2,0,0,0-5.61,1.71A8.69,8.69,0,0,0,.36,38.41V98A1.66,1.66,0,0,0,2,99.68H98A1.66,1.66,0,0,0,99.64,98h0V38.41a8.72,8.72,0,0,0-2.73-6.56,7.26,7.26,0,0,0-5.61-1.72ZM33.37,3.63A21.55,21.55,0,0,1,45.59,8.24a9,9,0,0,0,1,.7l.14.09a24.1,24.1,0,0,0,12.34,3.05,35.65,35.65,0,0,0,11.25-1.94L69.3,7A29,29,0,0,1,54.2,8.26l.08-.06A21.51,21.51,0,0,1,66.55,3.63c11.85,0,21.52,11.14,21.52,24.84a38.73,38.73,0,0,1-4.78,17.47C80.49,51.47,78.1,56.36,76,60.7c-6,12.49-9.74,20.1-14,22,.33-2,.78-5.08,1.08-8.74A81.92,81.92,0,0,0,74.57,46.39L80.2,45l-.79-3.21-5.53,1.37-2.66-4L68.46,41l2.92,4.37a81,81,0,0,1-8,21.63,53.81,53.81,0,0,0-3.28-20.15l2.81-4.23-2.76-1.84-2.66,4L52,43.4l-.79,3.2L57,48.06c4.93,12,2.47,29.43,1.58,34.76-1.77-1-2-4.61-2-14.62C56.59,56.68,55.49,50,50,50s-6.63,6.68-6.63,18.22c0,10-.21,13.65-2,14.61-.94-5.31-3.4-22.71,1.58-34.76l5.81-1.45L48,43.41l-5.53,1.38-2.66-4L37,42.62l2.81,4.22A53.46,53.46,0,0,0,36.57,67a80.57,80.57,0,0,1-8-21.62L31.46,41,28.7,39.11l-2.66,4-5.53-1.37L19.72,45l5.64,1.41A82,82,0,0,0,36.83,73.9c.31,3.66.75,6.74,1.09,8.73-4.26-1.86-8-9.48-14-22-2.1-4.34-4.49-9.27-7.29-14.76a39,39,0,0,1-4.78-17.47C11.87,14.77,21.52,3.63,33.37,3.63ZM57.78,86.18a13.93,13.93,0,0,0-.3,2.41l-.58-.31a14.16,14.16,0,0,0-14,0l-.55.3a13.48,13.48,0,0,0-.3-2.37c4.55-1.28,4.55-7.27,4.55-18,0-13.14,1.67-14.91,3.31-14.91s3.31,1.77,3.31,14.91c0,10.66,0,16.65,4.57,17.93ZM3.58,38.41a5.38,5.38,0,0,1,1.58-4.07,4,4,0,0,1,3.16-.91l.61.08a46.49,46.49,0,0,0,4.74,13.93c2.79,5.47,5.17,10.38,7.26,14.7,7.36,15.2,11.28,23.29,17.78,24.2A9.77,9.77,0,0,1,39,89.66a13.08,13.08,0,0,1-1.53.09,9.9,9.9,0,0,1-5.43-1.46,14.1,14.1,0,0,0-14,0,10.86,10.86,0,0,1-10.86,0,14.39,14.39,0,0,0-3.68-1.5Zm92.75,58H3.58V90.23a14,14,0,0,1,2.12,1,14.16,14.16,0,0,0,14,0,10.79,10.79,0,0,1,10.85,0,14.16,14.16,0,0,0,14,0,10.81,10.81,0,0,1,10.86,0,14.16,14.16,0,0,0,14,0,10.81,10.81,0,0,1,10.86,0,14.2,14.2,0,0,0,14,0,13.58,13.58,0,0,1,2.12-1v6.15Zm0-9.59a14,14,0,0,0-3.68,1.49,10.83,10.83,0,0,1-10.87,0,14.13,14.13,0,0,0-14,0,9.68,9.68,0,0,1-5.42,1.46,12.62,12.62,0,0,1-1.51-.08,9.5,9.5,0,0,1,.32-3.31c6.5-.93,10.42-9,17.77-24.21,2.09-4.33,4.47-9.23,7.26-14.7A46.55,46.55,0,0,0,91,33.5l.62-.08a4,4,0,0,1,3.16.91,5.42,5.42,0,0,1,1.62,4.08Z" transform="translate(-0.36 -0.32)"/><path class="cls-1" d="M16.83,25.16h3.32v3.31H16.83Z" transform="translate(-0.36 -0.32)"/><path class="cls-1" d="M38,10.22,38.7,7c-18-3.59-21.8,14.36-21.83,14.53l3.24.66C20.24,21.56,23.28,7.26,38,10.22Z" transform="translate(-0.36 -0.32)"/><path class="cls-1" d="M8.55,79.81h3.32v3.32H8.55Z" transform="translate(-0.36 -0.32)"/><path class="cls-1" d="M15.2,73.19h3.31V76.5H15.2Z" transform="translate(-0.36 -0.32)"/><path class="cls-1" d="M21.8,79.81h3.32v3.32H21.8Z" transform="translate(-0.36 -0.32)"/><path class="cls-1" d="M8.55,68.22h3.32v3.31H8.55Z" transform="translate(-0.36 -0.32)"/><path class="cls-1" d="M6.9,48.34h3.31v3.32H6.9Z" transform="translate(-0.36 -0.32)"/><path class="cls-1" d="M11.87,58.28H15.2v3.31H11.89Z" transform="translate(-0.36 -0.32)"/><path class="cls-1" d="M88,50h3.32v3.31H88Z" transform="translate(-0.36 -0.32)"/><path class="cls-1" d="M89.7,59.94H93v3.31H89.7Z" transform="translate(-0.36 -0.32)"/><path class="cls-1" d="M81.42,63.25h3.3v3.34H81.41Z" transform="translate(-0.36 -0.32)"/><path class="cls-1" d="M88,68.22h3.32v3.31H88Z" transform="translate(-0.36 -0.32)"/><path class="cls-1" d="M81.42,74.84h3.3v3.32H81.41Z" transform="translate(-0.36 -0.32)"/><path class="cls-1" d="M88,81.47h3.32v3.29H88Z" transform="translate(-0.36 -0.32)"/><path class="cls-1" d="M74.79,79.81h3.32v3.32H74.79Z" transform="translate(-0.36 -0.32)"/></svg>