<svg id="Camada_1" data-name="Camada 1" xmlns="http://www.w3.org/2000/svg" viewBox="0 0 125.64 125.64"><defs><style>.cls-1{fill:#fff;}</style></defs><title>protesedentaria-branco</title><g id="outline"><path class="cls-1" d="M195.27,127.82H316.73a2.1,2.1,0,0,0,2.09-2.09V104.79a6.29,6.29,0,0,0-6.28-6.29h-1.81c.49-1.06,1-2.14,1.58-3.23a19.72,19.72,0,0,0,2.32-9.33c0-8.49-5.28-14.66-12.56-14.66a12.57,12.57,0,0,0-7.55,2.51,1.58,1.58,0,0,1-1.65,0,12.61,12.61,0,0,0-7.55-2.51c-7.28,0-12.57,6.17-12.57,14.66a19.85,19.85,0,0,0,2.33,9.33c.55,1.08,1,2.15,1.51,3.23H235.34c.5-1.06,1-2.14,1.58-3.23a19.85,19.85,0,0,0,2.33-9.33c0-8.49-5.29-14.66-12.57-14.66a12.61,12.61,0,0,0-7.55,2.51,1.58,1.58,0,0,1-1.65,0,12.57,12.57,0,0,0-7.55-2.51c-7.28,0-12.56,6.17-12.56,14.66a19.72,19.72,0,0,0,2.32,9.33c.55,1.08,1.05,2.15,1.52,3.23h-1.75a6.29,6.29,0,0,0-6.28,6.29v20.94A2.1,2.1,0,0,0,195.27,127.82Zm90-52.35a8.41,8.41,0,0,1,5,1.68,5.78,5.78,0,0,0,6.73,0,8.37,8.37,0,0,1,5-1.68c4.93,0,8.37,4.31,8.37,10.47a15.5,15.5,0,0,1-1.86,7.42c-1,2-1.92,3.93-2.74,5.84a22.68,22.68,0,0,1-12.15,3.49,23.78,23.78,0,0,1-12.31-3.48,52.62,52.62,0,0,0-2.58-5.86,15.46,15.46,0,0,1-1.86-7.41C276.94,79.78,280.38,75.47,285.32,75.47Zm-75.39,0a8.37,8.37,0,0,1,5,1.68,5.78,5.78,0,0,0,6.73,0,8.41,8.41,0,0,1,5-1.68c4.94,0,8.38,4.31,8.38,10.47a15.5,15.5,0,0,1-1.86,7.42c-1,2-1.93,3.93-2.74,5.84a22.71,22.71,0,0,1-12.15,3.49A23.87,23.87,0,0,1,206,99.22a56.76,56.76,0,0,0-2.58-5.87,15.43,15.43,0,0,1-1.86-7.41C201.56,79.78,205,75.47,209.93,75.47Zm-12.56,29.32a2.1,2.1,0,0,1,2.09-2.1h4.19a27.73,27.73,0,0,0,14.66,4.19,26.89,26.89,0,0,0,14.47-4.19H279a27.73,27.73,0,0,0,14.66,4.19,26.84,26.84,0,0,0,14.47-4.19h4.38a2.1,2.1,0,0,1,2.09,2.1v18.84H197.37Z" transform="translate(-193.18 -2.18)"/><path class="cls-1" d="M256,113.16c-7.4,0-12.56-3.31-12.56-6.28h-4.19c0,5.86,7.36,10.47,16.75,10.47s16.75-4.61,16.75-10.47h-4.19C268.56,109.85,263.4,113.16,256,113.16Z" transform="translate(-193.18 -2.18)"/><path class="cls-1" d="M225.75,83.49,223.43,80a9.67,9.67,0,0,1-10.25,0l-2.32,3.49a15,15,0,0,0,7.69,2.23A12.69,12.69,0,0,0,225.75,83.49Z" transform="translate(-193.18 -2.18)"/><path class="cls-1" d="M250.87,52.78l-2.31,3.49a15,15,0,0,0,7.69,2.24,12.75,12.75,0,0,0,7.19-2.23l-2.32-3.48A9.65,9.65,0,0,1,250.87,52.78Z" transform="translate(-193.18 -2.18)"/><path class="cls-1" d="M301.14,83.49,298.81,80a9.64,9.64,0,0,1-10.26,0l-2.3,3.49a14.92,14.92,0,0,0,7.69,2.23A12.69,12.69,0,0,0,301.14,83.49Z" transform="translate(-193.18 -2.18)"/><path class="cls-1" d="M264.38,2.18H247.62a2.1,2.1,0,0,0-2.09,2.09V9.79L223,36.43a4.84,4.84,0,0,0-.39.75c0,.06,0,.11,0,.17a3.38,3.38,0,0,0,0,.84l4.19,20.94a2.08,2.08,0,0,0,2.05,1.68h6.4a20.49,20.49,0,0,0,2.2,7.24,56.56,56.56,0,0,1,4.78,14.14c1,4.26,1.77,7.94,5.46,7.94,1.47,0,6.29-.76,6.29-10.47,0-3,.59-3.8.77-4s.54-.21,1.2-.21h.24c.68,0,1,0,1.2.21s.77,1,.77,4c0,9.71,4.82,10.47,6.29,10.47,3.69,0,4.51-3.68,5.46-7.94a56.56,56.56,0,0,1,4.78-14.14,20.49,20.49,0,0,0,2.2-7.24h6.4a2.08,2.08,0,0,0,2-1.67l4.19-20.94a3.38,3.38,0,0,0,0-.84c0-.06,0-.12,0-.17a4.94,4.94,0,0,0-.39-.76L266.47,9.79V4.27A2.1,2.1,0,0,0,264.38,2.18Zm-14.66,8.38V6.37h4.19v4.19h4.18V6.37h4.19V23.12H249.72ZM235.06,56.62h-4.57l-3.35-16.75h7.92Zm1.11-20.94H229.1l16.43-19.41v8.19Zm34.72,30.46a59.47,59.47,0,0,0-5.13,15.14,17.61,17.61,0,0,1-1.38,4.66c-1.05,0-2.1-2.16-2.1-6.28a9.43,9.43,0,0,0-2-7,5.47,5.47,0,0,0-4.16-1.43h-.22a5.47,5.47,0,0,0-4.16,1.43,9.43,9.43,0,0,0-2,7c0,4.12-1.05,6.28-2,6.32a15.55,15.55,0,0,1-1.45-4.7,59.47,59.47,0,0,0-5.13-15.14,15.61,15.61,0,0,1-1.86-7.42c0-6.17,3.44-10.47,8.37-10.47a8.35,8.35,0,0,1,5,1.66,5.77,5.77,0,0,0,6.74,0,8.35,8.35,0,0,1,5-1.66c4.93,0,8.37,4.3,8.37,10.47A15.61,15.61,0,0,1,270.89,66.14Zm1.86-18.61a11.64,11.64,0,0,0-8.37-3.47,12.44,12.44,0,0,0-7.56,2.53,1.61,1.61,0,0,1-1.64,0,12.44,12.44,0,0,0-7.56-2.53,11.64,11.64,0,0,0-8.37,3.47v-9l9.35-11.22h14.8l9.35,11.23Zm8.76,9.09h-4.57V39.87h7.92Zm1.39-20.94h-7.07l-9.36-11.22V16.27Z" transform="translate(-193.18 -2.18)"/><rect class="cls-1" x="60.73" y="12.56" width="4.19" height="4.19"/></g></svg>