<svg id="Camada_1" data-name="Camada 1" xmlns="http://www.w3.org/2000/svg" viewBox="0 0 290.09 316.61"><defs><style>.cls-1{fill-rule:evenodd;}</style></defs><title>sac</title><path class="cls-1" d="M160.22,358.49c-6.68-1.43-13.06-3.52-18.64-7.69-13.68-10.23-19.23-27.58-13.76-43.44a38.84,38.84,0,0,1,38-26.15c16.37.41,31.15,11.93,35.82,27.91.26.89.51,1.78.76,2.67,14.7,3,41.52-10.39,50.29-25.45-2.7,0-5.09,0-7.48,0-5.5-.09-8.31-2.92-8.31-8.46q0-47.3,0-94.6a17.82,17.82,0,0,1,1.12-6,6.34,6.34,0,0,1,6.66-4.48c2.45.1,4.91,0,7.17,0,.3-.46.5-.63.51-.8.77-20.18.14-40.06-8.68-59C227.09,77.41,189.58,55,150.45,57.82c-46.15,3.33-82.85,37.35-88.87,83-1.37,10.36-.91,21-1.31,32h7.48c4.81,0,7.64,2.46,8.31,7.27a31.09,31.09,0,0,1,.17,4.32q0,46.53,0,93.06c0,6.26-2.54,8.86-8.78,8.86-9.69,0-19.39.25-29.06-.18-15.38-.68-28.15-13.4-28.51-28.83-.42-17.82-.22-35.66,0-53.48.17-15.18,12.83-32,32.15-31,.82,0,1.63-.07,3-.13,0-1.37,0-2.66,0-4,.1-12-.57-24.13,2-36C55.28,93.44,78,65.94,114.75,50.07a100.56,100.56,0,0,1,32-7.7,9.24,9.24,0,0,0,1.74-.49h16.08c3.95.6,7.91,1.15,11.85,1.81C220.47,51,257.32,87,266,130.94c2.48,12.55,2.35,25.19,2.32,37.86v3.95a24.71,24.71,0,0,1,14.72,4.47c10.12,7.24,15.77,17.35,16.23,29.53.66,17.7.47,35.44.15,53.15-.21,12.33-7.51,21.71-19.56,24.12-6.47,1.3-10.43,4.27-13.2,9.74a5.76,5.76,0,0,1-.35.51c-11.74,16.64-27.56,27.21-47.46,31.45-5.39,1.15-10.94,1.55-16.41,2.29-3,14.38-12,23.51-25.56,28.4-2.59.93-5.34,1.4-8,2.08ZM60.49,188.43h-18c-10.23,0-17,6.57-17,16.93-.11,16.78-.08,33.56,0,50.35,0,7.44,5.42,14.07,12.81,14.69s14.75.14,22.28.14Zm192.32,0v82.13c6.39,0,12.58.34,18.72-.08,7.82-.53,12.32-4.89,12.36-11.56.09-16.78.14-33.56,0-50.34a22.23,22.23,0,0,0-6.73-16.12,13.77,13.77,0,0,0-7.41-3.85C264.22,188.06,258.63,188.46,252.81,188.46ZM187.52,320.18c-.12-13.52-10.17-23.67-23.33-23.56a23.05,23.05,0,0,0-22.82,22.85c.07,12.61,11,23.45,23.63,23.36A22.67,22.67,0,0,0,187.52,320.18Z" transform="translate(-9.64 -41.88)"/></svg>