<?xml version="1.0" encoding="utf-8"?>
<!-- Generator: Adobe Illustrator 24.0.1, SVG Export Plug-In . SVG Version: 6.00 Build 0)  -->
<svg version="1.1" id="Twitter" xmlns="http://www.w3.org/2000/svg" xmlns:xlink="http://www.w3.org/1999/xlink" x="0px" y="0px"
	 viewBox="0 0 612 612" style="enable-background:new 0 0 612 612;" xml:space="preserve">
<style type="text/css">
	.st0{fill:#FCFCFC;}
</style>
<g>
	<path class="st0" d="M306,0C137.5,0,0,137.5,0,306s137.4,306,306,306c168.5,0,306-137.5,306-306C612.9,137.5,475.5,0,306,0z
		 M306,581.8C154.4,581.8,30.2,458.5,30.2,306C30.2,153.5,154.4,30.2,306,30.2c151.6,0,275.8,123.3,275.8,275.8
		C581.8,457.6,458.5,581.8,306,581.8z"/>
	<path class="st0" d="M445.3,206.2c6.6-3.8,23.5-15.1,32-37.7c0,0-18.8,14.1-45.2,16l-0.9,0.9c-13.2-15.1-33-23.5-53.7-23.5
		c-40.5,0-73.4,32.9-73.4,73.4c0,5.6,0.9,12.2,1.9,17.9v-0.9c0,0-78.1,4.7-151.6-76.3c0,0-33,55.5,23.5,97.9
		c-12.2,1.9-33.9-9.4-33.9-9.4s1.9,58.4,59.3,73.4c-9.4,2.8-26.4,2.8-32.9,0.9c0,0,8.5,44.2,67.8,52.7
		c-15.1,8.5-43.3,34.8-106.4,30.1c0,0,46.1,37.7,129.9,32c84.7-4.7,145.9-62.1,171.3-122.4c25.4-60.3,17.9-94.1,17.9-94.1
		s20.7-11.3,34.8-36.7c-6.6,1.9-31.1,8.5-40.5,10.4C445.3,206.2,445.3,206.2,445.3,206.2z"/>
</g>
</svg>
