<?xml version="1.0" encoding="utf-8"?>
<!-- Generator: Adobe Illustrator 24.0.1, SVG Export Plug-In . SVG Version: 6.00 Build 0)  -->
<svg version="1.1" id="Youtube" xmlns="http://www.w3.org/2000/svg" xmlns:xlink="http://www.w3.org/1999/xlink" x="0px" y="0px"
	 viewBox="0 0 612 612" style="enable-background:new 0 0 612 612;" xml:space="preserve">
<style type="text/css">
	.st0{fill:#FCFCFC;}
</style>
<g>
	<path class="st0" d="M306,0C137.5,0,0,137.5,0,306c0,168.5,137.4,306,306,306c168.5,0,306-137.4,306-306C612,137.5,475.5,0,306,0z
		 M306,581.8C154.4,581.8,30.2,457.6,30.2,306C30.2,154.4,154.4,30.2,306,30.2c151.6,0,275.8,124.3,275.8,275.8
		S458.5,581.8,306,581.8z"/>
	<path class="st0" d="M430.3,198.7c0,0-34.8-4.7-125.2-4.7c-90.4,0-122.4,4.7-122.4,4.7c-22.6,0-40.5,17.9-40.5,40.5v133.7
		c0,22.6,17.9,40.5,40.5,40.5c0,0,32,4.7,122.4,4.7c90.4,0,124.3-4.7,124.3-4.7c22.6,0,40.5-17.9,40.5-40.5V239.2
		C469.8,216.6,451.9,198.7,430.3,198.7z M257,370V242.9l110.1,64L257,370z"/>
</g>
</svg>
